<svg width="18" height="18" viewBox="0 0 18 18" fill="none" xmlns="http://www.w3.org/2000/svg">
<path d="M16.0323 7.12014C16.4259 5.93482 16.2896 4.63734 15.6587 3.55992C14.7097 1.90799 12.8025 1.05815 10.9402 1.4574C9.31675 -0.348537 6.5374 -0.496334 4.73158 1.12715C4.15851 1.64248 3.73093 2.29907 3.49196 3.03184C2.26836 3.28297 1.21245 4.04909 0.594275 5.13436C-0.364862 6.78367 -0.147136 8.86428 1.13269 10.2795C0.737793 11.4641 0.872807 12.762 1.50308 13.8397C2.45306 15.4923 4.36153 16.3421 6.22488 15.9422C7.05391 16.8758 8.2445 17.4071 9.49295 17.3999C11.4021 17.4015 13.0935 16.1688 13.6763 14.3508C14.8996 14.0993 15.9555 13.3332 16.574 12.2483C17.5217 10.6019 17.303 8.53207 16.0323 7.12014ZM9.49295 16.2614C8.73094 16.2627 7.99278 15.9955 7.40795 15.5067L7.51092 15.4485L10.9745 13.4486C11.1497 13.3456 11.2579 13.1579 11.2592 12.9545V8.07003L12.7234 8.91725C12.7381 8.92477 12.7483 8.93884 12.7509 8.95486V13.0023C12.7469 14.8004 11.2906 16.2574 9.49295 16.2614ZM2.49065 13.2704C2.1085 12.6106 1.9712 11.8369 2.10327 11.0855L2.20624 11.1473L5.67307 13.1468C5.84764 13.2495 6.06438 13.2495 6.23894 13.1468L10.474 10.7049V12.396C10.473 12.4137 10.4642 12.4301 10.4501 12.4405L6.94211 14.4642C5.3831 15.3625 3.39128 14.8285 2.49065 13.2704ZM1.5786 5.72424C1.96336 5.0598 2.57074 4.5533 3.2932 4.294V8.4101C3.29058 8.6125 3.39814 8.80052 3.57434 8.90058L7.78879 11.3324L6.32458 12.1796C6.30856 12.1881 6.28928 12.1881 6.27326 12.1796L2.77211 10.1591C1.21638 9.25732 0.682878 7.26663 1.5786 5.70691V5.72424ZM13.608 8.51964L9.37983 6.06365L10.8404 5.22003C10.8565 5.21152 10.8757 5.21152 10.8918 5.22003L14.3929 7.24374C15.9513 8.14328 16.4854 10.1363 15.5861 11.6947C15.2076 12.3509 14.6123 12.8545 13.9025 13.1193V9.00325C13.8963 8.80117 13.7845 8.61741 13.608 8.51964ZM15.0654 6.32785L14.9624 6.26606L11.5024 4.24921C11.3265 4.14621 11.1088 4.14621 10.9333 4.24921L6.70183 6.69114V4.99997C6.70019 4.98264 6.70805 4.96531 6.72244 4.9555L10.2236 2.93505C11.7842 2.03584 13.7783 2.5721 14.6773 4.13313C15.0572 4.79233 15.1945 5.56369 15.0657 6.31347V6.3272L15.0654 6.32785ZM5.90288 9.32566L4.43867 8.48203C4.42396 8.47321 4.41383 8.45784 4.41122 8.44083V4.40354C4.41351 2.60185 5.87575 1.1435 7.67667 1.14579C8.43672 1.14677 9.17291 1.41326 9.75741 1.89949L9.65444 1.95769L6.19088 3.95753C6.01566 4.06053 5.90746 4.24822 5.90615 4.45161L5.90288 9.32566ZM6.69824 7.61062L8.58415 6.52339L10.4737 7.61062V9.78508L8.59101 10.8726L6.70183 9.78508L6.69824 7.61062Z" fill="black" fill-opacity="0.6"/>
</svg>
