<svg width="135" height="124" viewBox="0 0 135 124" fill="none" xmlns="http://www.w3.org/2000/svg">
<mask id="mask0_1754_2827" style="mask-type:luminance" maskUnits="userSpaceOnUse" x="0" y="0" width="135" height="124">
<path d="M134.791 0H0V123.491H134.791V0Z" fill="white"/>
</mask>
<g mask="url(#mask0_1754_2827)">
<mask id="mask1_1754_2827" style="mask-type:luminance" maskUnits="userSpaceOnUse" x="-51" y="0" width="225" height="225">
<path d="M173.431 0H-50.6074V224.403H173.431V0Z" fill="white"/>
</mask>
<g mask="url(#mask1_1754_2827)">
<mask id="mask2_1754_2827" style="mask-type:luminance" maskUnits="userSpaceOnUse" x="-51" y="0" width="225" height="225">
<path d="M-50.6074 -1.52588e-05H173.431V224.403H-50.6074V-1.52588e-05Z" fill="white"/>
</mask>
<g mask="url(#mask2_1754_2827)">
<path d="M61.7616 151.166L64.798 120.074L65.7266 108.097C66.0264 104.23 63.3895 100.78 59.6473 100.142C55.4651 99.428 51.5518 102.477 51.1123 106.789C50.5336 112.467 49.8862 119.242 49.835 121.032L47.3184 149.265" fill="#005880"/>
<path d="M67.8012 150.81L65.1465 119.682L64.3677 107.695C64.1166 103.824 66.827 100.403 70.6173 99.8069C74.8523 99.1411 78.7661 102.234 79.1527 106.551C79.662 112.236 80.2254 119.019 80.2536 120.81L82.4208 149.072" fill="#005880"/>
<path d="M78.7517 119.302C78.7517 119.302 79.5722 119.643 79.2118 99.4413L51.3638 99.2351C51.2657 102.172 51.2774 116.209 51.4606 119.142C51.4606 119.142 75.3904 119.142 78.7517 119.302Z" fill="#005880"/>
<path d="M66.312 119.245L59.6406 118.136" stroke="#1F0000" stroke-width="0.448361" stroke-linecap="round" stroke-linejoin="round"/>
<path d="M61.2029 35.6832C61.2444 37.3742 59.9098 38.7794 58.2213 38.8214C56.5328 38.8629 55.1304 37.5255 55.0889 35.8346C55.0469 34.1432 56.3819 32.7384 58.07 32.6964C59.7585 32.6549 61.1613 33.9919 61.2029 35.6832Z" fill="#FFB085"/>
<path d="M56.4102 35.322C56.4102 35.322 57.6281 34.7332 58.7795 36.8532" stroke="#1F0000" stroke-width="0.448361" stroke-linecap="round" stroke-linejoin="round"/>
<path d="M72.3672 35.8091C72.3612 37.5009 73.7256 38.877 75.4145 38.8831C77.1034 38.8891 78.4772 37.5227 78.4832 35.8309C78.4893 34.1392 77.1248 32.763 75.4359 32.757C73.747 32.7513 72.3733 34.1174 72.3672 35.8091Z" fill="#FFB085"/>
<path d="M77.1511 35.3467C77.1511 35.3467 75.921 34.7841 74.8145 36.9282" stroke="#1F0000" stroke-width="0.448361" stroke-linecap="round" stroke-linejoin="round"/>
<path d="M70.256 42.759C68.9771 44.6113 66.3229 45.4669 64.2675 44.1052C64.2481 44.0943 62.8163 42.4333 62.8163 42.4333L62.0645 53.114L71.2327 53.0608L70.256 42.759Z" fill="#FFB085"/>
<path d="M63.2715 44.4273L70.754 48.6232L70.256 42.759L63.2715 44.4273Z" fill="#F79067"/>
<path d="M48.3675 92.6319L54.1817 68.0003L51.3281 55.7424C51.3281 55.7424 44.007 57.1521 41.1445 71.8273C40.1897 76.7226 38.8781 83.2349 37.5391 89.8151" fill="#FFB085"/>
<path d="M51.2014 80.6283L54.1818 67.9999L51.329 55.7424C51.329 55.7424 42.7019 57.3995 39.8399 72.0739C39.557 73.5251 39.3572 75.097 39.1816 76.7621L51.2014 80.6283Z" fill="#005880"/>
<path d="M52.2411 55.378C48.8281 56.3708 46.8664 59.9464 47.8596 63.3646C48.8531 66.7828 52.4255 68.7486 55.8389 67.7554C59.2522 66.7622 61.2139 63.1866 60.2204 59.7684C59.2272 56.3506 55.6544 54.3849 52.2411 55.378Z" fill="#005880"/>
<path d="M76.4883 56.1161C73.1044 57.2062 71.2452 60.8371 72.3352 64.2254C73.4253 67.6137 77.0517 69.4766 80.4352 68.3865C83.8187 67.2961 85.6779 63.6656 84.5879 60.2769C83.4979 56.8886 79.8718 55.0257 76.4883 56.1161Z" fill="#005880"/>
<path d="M79.716 93.789L77.2676 68.5944L81.7423 56.8349C81.7423 56.8349 88.8059 59.224 89.6691 74.1531C89.9569 79.1331 90.3806 85.7641 90.8225 92.4653" fill="#005880"/>
<path d="M78.5231 81.5113L77.2676 68.594L81.7419 56.8349C81.7419 56.8349 90.0663 59.6461 90.9295 74.5748C91.0146 76.0515 91.0013 77.6359 90.9513 79.3095L78.5231 81.5113Z" fill="#005880"/>
<path d="M62.2414 50.6099L52.8165 55.4305L51.5586 102.345L79.0006 103.038L81.4906 56.5915L71.7667 51.3468L62.2414 50.6099Z" fill="#005880"/>
<path d="M62.2414 50.6099L52.8165 55.4305L51.582 101.624L79.0237 102.317L81.4911 56.5915L71.7672 51.3472L62.2414 50.6099Z" fill="#005880"/>
<path d="M71.4107 50.8496L66.6991 59.6841L62.2441 50.6091L71.4107 50.8496Z" fill="#FFB085"/>
<path d="M78.0264 70.6086L69.5879 70.3378L69.7279 65.9309L78.1665 66.2017L78.0264 70.6086Z" fill="white"/>
<path d="M75.1914 53.1794C75.1914 53.1794 78.1306 55.2953 76.4166 65.0414" stroke="#1F0000" stroke-width="0.941518" stroke-linecap="round" stroke-linejoin="round"/>
<path d="M78.6508 65.9369C78.6109 67.1872 77.5664 68.1682 76.3182 68.1283C75.07 68.0879 74.0901 67.0419 74.1301 65.792C74.1696 64.5414 75.2137 63.5607 76.4623 63.6007C77.7105 63.641 78.6904 64.6867 78.6508 65.9369Z" fill="#1F0000"/>
<path d="M77.6456 65.9046C77.6238 66.5988 77.0439 67.1436 76.3506 67.1214C75.6572 67.0992 75.1132 66.5181 75.1354 65.8239C75.1576 65.1298 75.7375 64.585 76.4305 64.6072C77.1238 64.6294 77.6678 65.2105 77.6456 65.9046Z" fill="#59D5EE"/>
<path d="M59.275 52.8973C59.275 52.8973 56.4016 56.1214 58.1116 63.0579" stroke="#1F0000" stroke-width="0.941518" stroke-linecap="round" stroke-linejoin="round"/>
<path d="M58.6854 75.9635C58.9086 76.5426 59.4562 76.905 60.0426 76.924C60.2359 76.93 60.4328 76.899 60.6241 76.8259L61.0358 76.6689C61.1609 76.6209 61.2234 76.4813 61.1754 76.3558C61.1278 76.2311 60.9877 76.1689 60.8634 76.2161L60.4518 76.3735C59.9284 76.5721 59.338 76.3102 59.1366 75.7892C58.727 74.7254 58.0393 72.9239 57.4198 71.2947C57.2709 71.3572 57.1216 71.4181 56.9727 71.4811C57.5913 73.1071 58.2762 74.9025 58.6854 75.9635Z" fill="#59D5EE"/>
<path d="M66.4699 72.984L64.7458 68.4515C64.5941 68.5052 64.4428 68.5621 64.291 68.6162L66.0175 73.1559C66.1143 73.4117 66.1063 73.6894 65.9945 73.9388C65.8835 74.1882 65.6817 74.3787 65.4266 74.4759L64.7398 74.7379C64.6147 74.7855 64.5521 74.9255 64.5997 75.0506C64.6474 75.1757 64.7878 75.2387 64.9121 75.1907L65.599 74.9283C66.3746 74.6333 66.7657 73.7608 66.4699 72.984Z" fill="#59D5EE"/>
<path d="M63.5455 65.2932C63.1492 64.2508 62.3712 63.4255 61.355 62.9691C60.3384 62.5127 59.2056 62.4792 58.1648 62.8767C56.0235 63.6931 54.9395 66.1048 55.7486 68.2522C55.9646 68.8256 56.4448 70.0908 56.9735 71.4799C57.122 71.4173 57.2713 71.3564 57.4202 71.2938C56.894 69.9108 56.4165 68.6525 56.2014 68.0811C55.4859 66.1831 56.4444 64.0511 58.3375 63.3291C59.2568 62.9788 60.2581 63.0078 61.1568 63.411C62.0552 63.8146 62.7428 64.5442 63.0931 65.4656L64.2913 68.6162C64.4431 68.5621 64.5948 68.5052 64.7465 68.4519L63.5455 65.2932Z" fill="#1F0000"/>
<path d="M61.9377 76.0652C62.0987 76.4885 61.8868 76.9619 61.4643 77.1233C61.0414 77.2844 60.5684 77.0717 60.4074 76.6483C60.2463 76.2254 60.4586 75.7516 60.8812 75.5906C61.3037 75.4296 61.7767 75.6419 61.9377 76.0652Z" fill="#1F0000"/>
<path d="M65.1151 74.8533C65.2765 75.2766 65.0642 75.7504 64.6417 75.9115C64.2192 76.0725 63.7462 75.8598 63.5852 75.4369C63.4241 75.0135 63.636 74.5397 64.0589 74.3787C64.4815 74.2177 64.9545 74.43 65.1151 74.8533Z" fill="#1F0000"/>
<path d="M79.4376 92.9027C79.4154 89.7485 81.9506 87.1733 85.1001 87.1511C88.2495 87.1289 90.8202 89.6682 90.8424 92.8224C90.8642 95.9767 88.3294 98.5519 85.18 98.574C82.0306 98.5962 79.4594 96.057 79.4376 92.9027Z" fill="#FFB085"/>
<path d="M91.029 93.5767C90.9285 96.7294 88.2952 99.204 85.1474 99.1035C81.9996 99.003 79.5298 96.3657 79.6299 93.2131C79.7304 90.0604 82.3636 87.5858 85.511 87.6863C88.6589 87.7868 91.1299 90.4241 91.029 93.5767Z" fill="#FFB085"/>
<path d="M79.8206 94.6276C78.5497 81.8055 79.1232 69.3543 79.1232 69.3543L83.9143 69.2288L90.8875 93.2337" fill="#FFB085"/>
<path d="M70.2156 65.4986C70.4831 65.4022 70.6769 65.5079 70.9363 65.4676L72.183 67.4273C71.9081 67.2202 71.5078 67.1956 71.1837 67.1311C70.8605 67.0669 70.4904 66.9543 70.1845 66.8328C69.8851 66.7138 69.6296 66.4502 69.6231 66.0999C69.6167 65.7388 69.9198 65.6052 70.2156 65.4986Z" fill="#F79067"/>
<path d="M79.4775 69.1598C79.3161 69.1041 79.5175 69.8846 79.3444 69.9036C79.0473 69.9363 79.3863 70.2179 79.0962 70.1562C78.5715 70.0448 76.9395 68.9491 76.4633 68.6933C76.1175 68.5072 75.6852 68.4176 75.3253 68.2715C74.9899 68.1355 74.3878 68.0512 74.2683 67.6537C73.9128 66.4696 76.1606 66.328 76.8899 66.4361C77.917 66.5883 78.9553 67.2796 79.5373 68.1327C79.7447 68.4366 80.1337 69.1077 79.4905 69.186C79.463 69.1893 79.4348 69.1985 79.4061 69.2018C79.4364 69.1804 79.4699 69.1618 79.5038 69.1457L79.4775 69.1598Z" fill="#F79067"/>
<path d="M84.0228 69.0952C83.2601 67.9975 82.8008 66.9035 79.9617 63.708C78.7305 62.3222 78.7212 61.3581 77.9334 61.08C77.1457 60.8023 77.1642 60.9601 76.6356 60.5416C76.1069 60.1231 74.7545 58.3713 74.2259 57.9528C73.6972 57.5343 70.8464 55.5544 70.1947 55.4043C69.5433 55.2541 69.2858 55.8304 69.7152 56.437C70.1446 57.0435 71.731 58.2098 72.66 59.0541C73.1229 59.475 74.4737 61.3786 74.4737 61.3786C74.4737 61.3786 72.0979 61.5425 71.7794 61.8831C71.461 62.2237 70.8428 65.0725 70.8428 65.0725C70.8904 66.0882 71.8299 67.0786 71.8299 67.0786C71.8299 67.0786 71.869 67.4604 72.3896 67.8325C72.9825 68.2566 73.2961 68.2982 73.2961 68.2982C73.2961 68.2982 73.8203 68.5847 74.1803 68.6921C74.5398 68.799 75.2614 68.9326 75.4378 68.6307C75.6105 68.3365 74.4418 67.6597 74.4418 67.6597C74.3715 67.5423 74.6952 66.9515 74.6952 66.9515C75.1246 66.9704 76.2574 67.1113 76.2574 67.1113C76.7227 67.0148 77.316 67.9144 77.7889 68.6989C78.4597 69.8128 79.0505 70.3152 79.77 70.5291" fill="#FFB085"/>
<path d="M76.8599 62.4376C76.663 62.6624 76.4959 62.7867 76.1565 62.9033C75.8171 63.0199 72.5801 63.6681 72.4336 64.0163C72.2871 64.3646 71.8876 67.1847 71.8876 67.1847C71.8876 67.1847 71.1349 66.6783 70.8698 66.3594C70.5328 65.9543 70.8435 65.0745 70.8435 65.0745C70.8435 65.0745 70.9565 65.8574 71.3157 65.8828C71.5074 65.8961 71.8654 64.9797 71.9751 64.3154C72.0845 63.6511 72.0712 63.2556 72.3065 63.1951C72.5421 63.1345 75.7049 62.8125 76.1298 62.6995C76.5548 62.5865 76.8599 62.4376 76.8599 62.4376Z" fill="#F79067"/>
<path d="M77.1961 63.8658C77.1267 63.9538 76.8406 64.4788 76.4576 64.6697C76.075 64.8606 73.9059 65.4999 73.6887 65.7182C73.472 65.9365 73.2573 67.397 73.2573 67.397C73.2392 67.8272 73.2949 68.3006 73.2949 68.3006C73.2949 68.3006 72.6972 68.188 72.6104 67.9665C72.5236 67.7445 72.7012 67.7324 72.9099 65.1165C72.9397 64.7412 75.4342 64.4522 76.0032 64.2948C76.5718 64.1374 77.1961 63.8658 77.1961 63.8658Z" fill="#F79067"/>
<path d="M84.1652 70.6263C84.5276 69.4015 83.8294 68.1129 82.605 67.7489C81.381 67.3845 80.0949 68.0827 79.7324 69.3075C79.37 70.5327 80.0682 71.8209 81.2922 72.1853C82.5167 72.5493 83.8028 71.8516 84.1652 70.6263Z" fill="#FFB085"/>
<path d="M48.7076 92.0339C49.2956 88.9365 47.2637 85.9457 44.1687 85.3541C41.0742 84.7624 38.0882 86.7936 37.4998 89.8913C36.9115 92.9887 38.9438 95.9795 42.0383 96.5712C45.1332 97.1628 48.1192 95.1316 48.7076 92.0339Z" fill="#FFB085"/>
<path d="M38.4846 87.7371C36.437 90.1315 36.7178 93.7365 39.1117 95.7882C41.5061 97.84 45.1067 97.5619 47.1544 95.1672C49.2021 92.7724 48.9208 89.1682 46.5268 87.1164C44.1325 85.0643 40.5323 85.3424 38.4846 87.7371Z" fill="#FFB085"/>
<path d="M46.0622 96.0772C56.4464 86.5188 61.5805 77.0329 61.5805 77.0329L58.1414 73.6833L38.9316 87.4433" fill="#FFB085"/>
<path d="M64.6128 74.5022L69.0169 74.2467C70.0327 74.1878 70.8084 73.3161 70.7498 72.2991L69.979 58.8987C69.9205 57.8821 69.05 57.1057 68.0347 57.1646L63.6305 57.4201C62.6148 57.479 61.8391 58.3507 61.8976 59.3677L62.668 72.7681C62.7266 73.7846 63.5975 74.5611 64.6128 74.5022Z" fill="#200200"/>
<path d="M62.5486 65.4441C62.0958 64.5272 61.2891 64.2766 60.8218 64.4498C60.4505 64.587 60.9239 65.0043 61.0171 66.1185C61.1103 67.2332 60.8771 69.2595 60.8771 69.2595L62.8784 68.3002C62.8784 68.3002 63.0878 66.5362 62.5486 65.4441Z" fill="#F79067"/>
<path d="M56.1035 76.5894C56.679 74.6951 58.9361 72.1563 59.642 70.6284C60.3478 69.1005 62.0549 66.7388 62.5973 66.4127C63.1397 66.0871 63.5497 65.2714 64.2648 64.6754C64.9799 64.0801 65.1684 63.3117 66.5062 63.2439C67.844 63.1761 68.9082 62.9974 69.809 63.1382C70.7106 63.279 72.0593 63.4344 72.115 63.8045C72.1711 64.175 71.6759 64.8707 69.4914 64.589C67.5724 64.342 67.1451 64.9889 66.5655 65.3166C65.986 65.6443 65.2076 66.4672 65.2076 66.4672C65.2076 66.4672 67.9461 65.3586 68.4385 65.5204C68.9308 65.6819 70.2114 68.1908 70.2303 68.5629C70.2489 68.935 69.2246 69.9116 69.2246 69.9116C69.2246 69.9116 69.2868 70.5505 69.0955 71.1942C68.9046 71.8383 68.4869 72.0832 68.4869 72.0832C68.4869 72.0832 68.5152 72.9953 67.8206 73.6277C67.6217 73.8081 67.3404 73.708 67.1935 73.7524C67.0466 73.7972 65.7092 74.2379 65.7092 74.2379C65.7092 74.2379 64.199 75.7831 62.908 77.3574C61.5666 78.9931 60.7195 78.7429 60.7195 78.7429" fill="#FFB085"/>
<path d="M67.0996 72.9932C66.8474 72.9041 65.8296 73.6252 65.4934 73.2798C65.424 73.1575 65.0979 72.6785 65.196 72.5489C65.196 72.5489 65.9301 72.3249 66.3582 72.3221C66.8114 72.3189 67.2844 72.2196 67.6347 72.3855C68.0484 72.5913 68.2304 73.2531 67.8736 73.5695C67.7271 73.6999 67.6666 73.8432 67.1016 74.1495C66.6847 74.3759 65.8958 74.641 65.562 74.6378C65.3154 74.6358 65.5188 74.1551 65.7206 73.8311C65.8054 73.6942 66.8445 73.1135 67.0996 72.9932Z" fill="#F79067"/>
<path d="M65.1353 70.9661C64.9973 70.8402 66.6116 70.3313 66.7883 70.2849C67.2347 70.1683 67.842 69.9653 68.3392 69.9931C68.8493 70.021 69.2412 70.494 69.1379 71.021C69.0604 71.4153 68.8505 71.8471 68.4865 72.0836C68.5765 71.4327 68.472 71.0836 67.7819 70.9476C67.0631 70.8055 65.1353 70.9661 65.1353 70.9661Z" fill="#F79067"/>
<path d="M66.6448 67.4414C67.1117 67.1189 67.3809 67.083 67.8975 66.8437C68.1376 66.7327 68.3406 66.5842 68.5577 66.74C68.7377 66.8691 68.9459 67.2945 69.0585 67.4983C69.4205 68.1561 69.9625 68.7247 69.9903 68.8753C70.0198 69.0335 69.722 69.5771 69.3547 69.7502C69.4161 69.4249 69.2797 68.9826 69.0876 68.7873C68.8684 68.5641 68.546 68.5137 68.2498 68.458C67.688 68.3526 67.0362 68.4334 66.4483 68.4842C65.8437 68.5371 64.6875 68.8587 64.6875 68.8587C65.0515 68.3058 66.3135 67.6702 66.6448 67.4414Z" fill="#F79067"/>
<path d="M65.5258 72.7717C65.5028 72.7612 65.4806 72.7543 65.46 72.7495C65.4576 72.7467 65.4555 72.743 65.4531 72.7398L65.5258 72.7717Z" fill="#E6A679"/>
<path d="M61.3142 78.3219C61.5685 78.152 64.3692 75.7242 65.0916 73.1579C65.1437 72.9739 65.1969 72.5489 65.1969 72.5489C66.4322 73.7729 65.2244 75.1233 64.7425 75.7423C64.0407 76.6451 62.8579 77.8445 61.8687 78.4539C61.556 78.6468 60.7371 79.0132 60.4199 78.732C60.7186 78.7065 61.0911 78.4709 61.3142 78.3219Z" fill="#F79067"/>
<path d="M61.5505 77.2C61.4625 75.6697 60.1521 74.5014 58.6242 74.5902C57.0959 74.6789 55.9284 75.9909 56.0164 77.5209C56.1044 79.0512 57.4147 80.2195 58.943 80.1311C60.4709 80.0423 61.6385 78.7299 61.5505 77.2Z" fill="#FFB085"/>
<path d="M61.5466 22.2392C61.5466 22.2392 58.9804 21.2219 56.8943 24.4939C53.7941 29.3569 59.576 37.0852 59.576 37.0852L61.5466 22.2392Z" fill="#200200"/>
<path d="M71.9434 22.2392C71.9434 22.2392 74.5092 21.2219 76.5953 24.4939C79.6955 29.3569 73.914 37.0852 73.914 37.0852L71.9434 22.2392Z" fill="#200200"/>
<path d="M76.2978 30.5221C76.2978 35.8672 71.9716 40.2003 66.6352 40.2003C61.2989 40.2003 56.9727 35.8672 56.9727 30.5221C56.9727 25.177 61.2989 20.8439 66.6352 20.8439C71.9716 20.8439 76.2978 25.177 76.2978 30.5221Z" fill="#200200"/>
<path d="M75.0623 30.8574C74.6474 36.6703 75.1959 41.1685 70.3365 44.1303C68.2578 45.5496 65.4606 45.6965 63.2717 44.4273C57.9931 42.1157 58.6674 33.5907 58.3995 31.8098C56.472 18.1483 76.3287 18.8219 75.0623 30.8574Z" fill="#FFB085"/>
<path d="M66.0638 34.3466L65.9746 36.8491L67.0186 36.8532" stroke="#1F0000" stroke-width="0.448361" stroke-linecap="round" stroke-linejoin="round"/>
<path d="M74.9868 25.6537C74.9868 25.6537 68.4966 20.6957 59.8345 24.0611C59.8345 24.0611 55.7335 19.0077 62.0921 17.1457C68.4506 15.2838 74.4052 20.8143 74.9868 25.6537Z" fill="#200200"/>
<path d="M74.9161 34.9649C74.9161 34.9649 73.8188 37.3726 71.4458 36.8972C70.1839 36.6445 69.4821 36.2866 68.8053 36.0295C66.6587 35.0621 64.6074 35.9867 64.6074 35.9867C63.8947 36.2458 63.186 36.6304 61.8539 36.8972C59.4809 37.3726 58.6201 35.3802 58.6201 35.3802C58.6201 35.3802 58.1047 38.0158 59.5564 41.2415C60.4692 43.2695 61.7925 44.2828 63.0593 44.7699C63.1009 44.7869 63.1421 44.8018 63.1836 44.8175C63.1864 44.8187 63.1893 44.82 63.1921 44.8208C66.6527 46.1437 69.698 44.9975 69.698 44.9975V44.9967C71.1617 44.6379 72.8349 43.6601 73.9233 41.2415C75.3749 38.0158 74.9161 34.9649 74.9161 34.9649Z" fill="#005880"/>
<path d="M58.862 36.1494C58.862 36.1494 60.6025 37.7128 60.3624 38.4343C60.1227 39.1559 59.5573 41.2415 59.5573 41.2415C59.5573 41.2415 58.502 38.1337 58.862 36.1494Z" fill="#FFB085"/>
<path d="M74.4767 36.1494C74.4767 36.1494 72.7357 37.7128 72.9759 38.4343C73.216 39.1559 73.7814 41.2415 73.7814 41.2415C73.7814 41.2415 74.8367 38.1337 74.4767 36.1494Z" fill="#FFB085"/>
<path d="M64.9627 33.8833C64.9627 32.7667 64.0587 31.8607 62.9433 31.8607C61.8282 31.8607 60.9238 32.7667 60.9238 33.8833C60.9238 35.0008 61.8234 35.1715 62.9388 35.1715C64.0539 35.1715 64.9627 35.0008 64.9627 33.8833Z" fill="white"/>
<path d="M64.9627 33.8833C64.9627 32.7667 64.0587 31.8607 62.9433 31.8607C61.8282 31.8607 60.9238 32.7667 60.9238 33.8833C60.9238 35.0008 61.8234 35.1715 62.9388 35.1715C64.0539 35.1715 64.9627 35.0008 64.9627 33.8833Z" stroke="#291616" stroke-width="0.228822" stroke-miterlimit="10"/>
<path d="M64.2297 33.8882C64.2273 34.5997 63.6494 35.1739 62.9395 35.1715C62.2293 35.1691 61.6554 34.5904 61.6582 33.8793C61.6606 33.1678 62.2381 32.5935 62.9484 32.596C63.6587 32.5984 64.2326 33.1771 64.2297 33.8882Z" fill="#1F0000"/>
<path d="M62.8423 33.4156C62.8415 33.6658 62.6381 33.8684 62.3879 33.8672C62.1385 33.8664 61.9367 33.6626 61.9375 33.4124C61.9387 33.1622 62.1417 32.9604 62.3915 32.9612C62.6413 32.962 62.8431 33.1654 62.8423 33.4156Z" fill="white"/>
<path d="M71.9866 33.8833C71.9866 32.7667 71.0822 31.8607 69.9671 31.8607C68.8517 31.8607 67.9473 32.7667 67.9473 33.8833C67.9473 35.0008 68.8468 35.1715 69.9623 35.1715C71.0777 35.1715 71.9866 35.0008 71.9866 33.8833Z" fill="white"/>
<path d="M71.9866 33.8833C71.9866 32.7667 71.0822 31.8607 69.9671 31.8607C68.8517 31.8607 67.9473 32.7667 67.9473 33.8833C67.9473 35.0008 68.8468 35.1715 69.9623 35.1715C71.0777 35.1715 71.9866 35.0008 71.9866 33.8833Z" stroke="#291616" stroke-width="0.228822" stroke-miterlimit="10"/>
<path d="M71.2532 33.8882C71.2507 34.5997 70.6732 35.1739 69.963 35.1715C69.2531 35.1691 68.6792 34.5904 68.6816 33.8793C68.6841 33.1678 69.262 32.5935 69.9723 32.596C70.6821 32.5984 71.256 33.1771 71.2532 33.8882Z" fill="#1F0000"/>
<path d="M69.8638 33.4907C69.863 33.7409 69.6596 33.9431 69.4098 33.9423C69.16 33.9414 68.9582 33.7381 68.959 33.4878C68.9602 33.2376 69.1632 33.035 69.413 33.0358C69.6628 33.0367 69.865 33.2405 69.8638 33.4907Z" fill="white"/>
<mask id="mask3_1754_2827" style="mask-type:alpha" maskUnits="userSpaceOnUse" x="67" y="27" width="7" height="5">
<path d="M73.062 27.8542V31.3299H67.2793V27.8542H73.062Z" fill="#FFB085"/>
</mask>
<g mask="url(#mask3_1754_2827)">
<path d="M73.062 27.8542V31.3299H67.2793V27.8542H73.062Z" fill="#FFB085"/>
</g>
<mask id="mask4_1754_2827" style="mask-type:alpha" maskUnits="userSpaceOnUse" x="59" y="27" width="7" height="5">
<path d="M65.5952 27.8542V31.3299H59.8125V27.8542H65.5952Z" fill="#FFB085"/>
</mask>
<g mask="url(#mask4_1754_2827)">
<path d="M65.5952 27.8542V31.3299H59.8125V27.8542H65.5952Z" fill="#FFB085"/>
</g>
<path d="M68.2332 28.8991C68.2332 28.8991 68.0189 29.6851 69.2389 29.702C70.1651 29.7148 71.2939 29.9563 71.8274 30.0701C72.1305 30.1347 72.4565 30.0169 72.6002 29.7928C72.7156 29.6118 72.6906 29.3975 72.5284 29.2479C72.1991 28.945 70.9811 28.2491 69.854 28.2215C68.4072 28.1858 68.2332 28.8991 68.2332 28.8991Z" fill="#1F0000"/>
<path d="M64.5069 28.918C64.5069 28.918 64.7212 29.7042 63.5012 29.7212C62.5746 29.7341 61.4458 29.9754 60.9123 30.0892C60.6092 30.1539 60.2836 30.0358 60.1399 29.8116C60.0241 29.6307 60.0495 29.4166 60.2117 29.2673C60.5406 28.9641 61.7586 28.268 62.8854 28.2404C64.3325 28.2049 64.5069 28.918 64.5069 28.918Z" fill="#1F0000"/>
<path d="M5.13696 100.414H15.7014C17.9787 100.414 19.8422 98.547 19.8422 96.2661V84.6547C19.8422 82.3737 17.9787 80.5072 15.7014 80.5072H5.13696C2.85968 80.5072 0.996094 82.3737 0.996094 84.6547V96.2661C0.996094 98.547 2.85968 100.414 5.13696 100.414Z" fill="#C5EDFA"/>
<path d="M7.2793 83.5509H10.3268C10.6246 84.2673 11.1174 84.8649 11.5278 85.5123C12.1564 86.5038 12.77 87.4974 13.0906 88.6447C13.6006 90.4701 12.9549 91.7675 11.184 92.4403C11.0992 92.4726 10.9645 92.4572 10.9478 92.6622C12.3532 92.7902 13.3224 93.5452 13.8981 94.8233C13.9301 94.9218 13.9622 95.0207 13.9942 95.1191C14.0671 95.7471 14.1397 96.375 14.2125 97.003C12.6447 96.9985 11.0766 96.9941 9.50879 96.9897C9.53926 96.4069 9.15882 96.0554 8.7584 95.7499C8.2897 95.3928 7.98263 94.9634 7.91225 94.3738C7.96842 93.4339 8.52171 92.904 9.56396 92.617C8.58996 92.3523 7.83626 92.0718 7.69372 91.1105C7.69287 90.4588 8.0087 89.9761 8.51066 89.6004C9.24987 89.0475 9.44665 88.3259 9.18877 87.4607C9.11871 87.2262 9.03138 86.9962 8.94433 86.7674C8.51223 85.6317 7.84062 84.6196 7.2793 83.5509Z" fill="#E3BF5C"/>
<path d="M9.51034 96.9897C8.28548 96.9985 7.06062 97.0183 5.83592 97.0115C5.29333 97.0086 5.13594 96.7742 5.27392 96.2221C5.54616 95.1333 6.0593 94.1227 6.31423 93.0266C6.73321 91.2247 6.65548 89.5043 5.48506 87.974C5.11386 87.4889 4.67563 87.0551 4.27122 86.5954C3.64004 85.8771 3.49314 85.0114 3.52571 84.0953C3.53342 83.8754 3.65756 83.7011 3.81301 83.5509H7.28085C7.84217 84.62 8.51378 85.6313 8.94572 86.767C9.03289 86.9962 9.12026 87.2262 9.19012 87.4607C9.4482 88.3255 9.25142 89.0471 8.51204 89.6004C8.01025 89.9761 7.69422 90.4588 7.69527 91.1105C7.43792 91.3934 7.47504 91.7163 7.57186 92.0452C7.68199 92.4193 7.71646 92.7736 7.55959 93.1631C7.37278 93.6268 7.52981 94.0477 7.9138 94.3742C7.98398 94.9638 8.29125 95.3928 8.75979 95.7499C9.16037 96.0554 9.54081 96.4069 9.51034 96.9897Z" fill="#FCD6AC"/>
<path d="M13.5174 83.8419C13.9126 84.3674 14.0448 85.0151 14.3175 85.5978C14.6381 86.2827 14.9646 86.9695 15.4471 87.5414C16.4434 88.7218 16.4865 90.06 16.0398 91.3983C15.4741 93.092 15.0893 94.7927 15.1536 96.5829C15.1754 97.1939 14.7279 96.9792 14.417 97.0058C14.4217 95.0812 14.4266 93.1566 14.4313 91.232C14.7731 91.236 15.0299 91.1214 15.1844 90.7844C15.6154 89.8433 15.3661 88.7775 14.5513 88.1488C14.4098 88.0394 14.2641 87.9224 14.0789 88.0103C13.8874 88.1011 13.8844 88.2993 13.9124 88.4692C14.0099 89.06 13.9766 89.648 13.9136 90.2384C13.8973 90.3922 13.8961 90.5544 13.9887 90.6953C13.9843 92.0629 13.9801 93.4306 13.9758 94.7983C13.9486 94.8015 13.9232 94.81 13.8994 94.8233C13.3238 93.5452 12.3545 92.7898 10.9491 92.6622C10.9658 92.4572 11.1006 92.4722 11.1853 92.4403C12.9563 91.7671 13.602 90.4701 13.092 88.6447C12.7714 87.4974 12.1577 86.5038 11.5292 85.5123C11.1188 84.8649 10.626 84.2673 10.3281 83.5509H11.6941C11.8494 83.9198 11.9816 84.3012 12.1644 84.6559C12.6501 85.5982 12.9806 86.6257 13.6883 87.4462C13.7105 87.4692 13.6634 87.5579 13.7543 87.516L13.6939 87.4417C13.6866 87.25 13.6888 87.0571 13.6701 86.8666C13.5717 85.8605 13.4344 84.8569 13.5174 83.8419Z" fill="#FCD6AC"/>
<path d="M13.5186 83.8419C13.4356 84.8569 13.5729 85.8605 13.6713 86.8666C13.69 87.0571 13.6877 87.25 13.6951 87.4417L13.6895 87.4466C12.9818 86.6257 12.6512 85.5982 12.1656 84.6559C11.9828 84.3012 11.8506 83.9198 11.6953 83.5509H13.2716C13.354 83.6478 13.4363 83.7446 13.5186 83.8419Z" fill="#EF9473"/>
<path d="M13.9766 94.7979C13.9809 93.4306 13.9851 92.0629 13.9895 90.6953C14.1371 90.8744 14.2847 91.0528 14.4321 91.2316C14.4274 93.1562 14.4225 95.0812 14.4178 97.0058C14.35 97.0046 14.2824 97.0038 14.2147 97.0026C14.1418 96.3746 14.069 95.7471 13.9963 95.1191L13.9766 94.7979Z" fill="#B19046"/>
<path d="M7.91332 94.3737C7.52936 94.0477 7.3723 93.6267 7.55911 93.1631C7.71597 92.7736 7.68151 92.4193 7.57137 92.0452C7.47456 91.7163 7.43743 91.3934 7.69478 91.1105C7.83732 92.0718 8.59106 92.3523 9.56503 92.6166C8.52258 92.904 7.96949 93.4338 7.91332 94.3737Z" fill="#EF9573"/>
<path d="M13.9767 94.7979L13.9964 95.1191C13.9643 95.0207 13.9324 94.9218 13.9004 94.8233C13.9242 94.81 13.9496 94.8015 13.9767 94.7979Z" fill="#E3BF62"/>
<path d="M14.4321 91.232C14.2847 91.0532 14.1371 90.8744 13.9895 90.6957C13.8969 90.5544 13.8981 90.3922 13.9144 90.2384C13.9775 89.6484 14.0107 89.0604 13.9132 88.4692C13.8852 88.2997 13.8882 88.1011 14.0797 88.0103C14.2649 87.9224 14.4105 88.0394 14.5521 88.1488C15.3669 88.7779 15.6162 89.8433 15.185 90.7844C15.0306 91.1218 14.7739 91.236 14.4321 91.232Z" fill="#E3BF62"/>
<path d="M13.6933 87.4413L13.7535 87.5159C13.6628 87.5579 13.7099 87.4691 13.6875 87.4461L13.6933 87.4413Z" fill="#EF9473"/>
<path d="M22.2979 113.38H33.3931C35.785 113.38 37.7419 111.42 37.7419 109.025V96.8302C37.7419 94.4343 35.785 92.4745 33.3931 92.4745H22.2979C19.9061 92.4745 17.9492 94.4343 17.9492 96.8302V109.025C17.9492 111.42 19.9061 113.38 22.2979 113.38Z" fill="#C5EDFA"/>
<path d="M21.7229 105.571C21.5839 105.632 21.4495 105.707 21.3052 105.751C20.8572 105.886 20.6054 105.72 20.6047 105.254C20.6038 104.644 20.559 104.038 20.4932 103.432C20.4865 103.372 20.4993 103.304 20.4877 103.245C20.4053 102.819 20.3867 102.383 20.3867 101.95V100.714C20.3867 100.196 20.4429 99.6778 20.581 99.1786C20.5816 99.177 20.5821 99.175 20.5826 99.1729C20.7866 98.4623 21.1147 97.8517 21.7746 97.4622C21.7765 97.461 21.7785 97.4598 21.7802 97.459C22.143 97.2508 22.5586 97.1535 22.9767 97.1535H24.1005C24.3369 97.1535 24.5722 97.1862 24.7993 97.2524C25.4142 97.4312 26.0539 97.4864 26.6833 97.5337C28.2533 97.6511 29.8264 97.574 31.3927 97.4114C31.8938 97.3593 32.446 97.2496 32.7417 97.7568C33.0245 98.2423 32.81 98.7605 32.5374 99.2105C32.1153 99.907 31.4583 100.354 30.7668 100.732C29.6261 101.356 28.4018 101.786 27.1699 102.192C27.5533 101.757 27.9672 101.342 28.0873 100.74C28.129 100.53 28.3032 100.561 28.4536 100.548C29.4769 100.458 30.3706 100.106 31.0558 99.2985C31.3088 99.0002 31.5872 98.7218 31.9558 98.5494C32.0831 98.4897 32.2499 98.3759 32.1272 98.1895C32.0163 98.0216 31.8647 98.1019 31.7171 98.1669C31.2125 98.3892 30.9128 98.8473 30.5192 99.1968C30.3366 99.359 30.1913 99.581 29.8653 99.5874C29.891 99.361 30.0435 99.0684 29.7098 99.0289C29.4102 98.9938 29.4481 99.2738 29.4228 99.4704C29.3838 99.7743 29.2386 99.9643 28.9093 99.993C28.4864 100.03 28.0658 100.273 27.7403 99.6939C27.5792 99.4078 27.1564 99.3525 26.7609 99.5059C26.3038 99.683 25.9545 100.013 25.5416 100.248C25.2671 100.11 24.9774 99.997 24.7212 99.8316C23.7724 99.2177 22.8475 99.3771 21.925 99.8828C21.3913 100.176 21.3659 100.491 21.8843 100.828C22.5999 101.292 23.3909 101.558 24.2508 101.464C24.8086 101.402 25.3552 101.25 25.7253 100.761C26.0641 100.478 26.3801 100.167 26.8064 100.005C27.2944 99.8191 27.5701 99.9898 27.5894 100.503C27.5985 100.75 27.574 100.993 27.4022 101.176C27.0188 101.585 26.7143 102.067 26.2572 102.407C25.7374 102.205 25.1957 102.181 24.6454 102.185C23.1278 102.196 22.3143 102.843 21.9236 104.314C21.8128 104.731 21.9068 105.172 21.7229 105.571Z" fill="#B02823"/>
<path d="M21.7227 105.571C21.9065 105.172 21.8125 104.731 21.9233 104.314C22.3141 102.843 23.1275 102.196 24.6451 102.185C25.1954 102.181 25.7371 102.205 26.2568 102.407C26.1216 102.648 25.9866 102.889 25.8516 103.13C25.5736 103.252 25.3451 103.523 24.975 103.34C24.8109 103.259 24.657 103.413 24.538 103.544C23.7019 104.466 23.426 105.558 23.5857 106.77C23.641 107.189 23.8166 107.598 24.2057 107.789C25.0791 108.216 25.9948 108.28 26.743 107.254C27.0439 106.84 27.326 106.404 27.5492 105.946C27.85 105.328 28.4922 105.301 28.9896 105.026C29.0602 104.987 29.2415 105.005 29.2293 105.194C30.0728 105.682 30.0709 106.536 30.1374 107.346C30.1935 108.029 30.1058 108.712 30.0527 109.394C30.0068 109.98 29.6176 110.368 29.1111 110.322C28.6233 110.278 28.2536 109.793 28.3227 109.245C28.374 108.839 28.4654 108.438 28.2695 107.988C27.91 108.614 27.5352 109.17 27.0329 109.642C25.5922 110.995 23.0072 110.176 22.2553 108.524C21.8242 107.576 21.7873 106.576 21.7227 105.571Z" fill="#F9C076"/>
<path d="M29.2297 105.194C29.242 105.004 29.0606 104.987 28.9899 105.026C28.4926 105.301 27.8504 105.328 27.5496 105.946C27.3264 106.404 27.0443 106.84 26.7432 107.254C25.9953 108.28 25.0794 108.216 24.2059 107.789C23.8169 107.598 23.6413 107.189 23.5862 106.77C23.4265 105.558 23.7022 104.466 24.5382 103.544C24.6575 103.413 24.8114 103.259 24.9754 103.34C25.3455 103.523 25.5738 103.252 25.8517 103.13C25.8324 103.455 25.8309 103.782 25.7881 104.104C25.7589 104.323 25.7109 104.584 25.3879 104.304C25.2731 104.204 25.078 104.187 24.9679 104.329C24.8535 104.476 25.0008 104.569 25.0985 104.664C25.2913 104.853 25.2398 105.069 25.1451 105.279C25.0388 105.515 24.86 105.451 24.6688 105.395C24.5461 105.359 24.3824 105.326 24.3129 105.494C24.2562 105.631 24.3504 105.72 24.4612 105.783C24.6988 105.917 24.5955 106.093 24.5314 106.272C24.4757 106.428 24.4658 106.598 24.6468 106.668C24.8161 106.733 24.8681 106.567 24.9469 106.457C25.1944 106.112 25.5913 106.082 25.8081 106.416C25.9053 106.565 25.9891 106.701 26.1525 106.593C26.3232 106.482 26.2675 106.283 26.1882 106.129C26.0454 105.85 25.7542 105.763 25.4691 105.638C25.7974 105.233 26.1745 105.347 26.5455 105.49C26.7528 105.569 27.0321 105.545 26.9246 105.327C26.7294 104.929 27.043 104.926 27.2025 104.786C27.6778 104.369 28.2479 104.339 28.8412 104.356C29.0914 104.364 29.5503 104.553 29.3616 103.95C29.3493 103.911 29.4193 103.834 29.4659 103.79C29.7562 103.517 30.0488 103.452 30.3464 103.786C30.4249 103.874 30.5127 103.968 30.654 103.922C30.7535 103.889 30.7983 103.788 30.7641 103.719C30.4823 103.149 30.9933 103.293 31.2171 103.236C31.6698 103.121 32.1089 102.987 32.461 102.669C32.5656 102.575 32.6897 102.414 32.5547 102.263C32.4225 102.117 32.2709 102.204 32.1506 102.315C31.8757 102.57 31.5439 102.671 31.1826 102.742C30.716 102.835 30.2314 102.836 29.7818 103.022C29.5513 103.118 29.3565 103.468 29.0445 103.131C28.9858 103.068 28.8227 103.146 28.8083 103.259C28.7208 103.948 28.1437 103.866 27.6911 104C27.4266 104.078 27.2585 104.045 27.1883 103.76C27.1506 103.608 27.0705 103.503 26.8997 103.555C26.7217 103.609 26.7385 103.77 26.7721 103.897C26.8225 104.088 26.8393 104.268 26.7497 104.445C26.6597 104.624 26.4879 104.649 26.3137 104.651C26.2463 104.653 26.1593 104.624 26.1805 104.538C26.3342 103.914 26.0917 103.167 26.7374 102.692C27.0908 102.843 27.4449 103.132 27.7939 102.682C27.8128 102.658 27.8585 102.632 27.8828 102.638C28.3751 102.774 28.7982 102.537 29.2423 102.398C29.7425 102.241 30.2874 102.249 30.7613 101.991C31.0527 101.833 31.3932 101.985 31.7122 101.769C31.9519 101.606 32.2719 101.547 32.5335 101.346C32.7681 101.166 33.0954 101.195 33.3306 101.432C33.5564 101.659 33.612 101.932 33.4579 102.229C33.4426 102.259 33.4224 102.288 33.3988 102.312C33.1193 102.596 33.4774 103.049 33.1038 103.332C32.827 103.542 32.3469 103.461 32.2502 103.937C32.2348 104.013 32.071 104.138 32.0277 104.119C31.3407 103.822 31.0772 104.771 30.4717 104.643C30.262 104.598 30.1491 104.584 30.0199 104.797C29.8523 105.074 29.5424 105.158 29.2297 105.194Z" fill="#ED9372"/>
<path d="M26.7364 102.692C26.0908 103.168 26.3331 103.914 26.1794 104.538C26.1582 104.624 26.2453 104.653 26.3128 104.651C26.487 104.649 26.6587 104.623 26.7487 104.445C26.8383 104.268 26.8216 104.088 26.7711 103.898C26.7373 103.77 26.7205 103.609 26.8986 103.555C27.0691 103.503 27.1497 103.608 27.1873 103.76C27.2575 104.045 27.4256 104.078 27.6902 104C28.1427 103.866 28.7196 103.948 28.8071 103.259C28.8215 103.146 28.9847 103.068 29.0433 103.131C29.3553 103.468 29.5504 103.118 29.7808 103.022C30.2304 102.836 30.715 102.835 31.1816 102.742C31.543 102.671 31.8748 102.57 32.1495 102.315C32.2699 102.204 32.4216 102.117 32.5537 102.263C32.6887 102.414 32.5644 102.575 32.4597 102.669C32.1078 102.987 31.6687 103.121 31.2161 103.236C30.9924 103.293 30.4813 103.149 30.7632 103.719C30.7973 103.788 30.7525 103.89 30.653 103.922C30.5116 103.968 30.4239 103.874 30.3454 103.786C30.0478 103.452 29.7552 103.517 29.465 103.79C29.4184 103.834 29.3483 103.911 29.3606 103.95C29.5493 104.553 29.0904 104.364 28.8402 104.356C28.2469 104.339 27.6767 104.369 27.2013 104.786C27.0418 104.926 26.7283 104.929 26.9235 105.327C27.031 105.546 26.7517 105.569 26.5446 105.49C26.1736 105.347 25.7965 105.233 25.4682 105.638C25.7532 105.763 26.0444 105.85 26.1872 106.129C26.2664 106.284 26.3222 106.482 26.1515 106.594C25.9882 106.701 25.9043 106.565 25.807 106.416C25.5904 106.083 25.1933 106.112 24.9455 106.457C24.8669 106.567 24.8151 106.733 24.6458 106.668C24.4646 106.598 24.4747 106.428 24.5304 106.272C24.5945 106.094 24.6978 105.918 24.4602 105.783C24.3494 105.721 24.2552 105.631 24.3119 105.494C24.3814 105.326 24.545 105.359 24.6679 105.395C24.8591 105.451 25.0376 105.515 25.1441 105.279C25.2388 105.069 25.2903 104.853 25.0975 104.664C24.9998 104.569 24.8524 104.476 24.9667 104.329C25.0769 104.187 25.2721 104.205 25.3869 104.304C25.71 104.584 25.7578 104.323 25.787 104.104C25.8297 103.782 25.8315 103.455 25.8507 103.13C25.9859 102.889 26.1211 102.648 26.2562 102.407C26.7135 102.067 27.0177 101.585 27.4012 101.176C27.573 100.993 27.5975 100.75 27.5884 100.503C27.5692 99.9894 27.2934 99.8191 26.8055 100.005C26.3791 100.167 26.0629 100.478 25.7243 100.761C25.2507 100.738 25.4146 100.486 25.5406 100.248C25.9535 100.013 26.3028 99.6827 26.7601 99.5055C27.1556 99.3525 27.5782 99.4074 27.7393 99.6939C28.0646 100.273 28.4855 100.029 28.9084 99.993C29.2377 99.9643 29.383 99.7747 29.4219 99.4704C29.4471 99.2738 29.4094 98.9938 29.7088 99.0289C30.0427 99.0684 29.8902 99.361 29.8643 99.5874C30.1905 99.581 30.3358 99.3586 30.5184 99.1963C30.912 98.8469 31.2117 98.3888 31.7163 98.1664C31.8639 98.1015 32.0154 98.0216 32.1262 98.1895C32.2487 98.3759 32.0822 98.4897 31.955 98.5494C31.5862 98.7218 31.308 99.0002 31.055 99.2985C30.3696 100.106 29.476 100.458 28.4528 100.548C28.3022 100.561 28.1282 100.53 28.0863 100.74C27.9662 101.342 27.5525 101.757 27.1691 102.191C27.0033 102.34 26.8174 102.47 26.7364 102.692Z" fill="#836E5E"/>
<path d="M25.5397 100.248C25.4136 100.486 25.2499 100.738 25.7235 100.761C25.3532 101.25 24.8066 101.402 24.249 101.464C23.389 101.558 22.598 101.292 21.8824 100.828C21.364 100.491 21.3894 100.176 21.9232 99.8832C22.8457 99.3772 23.7705 99.2177 24.7193 99.8316C24.9756 99.997 25.2653 100.11 25.5397 100.248Z" fill="#EE9172"/>
<path d="M130.475 100.083H119.38C116.989 100.083 115.031 98.1225 115.031 95.7269V83.5324C115.031 81.1364 116.989 79.1763 119.38 79.1763H130.475C132.867 79.1763 134.824 81.1364 134.824 83.5324V95.7269C134.824 98.1225 132.867 100.083 130.475 100.083Z" fill="#C5EDFA"/>
<path d="M118.86 95.5913C118.72 95.5961 118.578 95.6087 118.437 95.6187C117.733 95.6696 117.133 95.1119 117.133 94.4044C117.133 94.287 117.15 94.1703 117.183 94.0573C117.423 93.2345 117.451 92.3725 117.629 91.5375C117.932 90.1133 118.261 88.7028 119.091 87.4691C119.392 87.0212 119.756 86.635 120.19 86.3186C120.725 85.9283 121.303 85.8262 121.923 86.1132C120.873 86.7431 120.258 87.7032 119.812 88.817C119.091 90.6214 118.896 92.5323 118.605 94.427C118.538 94.8604 118.469 95.2701 118.86 95.5913Z" fill="#A93C38"/>
<path d="M126.467 88.6362C126.547 86.9066 126.766 86.5684 128.102 86.1132C129.154 86.7419 129.768 87.7028 130.213 88.8166C130.935 90.6214 131.131 92.5323 131.421 94.4274C131.488 94.8612 131.557 95.2701 131.166 95.5913C130.206 95.5925 129.245 95.6095 128.285 95.5913C126.987 95.5671 126.092 94.6502 126.126 93.3535C126.149 92.4544 126.236 91.5573 126.295 90.6593C126.907 90.9047 127.563 91.0843 127.613 91.9386C127.63 92.2336 127.917 92.4152 128.151 92.5779C128.291 92.6747 128.486 92.8236 128.631 92.5964C128.759 92.3967 128.572 92.3123 128.43 92.2296C128.201 92.0956 128.058 91.9116 128.086 91.6295C128.355 91.7042 128.509 92.2502 128.892 91.845C129.398 91.3091 129.275 89.7767 128.7 89.2795C128.669 89.0854 129 88.8497 128.672 88.702C128.394 88.5761 128.371 88.8667 128.266 89.0233C127.927 89.5261 127.547 89.5967 127.048 89.246C126.816 89.0834 126.613 88.8852 126.467 88.6362Z" fill="#CE4843"/>
<path d="M118.86 95.5913C118.468 95.2701 118.538 94.8604 118.605 94.427C118.895 92.5323 119.09 90.6214 119.812 88.817C120.258 87.7032 120.873 86.7431 121.923 86.1132C123.262 86.5708 123.503 86.9288 123.547 88.5309C123.382 89.0838 122.944 89.3639 122.442 89.4761C122.184 89.5338 121.904 89.328 121.75 89.0519C121.656 88.8824 121.593 88.6084 121.328 88.7137C121.083 88.8106 121.238 89.0753 121.205 89.2634C120.731 89.9333 120.739 90.6593 120.938 91.4152C121.065 91.8999 121.308 92.1247 121.812 91.8769C121.812 92.0815 121.649 92.1461 121.507 92.2215C121.331 92.3152 121.262 92.4665 121.361 92.6255C121.482 92.8184 121.653 92.6925 121.792 92.6207C122.098 92.4633 122.39 92.2062 122.384 91.8862C122.367 90.912 123.171 90.9281 123.744 90.6553C123.798 91.554 123.88 92.452 123.901 93.3515C123.93 94.6522 123.041 95.5671 121.741 95.5917C120.781 95.6095 119.82 95.5925 118.86 95.5913Z" fill="#CE4843"/>
<path d="M123.743 90.6549C123.17 90.9281 122.366 90.9115 122.383 91.8858C122.388 92.2062 122.097 92.4633 121.791 92.6202C121.652 92.6925 121.481 92.818 121.36 92.6255C121.261 92.4665 121.33 92.3147 121.507 92.2215C121.648 92.1461 121.811 92.0811 121.811 91.8769L121.81 91.8781C121.914 91.8248 121.932 91.7316 121.928 91.6275C121.936 91.4846 121.96 91.3385 121.795 91.255C121.284 90.9963 121.32 90.4612 121.481 90.1306C121.71 89.6581 121.506 89.4833 121.204 89.2634C121.237 89.0753 121.082 88.8102 121.327 88.7133C121.592 88.6084 121.654 88.8824 121.749 89.0519C121.903 89.328 122.183 89.5334 122.441 89.4761C122.943 89.3639 123.381 89.0834 123.546 88.5309C124.108 88.2512 124.27 87.7492 124.273 87.1745C124.28 85.7604 124.273 84.3463 124.277 82.9327C124.28 82.2966 124.514 82.0028 124.996 82.0012C125.476 82 125.722 82.297 125.725 82.9322C125.734 84.3463 125.737 85.7604 125.724 87.1741C125.719 87.8013 125.977 88.2722 126.466 88.6362C126.611 88.8852 126.815 89.0834 127.047 89.2456C127.547 89.5967 127.926 89.5257 128.265 89.0233C128.37 88.8667 128.393 88.5765 128.671 88.702C128.999 88.8501 128.668 89.0854 128.7 89.2799C128.461 89.5362 128.206 89.7 128.523 90.1678C128.727 90.4696 128.76 91.1049 128.095 91.2687C127.948 91.3426 127.974 91.4297 128.076 91.5221C128.076 91.5581 128.08 91.594 128.086 91.6291C128.057 91.9116 128.2 92.0952 128.429 92.2292C128.572 92.3123 128.758 92.3967 128.63 92.5968C128.485 92.8236 128.291 92.6747 128.151 92.5775C127.917 92.4152 127.629 92.2336 127.612 91.9382C127.562 91.0847 126.907 90.9043 126.294 90.6589C126.09 90.2408 125.688 90.0185 125.353 89.7364C125.16 89.5733 124.858 89.5701 124.666 89.7251C124.327 89.9975 123.911 90.2081 123.743 90.6549Z" fill="#B02823"/>
<path d="M131.165 95.5913C131.556 95.2697 131.487 94.8608 131.421 94.427C131.131 92.5323 130.935 90.6214 130.213 88.8166C129.767 87.7028 129.154 86.7419 128.102 86.1132C128.799 85.7968 129.41 85.9687 129.981 86.4295C131.232 87.4393 131.744 88.8614 132.13 90.3381C132.498 91.7441 132.678 93.1885 132.876 94.626C132.98 95.3794 132.77 95.6046 132.023 95.6199C131.738 95.6256 131.451 95.6018 131.165 95.5913Z" fill="#A93C38"/>
<path d="M128.085 91.6291C128.08 91.5936 128.076 91.5585 128.076 91.5222C128.082 91.4378 128.089 91.3531 128.095 91.2687C128.76 91.1045 128.726 90.4697 128.523 90.1682C128.206 89.7005 128.461 89.5362 128.7 89.2799C129.274 89.7767 129.397 91.3087 128.891 91.8446C128.508 92.2498 128.354 91.7042 128.085 91.6291Z" fill="#AA3B37"/>
<path d="M121.204 89.2634C121.506 89.4833 121.71 89.6581 121.48 90.1303C121.32 90.4612 121.284 90.9963 121.794 91.255C121.959 91.3385 121.936 91.4846 121.928 91.6279C121.833 91.6852 121.81 91.776 121.81 91.8781L121.81 91.8769C121.308 92.1247 121.064 91.8999 120.937 91.4152C120.739 90.6593 120.73 89.9329 121.204 89.2634Z" fill="#AA3C38"/>
<path d="M128.096 91.2691C128.089 91.3535 128.083 91.4378 128.077 91.5222C127.974 91.4297 127.948 91.343 128.096 91.2691Z" fill="#CE4843"/>
<path d="M121.811 91.8781C121.81 91.7756 121.834 91.6852 121.928 91.6279C121.932 91.7316 121.915 91.8248 121.811 91.8781Z" fill="#CE4843"/>
<path d="M110.431 114.284H97.9352C95.2414 114.284 93.0371 112.077 93.0371 109.379V95.645C93.0371 92.9467 95.2414 90.7392 97.9352 90.7392H110.431C113.124 90.7392 115.328 92.9467 115.328 95.645V109.379C115.328 112.077 113.124 114.284 110.431 114.284Z" fill="#C5EDFA"/>
<path d="M96.4766 101.744C96.4766 101.203 96.552 100.664 96.6969 100.142C96.8834 99.4712 97.0129 98.7811 97.3701 98.164C97.7369 97.5304 98.1316 96.9287 98.7729 96.5417C99.6748 95.9973 100.652 96.0627 101.469 96.7084C102.302 97.3678 102.645 98.4356 102.317 99.4066C102.182 99.8061 102.011 100.193 101.857 100.586C101.731 100.335 101.62 100.076 101.477 99.8356C101.055 99.1269 100.441 98.6769 99.6232 98.5369C99.4145 98.501 99.126 98.4542 99.0816 98.75C99.04 99.0277 99.2951 99.0825 99.5227 99.1257C100.563 99.3243 101.081 100.028 101.291 101.006C101.338 101.223 101.32 101.451 101.566 101.561C101.57 101.591 101.572 101.62 101.574 101.65C101.036 101.653 100.498 101.654 99.9597 101.662C99.7269 101.665 99.4161 101.615 99.4032 101.951C99.3903 102.295 99.697 102.261 99.9339 102.265C100.353 102.271 100.771 102.271 101.19 102.273C101.053 103.365 100.677 104.263 99.4408 104.492C99.2733 104.523 99.0457 104.584 99.0739 104.818C99.1078 105.096 99.3544 105.046 99.5513 105.05C99.9125 105.059 100.197 104.868 100.502 104.711C101.078 104.412 101.243 103.781 101.645 103.343C101.895 104.105 102.162 104.864 102.394 105.632C102.695 106.625 102.138 107.7 101.142 107.986C99.5497 108.443 98.2644 107.835 97.4274 106.23C97.0722 105.548 96.82 104.834 96.6775 104.076C96.659 103.976 96.6618 103.863 96.6428 103.756C96.5609 103.292 96.4766 102.828 96.4766 102.357V101.744Z" fill="#931A1A"/>
<path d="M106.543 100.57C106.346 99.9611 105.982 99.4054 105.97 98.7383C105.95 97.6451 106.644 96.6632 107.697 96.2984C108.691 95.9541 109.772 96.3266 110.491 97.3226C111.924 99.3102 112.142 101.553 111.764 103.892C111.56 105.16 111.13 106.351 110.206 107.291C109.335 108.177 108.114 108.394 106.982 107.903C106.18 107.555 105.726 106.614 105.982 105.749C106.221 104.941 106.503 104.144 106.766 103.343C106.954 103.452 106.992 103.665 107.107 103.826C107.561 104.462 108.107 104.971 108.933 105.044C109.138 105.062 109.424 105.131 109.466 104.821C109.501 104.558 109.231 104.529 109.05 104.476C107.871 104.123 107.342 103.491 107.22 102.27C107.698 102.267 108.176 102.265 108.654 102.263C108.884 102.263 109.122 102.247 109.143 101.953C109.166 101.606 108.888 101.666 108.68 101.661C108.103 101.647 107.526 101.64 106.95 101.63C107.163 100.381 107.563 99.2896 109.046 99.083C109.187 99.0632 109.291 98.9405 109.26 98.7702C109.231 98.6076 109.111 98.5281 108.96 98.5317C108.803 98.5361 108.644 98.5644 108.491 98.6047C107.46 98.8784 106.941 99.6653 106.543 100.57Z" fill="#931A1A"/>
<path d="M106.949 101.63C107.526 101.64 108.103 101.647 108.679 101.661C108.888 101.666 109.166 101.606 109.142 101.953C109.122 102.247 108.883 102.263 108.653 102.263C108.175 102.265 107.698 102.267 107.22 102.27C107.018 102.275 106.815 102.281 106.613 102.287C105.195 102.702 104.551 103.532 104.541 105.001C104.53 106.67 104.538 108.34 104.537 110.009C104.537 110.17 104.537 110.332 104.513 110.49C104.492 110.637 104.412 110.761 104.239 110.754C104.077 110.749 103.979 110.652 103.967 110.49C103.955 110.33 103.957 110.168 103.957 110.007C103.956 108.318 103.967 106.628 103.952 104.938C103.94 103.528 103.181 102.61 101.8 102.286C101.597 102.282 101.394 102.277 101.191 102.273C100.772 102.27 100.354 102.27 99.935 102.265C99.6981 102.261 99.3914 102.294 99.4047 101.951C99.4176 101.614 99.728 101.665 99.9612 101.662C100.499 101.654 101.037 101.653 101.575 101.65C102.745 101.78 103.62 102.367 104.245 103.46C104.784 102.448 105.601 101.904 106.629 101.659C106.736 101.649 106.843 101.64 106.949 101.63Z" fill="#DD3E37"/>
<path d="M101.567 101.561C101.322 101.451 101.339 101.223 101.292 101.006C101.082 100.028 100.565 99.3243 99.5241 99.1257C99.2961 99.0822 99.041 99.0277 99.0826 98.75C99.127 98.4542 99.416 98.5006 99.6242 98.5365C100.442 98.6766 101.056 99.1265 101.478 99.8352C101.621 100.075 101.732 100.334 101.858 100.585C101.874 100.702 101.891 100.819 101.907 100.935C101.891 101.135 101.906 101.34 101.799 101.523C101.722 101.536 101.644 101.548 101.567 101.561Z" fill="#787FB7"/>
<path d="M106.949 101.63C106.842 101.64 106.735 101.649 106.628 101.659C106.581 101.613 106.534 101.568 106.486 101.522C106.484 101.328 106.481 101.134 106.479 100.94C106.5 100.817 106.52 100.693 106.541 100.57C106.94 99.6649 107.459 98.8779 108.49 98.6047C108.643 98.5644 108.802 98.5361 108.959 98.5317C109.11 98.528 109.23 98.6075 109.259 98.7702C109.29 98.9401 109.185 99.0632 109.045 99.083C107.562 99.29 107.162 100.381 106.949 101.63Z" fill="#7780B9"/>
<path d="M106.613 102.287C106.815 102.281 107.018 102.275 107.22 102.27C107.342 103.491 107.871 104.123 109.05 104.476C109.23 104.529 109.501 104.558 109.466 104.821C109.424 105.131 109.138 105.062 108.933 105.044C108.107 104.971 107.561 104.462 107.106 103.826C106.992 103.666 106.953 103.452 106.766 103.343C106.74 102.987 106.749 102.627 106.613 102.287Z" fill="#F2AF63"/>
<path d="M101.19 102.273C101.393 102.277 101.596 102.282 101.799 102.286C101.66 102.626 101.668 102.987 101.645 103.343C101.244 103.78 101.079 104.412 100.502 104.711C100.198 104.868 99.9129 105.059 99.5521 105.05C99.3552 105.046 99.1082 105.096 99.0747 104.818C99.0461 104.584 99.2737 104.523 99.4412 104.492C100.677 104.263 101.054 103.365 101.19 102.273Z" fill="#F2AF63"/>
<path d="M101.799 101.523C101.905 101.34 101.89 101.135 101.907 100.935C102.819 100.505 103.141 99.6754 103.351 98.7763C103.404 98.5474 103.365 98.2242 103.718 98.2883C104.05 98.3485 103.958 98.6596 103.925 98.8872C103.734 100.2 102.813 101.335 101.799 101.523Z" fill="#DE413A"/>
<path d="M106.48 100.94C106.483 101.134 106.485 101.328 106.487 101.522C105.351 101.403 104.482 99.5426 104.546 98.5733C104.556 98.4239 104.598 98.2924 104.777 98.2746C104.987 98.254 105.066 98.3957 105.093 98.5636C105.172 99.0599 105.278 99.5458 105.522 99.9942C105.748 100.408 106.012 100.776 106.48 100.94Z" fill="#DD403A"/>
<path d="M87.5233 116.888H72.7177C69.7498 116.888 67.3184 114.454 67.3184 111.479V95.2067C67.3184 92.2324 69.7498 89.7981 72.7177 89.7981H87.5233C90.4915 89.7981 92.9226 92.2324 92.9226 95.2067V111.479C92.9226 114.454 90.4915 116.888 87.5233 116.888Z" fill="#FFEBBE" stroke="#F70944" stroke-width="0.807131"/>
<path d="M82.1451 113.4L80.8553 112.886C80.4687 112.342 79.863 111.994 79.5365 111.396C78.5732 109.629 79.3057 108.174 80.3731 106.779C81.0753 106.712 81.8271 106.022 82.4482 106.979C82.6092 107.227 82.9321 107.431 83.1863 107.137C83.4273 106.859 83.1734 106.598 82.9595 106.385C82.3211 105.753 81.5668 105.568 80.7048 105.799C80.8126 105.479 80.9203 105.159 81.0281 104.839C81.4571 104.503 81.8578 104.139 82.1653 103.683C82.3832 103.744 82.581 103.679 82.7908 103.616C84.1287 103.213 85.2554 103.546 86.2074 104.577C86.6312 105.036 86.8862 105.602 87.2728 106.08C87.8512 107.597 88.4274 109.101 88.2987 110.788C88.2204 111.807 87.6768 112.361 86.8241 112.771C86.1021 113.119 85.2865 113.083 84.5633 113.4H82.1451Z" fill="#DC352F"/>
<path d="M80.3737 106.778C79.3059 108.174 78.5738 109.629 79.5371 111.396C79.8632 111.994 80.4694 112.342 80.8556 112.886C78.4552 113.273 76.3437 112.623 74.5692 110.994C73.4954 110.008 72.8791 108.79 73.3029 107.258C73.8521 105.675 75.0576 104.655 76.3425 103.704C76.5007 103.649 76.6593 103.594 76.8175 103.539C77.1856 103.488 77.552 103.408 77.9217 103.39C79.205 103.329 80.1316 104.057 81.0283 104.839C80.921 105.159 80.8128 105.479 80.7051 105.799C80.4835 106.088 80.3011 106.39 80.3737 106.778Z" fill="#931A1A"/>
<path d="M81.0276 104.839C80.1309 104.057 79.2047 103.329 77.921 103.39C77.5513 103.408 77.1845 103.488 76.8164 103.539C77.1312 101.698 78.0069 100.151 79.2382 98.7682C80.1595 97.7334 81.3004 96.9562 82.3033 96.0199C82.7722 95.9569 83.1334 95.6555 83.5285 95.4396C83.9046 95.2337 84.1314 95.3258 84.3118 95.6752C84.3243 95.6987 84.3421 95.7192 84.3562 95.7422C85.2311 97.2225 85.2328 97.2249 83.7622 98.1426C83.3699 98.3876 83.0446 98.7044 82.7359 99.0422C82.1487 99.6625 81.8392 100.399 81.7827 101.255C81.727 102.096 81.9284 102.891 82.1645 103.683C81.8573 104.139 81.4562 104.503 81.0276 104.839Z" fill="#B02823"/>
<path d="M82.3043 96.0195C81.301 96.9562 80.1605 97.7338 79.2392 98.7682C78.0075 100.151 77.1318 101.698 76.8174 103.539C76.6588 103.594 76.5006 103.649 76.3424 103.704C76.1656 102.686 76.1786 101.656 76.1608 100.629C76.0482 98.7779 76.3961 97.047 77.4813 95.5066C78.0434 94.9646 77.7008 94.3705 77.583 93.7874C77.5103 93.4266 77.1774 92.9944 77.7121 92.7498C78.3086 92.4766 79.1383 92.7748 79.2808 93.3035C79.5237 94.2046 79.9713 94.8229 80.9717 94.9718C81.5742 95.0614 82.0367 95.4444 82.3043 96.0195Z" fill="#DC362F"/>
<path d="M82.1649 103.683C81.9284 102.891 81.7274 102.096 81.7827 101.255C81.8396 100.399 82.1487 99.6625 82.7363 99.0422C84.5261 99.3453 85.979 100.131 86.7364 101.887C87.3168 103.231 87.3789 104.647 87.2724 106.081C86.8862 105.602 86.6311 105.036 86.207 104.577C85.2554 103.546 84.1282 103.213 82.7908 103.616C82.5805 103.679 82.3828 103.744 82.1649 103.683Z" fill="#7582BD"/>
<path d="M76.1607 100.629C76.1785 101.656 76.1652 102.686 76.3419 103.704C75.057 104.655 73.8519 105.674 73.3023 107.257C72.4947 105.75 72.5714 104.261 73.3208 102.748C73.8475 101.684 73.6941 101.272 72.6307 100.807C72.1691 100.605 71.9584 100.345 72.2017 99.8998C72.4629 99.4215 72.3712 98.5918 73.3297 98.7387C73.8265 98.815 74.1784 99.2516 74.7002 99.2137L74.7099 99.1915C74.5755 99.3961 74.7628 99.4199 74.8742 99.4861C75.2769 99.8969 75.5437 100.461 76.1607 100.629Z" fill="#B12923"/>
<path d="M76.1605 100.628C75.5435 100.46 75.2767 99.897 74.8744 99.4861C74.8542 99.3687 74.9373 99.1931 74.7097 99.1915L74.7 99.2137C74.6036 97.8755 73.5378 96.4727 72.3109 96.1551C71.9078 96.0506 71.7064 95.8904 71.8916 95.5094C72.0668 95.1494 72.0426 94.3972 72.6826 94.6538C73.6044 95.0235 74.4861 94.9605 75.4147 94.8322C76.1928 94.7253 76.8797 95.0118 77.481 95.5066C76.3962 97.047 76.0479 98.7779 76.1605 100.628Z" fill="#7782BB"/>
<path d="M80.3736 106.778C80.301 106.39 80.4838 106.088 80.7049 105.799C81.5669 105.567 82.3212 105.753 82.9597 106.385C83.1735 106.598 83.4274 106.859 83.1865 107.137C82.9326 107.431 82.6094 107.227 82.4483 106.978C81.8272 106.022 81.0758 106.712 80.3736 106.778Z" fill="#B22822"/>
<path d="M43.9992 123.426H56.4948C59.1886 123.426 61.3925 121.219 61.3925 118.521V104.787C61.3925 102.089 59.1886 99.882 56.4948 99.882H43.9992C41.3058 99.882 39.1016 102.089 39.1016 104.787V118.521C39.1016 121.219 41.3058 123.426 43.9992 123.426Z" fill="#C5EDFA"/>
<path d="M47.5903 104.369H55.204C55.3888 104.603 55.6552 104.825 55.4396 105.164C54.8161 106.145 55.2185 106.971 55.8186 107.764C56.2976 108.398 56.8174 109.002 57.2763 109.649C57.7678 110.342 57.6919 110.721 57.0438 111.248C56.2593 111.885 56.1669 112.161 56.5014 113.081C56.6318 113.438 56.5842 113.729 56.2702 113.923C55.9816 114.101 55.997 114.247 56.1866 114.494C56.4514 114.839 56.3743 115.182 56.0389 115.437C55.6596 115.726 55.6124 115.989 55.8485 116.442C56.4546 117.606 55.9691 118.549 54.6914 118.815C54.4336 118.869 54.1684 118.919 53.9065 118.92C51.789 118.925 49.6715 118.917 47.554 118.913C46.8453 118.323 47.1581 117.571 47.2356 116.859C47.2747 116.502 47.4591 116.512 47.6904 116.713C47.9196 116.912 48.1468 117.114 48.4677 117.15C48.4943 117.157 48.5205 117.166 48.5467 117.173C48.5375 117.149 48.5282 117.124 48.5189 117.099C48.3567 116.675 48.1839 116.259 48.142 115.796C48.0149 114.391 48.4596 113.699 49.8458 113.374C51.1917 113.058 52.5433 113.011 53.8411 113.628C54.1979 113.798 54.5655 113.862 54.7742 113.445C55.0038 112.986 54.6188 112.802 54.3024 112.632C53.9005 112.415 53.4678 112.288 53.0146 112.213C51.9791 112.043 50.9371 112.159 49.8987 112.125C48.9164 112.093 48.0645 112.353 47.4943 113.228C47.3974 113.376 47.2775 113.512 47.0774 113.435C46.8699 113.355 46.8352 113.187 46.8526 112.972C46.9373 111.925 47.7037 111.188 48.7578 111.184C50.5371 111.177 52.316 111.179 54.095 111.184C54.4005 111.185 54.7015 111.165 54.9933 111.081C55.6551 110.889 56.0063 110.172 55.7492 109.555C54.7395 107.137 52.743 106.024 50.1703 106.447C49.8293 106.503 49.5625 106.629 49.5242 107.038C49.452 107.81 49.1832 108.077 48.3869 108.116C47.895 108.14 47.4055 108.166 46.9212 108.252C45.9099 108.429 45.4365 109.116 45.591 110.133C45.6734 110.675 45.7666 111.221 45.7726 111.767C45.7956 113.908 45.7835 116.05 45.7924 118.193C45.7936 118.471 45.7444 118.717 45.5458 118.921C45.244 118.926 44.9417 118.936 44.6398 118.936C43.781 118.936 43.6358 118.762 43.7782 117.923C44.0878 116.105 44.1733 114.275 43.9711 112.442C43.8008 110.896 43.7851 109.401 44.6067 107.988C45.4074 106.612 46.1258 105.188 47.5903 104.369Z" fill="#F9C076"/>
<path d="M47.5554 118.913C46.8859 118.916 46.2164 118.918 45.5469 118.921C45.7454 118.717 45.7947 118.471 45.7939 118.192C45.7846 116.05 45.7971 113.908 45.7737 111.767C45.7676 111.221 45.6744 110.675 45.5921 110.133C45.4375 109.116 45.9113 108.429 46.9222 108.252C47.4069 108.166 47.8964 108.14 48.388 108.116C49.1842 108.077 49.4526 107.81 49.5252 107.038C49.5636 106.629 49.8307 106.503 50.1713 106.447C52.7445 106.024 54.7409 107.137 55.7502 109.555C56.0073 110.172 55.6562 110.889 54.9943 111.081C54.7026 111.165 54.4015 111.185 54.096 111.184C52.3171 111.179 50.5382 111.177 48.7593 111.184C47.7051 111.188 46.9384 111.924 46.854 112.972C46.8367 113.187 46.871 113.355 47.0788 113.435C47.2786 113.512 47.3984 113.376 47.4953 113.228C48.0655 112.353 48.9175 112.093 49.9001 112.125C50.9381 112.159 51.9801 112.043 53.0161 112.213C53.4693 112.288 53.9015 112.415 54.3034 112.632C54.6198 112.802 55.0048 112.986 54.7752 113.445C54.5666 113.862 54.1989 113.797 53.8422 113.628C52.5443 113.011 51.1928 113.058 49.8473 113.374C48.4606 113.699 48.0159 114.39 48.1434 115.796C48.1854 116.259 48.3577 116.675 48.5203 117.099C48.5026 117.115 48.4852 117.133 48.4683 117.151C48.1479 117.114 47.9206 116.912 47.691 116.713C47.4602 116.512 47.2758 116.502 47.237 116.859C47.1591 117.57 46.8468 118.323 47.5554 118.913ZM51.7896 110.398C52.3106 110.409 52.78 110.371 53.2469 110.292C53.6024 110.231 53.9503 110.148 54.2716 109.982C54.4487 109.891 54.6053 109.752 54.4951 109.533C54.3801 109.305 54.2058 109.461 54.0548 109.511C53.8414 109.583 53.6323 109.679 53.4128 109.72C52.307 109.926 51.2004 109.904 50.0967 109.694C49.9276 109.662 49.727 109.602 49.6636 109.82C49.5918 110.069 49.7928 110.133 49.9893 110.181C50.5971 110.33 51.2093 110.434 51.7896 110.398ZM51.2125 109.373C52.1484 109.436 52.9967 109.271 53.6299 108.511C53.7614 108.352 53.9535 108.174 53.7259 107.979C53.5125 107.796 53.3978 108.026 53.2735 108.159C52.9111 108.548 52.4696 108.771 51.9377 108.833C51.1391 108.927 50.3586 108.775 49.572 108.691C49.3977 108.673 49.1491 108.612 49.1221 108.887C49.1003 109.108 49.3154 109.128 49.482 109.168C50.0539 109.304 50.6282 109.417 51.2125 109.373ZM50.8864 108.124C51.2977 108.065 51.7763 107.974 52.173 107.655C52.2921 107.559 52.3954 107.434 52.2933 107.266C52.1944 107.104 52.0459 107.101 51.9059 107.2C51.558 107.446 51.171 107.557 50.7521 107.604C50.5745 107.624 50.3392 107.681 50.3893 107.937C50.4304 108.146 50.6407 108.121 50.8864 108.124Z" fill="#B02823"/>
<path d="M48.518 117.099C48.5273 117.124 48.5366 117.148 48.5459 117.173C48.5197 117.165 48.493 117.158 48.4668 117.15C48.4833 117.133 48.5007 117.116 48.518 117.099Z" fill="#D66071"/>
<path d="M51.7877 110.398C51.207 110.434 50.5948 110.33 49.9874 110.181C49.7909 110.133 49.5895 110.069 49.6614 109.82C49.7243 109.602 49.9257 109.662 50.0944 109.694C51.1985 109.904 52.3051 109.926 53.4109 109.72C53.63 109.679 53.8391 109.583 54.0526 109.511C54.2039 109.461 54.3778 109.305 54.4924 109.533C54.603 109.752 54.4464 109.891 54.2697 109.982C53.948 110.148 53.6002 110.231 53.2446 110.292C52.7777 110.371 52.3087 110.409 51.7877 110.398Z" fill="#863043"/>
<path d="M51.2108 109.373C50.6264 109.417 50.0518 109.304 49.4799 109.168C49.3136 109.128 49.0985 109.108 49.1207 108.888C49.1474 108.612 49.3964 108.673 49.5707 108.691C50.3572 108.775 51.1373 108.928 51.936 108.833C52.4679 108.771 52.9094 108.548 53.2718 108.16C53.3961 108.026 53.5107 107.796 53.7242 107.979C53.9518 108.174 53.7601 108.352 53.6281 108.511C52.995 109.271 52.1471 109.436 51.2108 109.373Z" fill="#843043"/>
<path d="M50.8849 108.124C50.6391 108.122 50.4285 108.146 50.3877 107.937C50.3377 107.681 50.5729 107.624 50.7501 107.604C51.1694 107.557 51.5564 107.446 51.9043 107.2C52.0443 107.101 52.1924 107.104 52.2917 107.266C52.3934 107.434 52.2901 107.559 52.1715 107.655C51.7747 107.975 51.2961 108.065 50.8849 108.124Z" fill="#883144"/>
</g>
</g>
</g>
</svg>
