<svg width="63" height="63" viewBox="0 0 63 63" fill="none" xmlns="http://www.w3.org/2000/svg">
<circle cx="31.5" cy="31.5" r="31.5" fill="white"/>
<path d="M47.1069 40.5284C45.0352 42.4749 42.6357 43.868 39.9525 44.8104C38.9574 45.1603 37.9227 45.3776 36.8881 45.5904C36.7881 45.611 36.6974 45.5721 36.63 45.492C35.6697 45.8466 34.7583 46.3406 33.7282 46.503C33.6096 46.5396 33.4911 46.5762 33.3725 46.6151C32.9842 46.6883 32.5959 46.7615 32.2076 46.837C31.4473 47.0406 30.6707 47.1115 29.8825 47.0589C24.4976 46.9834 20.2635 44.8012 17.2525 40.3797C17.2409 40.3637 17.2316 40.3477 17.2223 40.3294C16.7201 39.5151 16.7224 39.5196 17.3874 38.8426C17.5455 38.6802 17.6687 38.4835 17.8082 38.3027C17.5315 37.8773 17.1479 37.5159 16.9828 37.0218C16.827 36.944 16.7084 36.8297 16.634 36.6764C16.0714 35.7798 15.418 34.9563 14.6042 34.2632C14.4787 34.4599 14.3508 34.6566 14.2229 34.8534C13.8509 35.6196 13.2464 36.0771 12.3721 36.0977C11.5304 36.116 10.9724 35.6379 10.5632 34.9632C10.2423 34.4348 10.0424 33.8675 10.0168 33.2476C10.0098 33.1721 10.0028 33.0944 9.99586 33.0189C9.78893 32.1931 10.0238 31.404 10.2191 30.6125C9.6657 30.1917 9.45876 29.5581 9.203 28.9656C8.81936 28.0713 8.6752 27.1266 8.72868 26.1544C8.638 26.1887 8.54034 26.2047 8.46362 26.2551C6.45007 27.5246 5.25032 29.3568 5.03873 31.667C4.75739 34.7504 6.01063 37.1659 8.73565 38.7991C10.2679 39.7164 11.6118 40.8212 12.6046 42.3286C13.7811 44.115 15.0809 45.8123 16.7503 47.1984C16.8433 47.2945 16.8619 47.4386 16.9619 47.5301C17.8338 48.2758 18.7778 48.9208 19.7869 49.4721C19.9613 49.5933 20.1729 49.6185 20.3589 49.7122C20.6053 49.8175 20.8588 49.9113 21.1006 50.0256C23.7814 51.2951 26.6157 51.9333 29.5849 51.9974C30.8962 52.0248 32.1937 51.8349 33.4911 51.6611C33.5678 51.6588 33.6445 51.6565 33.7213 51.6542C34.8024 51.2631 35.9603 51.1213 37.0136 50.6409C37.7297 50.3138 38.4598 50.021 39.1853 49.7122C39.348 49.607 39.5526 49.6299 39.72 49.5338C43.31 47.45 46.0327 44.5771 47.8347 40.8738C48.0416 40.4437 48.3462 40.0274 48.3136 39.5105C48.295 39.5196 48.2764 39.5288 48.2555 39.5357C47.7858 39.7667 47.4696 40.1876 47.1069 40.5284Z" fill="#DBD7E5"/>
<path d="M14.8904 33.0309C14.8928 33.0262 14.8974 33.0239 14.8997 33.0215L14.8672 33.0074C14.8742 33.0145 14.8811 33.0215 14.8904 33.0309Z" fill="#EDEBF1"/>
<path d="M9.20285 28.9656C9.45861 29.5581 9.66554 30.1917 10.2189 30.6125C10.2282 30.592 10.2398 30.5714 10.2491 30.5508C9.41443 29.3522 8.89128 28.0461 8.87733 26.5707C8.87501 26.4175 8.84943 26.2688 8.72852 26.1544C8.67505 27.1266 8.8192 28.0713 9.20285 28.9656Z" fill="#EDEBF1"/>
<path d="M58.0945 34.0244C54.0325 34.0244 49.9705 34.02 45.9085 34.0178C45.8837 34.0378 45.8543 34.0467 45.8204 34.0489C44.849 34.8979 44.483 36.0558 44.1057 37.2227C43.15 40.1831 41.3969 42.5834 38.7966 44.3681C38.2793 44.7971 37.658 45.0616 37.0977 45.4238H37.0954C37.0593 45.446 37.0254 45.4705 36.9893 45.4949C37.0548 45.5727 37.1429 45.6105 37.24 45.5905C38.2454 45.3838 39.2507 45.1727 40.2176 44.8326C42.8247 43.9169 45.1562 42.5634 47.1691 40.672C47.5216 40.3409 47.8288 39.9319 48.2852 39.7075C48.3055 39.7008 48.3236 39.6919 48.3416 39.683C48.6896 39.5163 48.6421 39.1341 48.746 38.8496C49.1256 37.7939 49.112 37.7894 50.1919 37.7227C50.2845 37.7027 50.3614 37.6538 50.4314 37.5961H50.8832C54.2697 37.5961 57.654 37.5894 61.0405 37.6027C61.4675 37.6049 61.6437 37.5138 61.6256 37.0538C61.5827 36.0358 61.5985 35.0179 61.5917 34C60.426 34.0089 59.2603 34.0244 58.0945 34.0244Z" fill="#EDEBF1"/>
<path d="M10.2491 30.5508C10.5351 29.9698 10.8653 29.4231 11.4791 29.1074C12.1627 28.4693 13.3043 28.8032 13.9298 29.5375C14.6041 30.3289 14.89 31.2553 14.89 32.2778C14.89 32.5248 14.897 32.7718 14.8993 33.0212C14.897 33.0235 14.8924 33.0257 14.89 33.0303C14.9319 33.0692 14.9831 33.1035 15.0505 33.1332C15.0691 33.1378 15.0854 33.1401 15.104 33.1424C15.0714 33.1424 15.0365 33.1447 15.004 33.147C14.9598 33.1538 14.9179 33.1676 14.8831 33.1859C14.8854 33.2064 14.8877 33.2247 14.89 33.2453C14.8575 33.2888 14.8226 33.3345 14.7877 33.378C14.804 33.6731 14.6808 33.9453 14.6134 34.2266C14.6203 34.222 14.6273 34.2198 14.6343 34.2175C15.276 34.5286 15.6341 35.1233 16.0782 35.6288C16.3223 35.9079 16.5083 36.2349 16.7106 36.5483C16.7153 36.5552 16.7199 36.5643 16.7246 36.5712C16.7385 36.5941 16.7525 36.6192 16.7711 36.6398C16.799 36.6215 16.8152 36.5986 16.8292 36.5712C16.8338 36.6375 16.8478 36.7016 16.8664 36.7656C16.8664 36.7679 16.8687 36.7679 16.8687 36.7679C16.9059 36.8137 16.9454 36.8594 16.9826 36.9052C17.0129 36.9395 17.0408 36.9761 17.0687 37.0127C17.2896 37.4335 17.6732 37.7584 17.836 38.2158C17.8522 38.1541 17.8639 38.0877 17.9057 38.0351C18.9148 36.7244 19.3705 35.1988 19.6635 33.609C19.6728 33.5541 19.7007 33.5015 19.7239 33.4489C19.7379 33.4146 19.7542 33.3826 19.7728 33.3528C19.7751 33.3506 19.7751 33.3505 19.7728 33.3483V33.346C19.7728 33.3117 19.7704 33.2796 19.7681 33.2453C19.7681 33.2385 19.7681 33.2293 19.7704 33.2225C19.7704 33.1538 19.7751 33.0852 19.7797 33.0166C19.7658 32.9983 19.7542 32.98 19.7449 32.964C19.7053 32.8908 19.7193 32.8382 19.7797 32.8016C19.6658 32.415 19.6844 32.0056 19.6472 31.6121C19.4449 29.5215 18.7172 27.6641 17.2524 26.1132C17.2175 26.0766 17.1873 26.0378 17.1617 25.9966C17.1245 25.9417 17.0966 25.8845 17.0803 25.8205C17.0338 25.7427 16.9826 25.6695 16.9222 25.6077C16.871 25.5574 16.8152 25.514 16.7455 25.4842V25.3355C16.8222 25.2761 16.878 25.2029 16.9199 25.1251C16.9175 24.9833 16.9175 24.8415 16.9175 24.6996C16.9757 24.75 17.0268 24.7774 17.0687 24.7888C17.0687 24.7866 17.071 24.7843 17.071 24.782C18.9636 21.8358 21.5236 19.7086 24.9113 18.5992C25.0926 18.5397 25.2833 18.5054 25.4693 18.4574C27.3131 17.8077 29.215 17.6888 31.1449 17.8649C31.8401 17.9267 32.5306 18.0479 33.2212 18.1463C33.2328 18.1486 33.2421 18.1486 33.2537 18.1508C33.3305 18.1943 33.4072 18.2355 33.4839 18.2789C33.5281 18.2766 33.5746 18.2766 33.6188 18.2744C33.6537 18.2744 33.6862 18.2721 33.7211 18.2721C33.7257 18.3018 33.7281 18.3315 33.7281 18.3613C35.0952 18.6175 36.3229 19.2099 37.5017 19.9053C40.7452 21.8198 42.9006 24.5761 43.9864 28.1353C44.3352 29.279 44.7909 30.3518 45.6954 31.1867L45.7 31.189C45.7024 31.189 45.7024 31.189 45.7047 31.189C45.714 31.173 45.7256 31.1592 45.7396 31.1455C45.8884 31.038 46.0604 31.0151 46.2348 31.0151C47.5438 31.0197 48.8552 30.9694 50.1642 31.0403C50.1875 31.0449 50.2108 31.0494 50.2317 31.0563C50.2433 31.0586 50.2549 31.0632 50.2642 31.0677C50.2851 30.9923 50.3014 30.9145 50.3131 30.8367C50.3177 30.9419 50.334 31.0449 50.3898 31.1318C50.4154 31.1478 50.4409 31.1661 50.4642 31.1867C54.0448 31.1913 57.6255 31.1958 61.2062 31.2027C61.4317 31.205 61.6712 31.1409 61.8828 31.285C61.913 31.285 61.9432 31.2896 61.9735 31.301V28.2817C61.9735 27.5269 61.9735 27.5269 61.1806 27.5269H50.2317C50.127 27.4331 50.0015 27.3736 49.8643 27.385C48.9668 27.4605 48.9901 27.0785 48.818 26.4769C48.7413 26.2093 48.7413 25.8822 48.4041 25.7701C48.5367 25.5826 48.4227 25.4019 48.3507 25.2257C48.1623 24.7477 47.9624 24.2719 47.7368 23.8076C46.5906 21.4355 44.9862 19.3998 42.9959 17.6613C42.6542 17.364 42.3379 17.0049 41.8613 16.8905C41.745 16.815 41.6288 16.7372 41.5125 16.6618C41.3591 16.6435 41.2056 16.632 41.0522 16.6252C41.1056 16.5931 41.1475 16.5359 41.1638 16.433C40.071 15.7331 38.9619 15.0514 37.7412 14.5848C36.5112 14.1113 35.2836 13.6241 33.9559 13.4594C33.7188 13.3976 33.6444 13.4777 33.6211 13.5944C33.6002 13.5052 33.5607 13.4205 33.4909 13.345C33.3956 13.3427 33.3095 13.3222 33.2584 13.2307C32.4539 13.1552 31.6541 13.0271 30.8496 13.0134C29.3848 12.9859 27.9246 12.9791 26.4621 13.2147C23.4581 13.6996 20.7214 14.7838 18.2615 16.5474H18.1452C18.1057 16.5863 18.0685 16.6229 18.0289 16.6618C17.643 16.9683 17.2547 17.2725 16.8664 17.5767V17.8718C16.8408 17.81 16.8036 17.7483 16.7501 17.6911C15.4853 18.7387 14.432 19.9716 13.5159 21.3189C12.8509 22.2979 12.1883 23.2837 11.3791 24.1484C10.6212 24.9558 9.67483 25.5643 8.72852 26.1544C8.84942 26.2688 8.875 26.4175 8.87732 26.5707C8.89127 28.0461 9.41442 29.3522 10.2491 30.5508Z" fill="#EDEBF1"/>
<path d="M61.2067 31.2027C57.6261 31.1959 54.0454 31.1913 50.4647 31.1867H50.2322C48.7232 31.1867 47.2142 31.189 45.7052 31.189C45.7029 31.1913 45.7029 31.1936 45.7006 31.1959V31.189L45.6959 31.1867H45.5053C44.1358 31.189 42.7663 31.1913 41.3968 31.1936C41.2247 31.0403 41.062 30.8779 40.8806 30.7361C40.4017 30.3541 40.125 30.0201 40.6923 29.4185C41.1294 28.9565 40.9876 28.3137 40.5551 27.9272C40.0552 27.4811 39.374 27.4262 38.8927 27.9043C38.4881 28.3046 38.237 28.1468 37.9394 27.838C37.2488 27.122 36.5722 26.39 35.8584 25.697C35.0934 24.9513 34.5401 24.9398 33.7356 25.5895H33.7333C33.7286 25.6261 33.7216 25.6627 33.717 25.697C33.6705 25.745 33.6263 25.7907 33.5821 25.8365C33.5542 25.8662 33.5263 25.8937 33.4961 25.9234V25.9257C33.4961 26.1933 33.4961 26.461 33.4984 26.7286C33.5263 26.7583 33.5542 26.788 33.5821 26.8178C33.5937 26.8269 33.603 26.8384 33.6123 26.8475C33.6379 26.875 33.6635 26.9024 33.6914 26.9299C33.6914 26.9299 33.6914 26.9322 33.6937 26.9322C33.7007 26.939 33.7077 26.9482 33.7147 26.955C33.7193 26.9916 33.7263 27.0305 33.7309 27.0671C34.1704 27.52 34.5935 27.9935 35.0586 28.4212C35.3492 28.6866 35.4027 28.9313 35.1051 29.1784C34.6331 29.5672 34.2657 30.0682 33.7426 30.3998C33.7333 30.4364 33.7263 30.4707 33.717 30.5051C33.724 31.3377 33.7309 32.1726 33.7379 33.0075C33.7123 32.996 33.6844 32.9869 33.6589 32.9754C33.6589 32.9823 33.6612 32.9915 33.6635 32.9983C33.8146 33.1447 34.7749 32.701 35.4864 32.2526C35.9537 31.7929 36.3723 31.2782 36.8814 30.8642C37.1442 30.6515 37.293 30.5234 37.565 30.8688C37.8185 31.1913 38.1719 31.436 38.4811 31.7151C39.1461 32.3121 39.1531 32.3578 38.623 33.0052C38.616 33.0075 38.6067 33.0075 38.5997 33.0075V33.0098C38.5648 33.0143 38.53 33.0189 38.4928 33.0235C38.4765 33.0532 38.4602 33.0807 38.4462 33.1104C38.4439 33.115 38.4416 33.1173 38.4393 33.1218C38.4183 33.1607 38.3974 33.1996 38.3765 33.2385C39.8855 33.2385 41.3968 33.2362 42.9058 33.2362V33.2339C42.9058 33.2339 42.9058 33.2339 42.9058 33.2362C44.6101 33.2362 46.3144 33.2362 48.0187 33.2385C48.6349 33.2408 49.251 33.2408 49.8672 33.2476C49.9927 33.2499 50.1787 33.211 50.1904 33.394C50.195 33.4695 50.1764 33.5153 50.1439 33.5427C50.0764 33.6045 49.9439 33.577 49.8509 33.577C48.5047 33.5839 47.1584 33.5862 45.8099 33.5885C45.8099 33.6182 45.8075 33.6479 45.8075 33.68C49.9881 33.6822 54.1686 33.6868 58.3492 33.6868C59.5489 33.6868 60.7487 33.6708 61.9484 33.6617C61.9484 33.6365 61.9484 33.6113 61.9438 33.5839C62.0066 33.4764 62.0135 33.362 61.974 33.2454C61.9717 33.1676 61.9694 33.0921 61.967 33.0143C61.967 33.0143 61.967 33.0143 61.9647 33.0143C61.967 32.4425 61.967 31.8729 61.9694 31.3011C61.9391 31.2896 61.9089 31.2851 61.8787 31.2851C61.6717 31.141 61.4323 31.205 61.2067 31.2027Z" fill="#C34861"/>
<path d="M50.2321 31.0563C50.2111 31.0495 50.1879 31.0449 50.1646 31.0403C48.8556 30.9694 47.5442 31.0197 46.2352 31.0152C46.0608 31.0152 45.8888 31.038 45.74 31.1455C45.726 31.1593 45.7144 31.173 45.7051 31.189C47.2141 31.189 48.7231 31.1867 50.2321 31.1867V31.0563Z" fill="#EDEBF1"/>
<path d="M33.9562 13.4594C33.8353 13.2924 33.6516 13.361 33.4912 13.345C33.561 13.4205 33.6005 13.5052 33.6214 13.5944C33.6447 13.4777 33.7191 13.3976 33.9562 13.4594Z" fill="#E8E7EF"/>
<path d="M41.0527 16.6251C41.2062 16.632 41.3596 16.6434 41.5131 16.6617C41.3968 16.5862 41.2806 16.5108 41.1643 16.433C41.1481 16.5359 41.1062 16.5931 41.0527 16.6251Z" fill="#E8E7EF"/>
<path d="M16.8663 17.5767C16.8267 17.6155 16.7895 17.6544 16.75 17.691C16.8035 17.7482 16.8407 17.81 16.8663 17.8717V17.5767Z" fill="#E9E8F0"/>
<path d="M16.918 24.6996C16.918 24.8414 16.918 24.9832 16.9203 25.125C16.9807 25.0175 17.0203 24.9009 17.0691 24.7888C17.0272 24.7774 16.9761 24.7499 16.918 24.6996Z" fill="#E9E8F0"/>
<path d="M29.5876 45.9105C29.3853 45.0482 28.8435 44.3757 28.325 43.6986C28.146 43.4653 28.0181 43.2229 27.9065 42.9621C27.1113 42.7814 26.5045 42.2667 25.9 41.791C24.6839 40.8348 23.7609 39.6522 23.4284 38.122C23.1284 36.7495 23.3563 35.4229 23.9143 34.1419C24.0399 33.8491 24.1724 33.5586 24.3003 33.2659C24.298 33.2636 24.2956 33.2613 24.2933 33.2567C22.9819 33.2521 21.6683 33.2613 20.3569 33.2361C20.0523 33.2293 19.8989 33.3505 19.7872 33.5884C19.5315 35.3016 19.0479 36.9234 17.8504 38.2546L17.8086 38.3027C17.6691 38.4834 17.5458 38.6801 17.3877 38.8425C16.7228 39.5196 16.7204 39.515 17.2227 40.3293C17.232 40.3476 17.2413 40.3636 17.2529 40.3796C20.2639 44.8012 24.4979 46.9833 29.8829 47.0588C29.8596 47.0154 29.841 46.9719 29.8224 46.9284C29.6922 46.6013 29.6666 46.2491 29.5876 45.9105Z" fill="#D9596B"/>
<path d="M31.6311 44.3391C31.1591 43.5568 30.7615 42.7311 30.0314 42.1203C29.1595 41.3907 28.4806 41.4844 27.9086 42.4383C27.8109 42.6007 27.804 42.7265 27.8574 42.8615C27.8714 42.8935 27.8877 42.9278 27.9063 42.9621C28.0179 43.2229 28.1458 43.4653 28.3248 43.6986C28.8433 44.3757 29.385 45.0482 29.5873 45.9106C29.6664 46.2491 29.692 46.6013 29.8222 46.9284C29.8408 46.9719 29.8594 47.0154 29.8826 47.0588C30.6708 47.1114 31.4474 47.0405 32.2077 46.8369C32.21 46.7912 32.21 46.7477 32.2077 46.7043C32.1961 45.8762 31.8334 45.126 31.6311 44.3391Z" fill="#C34761"/>
<path d="M19.7865 33.5884C19.7819 33.5106 19.7772 33.4306 19.7726 33.3528C19.7539 33.3825 19.7377 33.4145 19.7237 33.4489C19.7005 33.5015 19.6726 33.5541 19.6633 33.609C19.3703 35.1987 18.9146 36.7244 17.9055 38.0351C17.8636 38.0877 17.852 38.154 17.8357 38.2158C17.673 37.7583 17.2893 37.4335 17.0685 37.0126C17.0405 36.976 17.0126 36.9394 16.9824 36.9051V37.0218C17.1475 37.5158 17.5311 37.8772 17.8078 38.3027L17.8497 38.2547C19.0471 36.9234 19.5307 35.3016 19.7865 33.5884Z" fill="#EDEBF1"/>
<path d="M11.6353 33.2545L11.6516 33.2385H11.633C11.619 33.2133 11.6074 33.1904 11.5958 33.1653C11.5702 33.1195 11.5446 33.0715 11.5214 33.0257L11.5144 33.0097V33.0074C11.0098 33.012 10.503 33.0166 9.99842 33.0189H9.99609C10.0031 33.0944 10.01 33.1721 10.017 33.2476C10.0426 33.8675 10.2449 34.4348 10.5634 34.9632C10.9726 35.6379 11.5307 36.116 12.3724 36.0977C13.2466 36.0794 13.8511 35.6219 14.2231 34.8534C14.165 34.8671 14.1069 34.8808 14.0511 34.89C12.749 35.1233 12.1956 34.1832 11.6353 33.2545Z" fill="#395167"/>
<path d="M37.2906 44.4603C36.1071 44.6525 34.9166 44.529 33.7332 44.5701C33.7308 45.174 33.7285 45.7802 33.7285 46.3863V46.503C34.7585 46.3406 35.67 45.8465 36.6302 45.492C36.6675 45.4668 36.7023 45.4416 36.7395 45.4188H36.7419C37.3185 45.0459 37.9579 44.7737 38.4903 44.3323C38.4415 44.3117 38.395 44.2957 38.3485 44.2865C37.9811 44.1973 37.6393 44.4032 37.2906 44.4603Z" fill="#D9596C"/>
<path d="M16.0786 35.6287C15.6345 35.1232 15.2764 34.5285 14.6347 34.2174C14.6277 34.2197 14.6208 34.222 14.6138 34.2266C14.6091 34.238 14.6068 34.2517 14.6045 34.2632C15.4183 34.9562 16.0716 35.7797 16.6343 36.6764C16.6669 36.6352 16.6924 36.5917 16.711 36.5483C16.5088 36.2349 16.3227 35.9078 16.0786 35.6287Z" fill="#EDEBF0"/>
<path d="M11.5138 33.0074C11.0721 31.9278 11.0139 30.839 11.4022 29.7319C11.4604 29.5695 11.5952 29.4048 11.5394 29.2241C11.5278 29.1852 11.5092 29.1463 11.479 29.1074C10.8651 29.4231 10.535 29.9698 10.249 30.5508C10.2397 30.5714 10.2281 30.5919 10.2188 30.6125C10.0234 31.404 9.78861 32.1931 9.99554 33.0189H9.99787C10.5024 33.0143 11.007 33.012 11.5138 33.0074Z" fill="#3A5167"/>
<path d="M14.7876 33.378C14.769 33.3551 14.7504 33.3345 14.7295 33.3208C14.5784 33.1927 14.3807 33.2499 14.204 33.2476C13.3739 33.2384 12.5439 33.2407 11.7115 33.2384H11.651L11.6348 33.2545C12.1951 34.1831 12.7485 35.1233 14.0506 34.8899C14.1064 34.8808 14.1645 34.8671 14.2226 34.8533C14.3505 34.6566 14.4784 34.4599 14.6039 34.2632C14.6063 34.2518 14.6086 34.238 14.6132 34.2266C14.6807 33.9453 14.8039 33.673 14.7876 33.378Z" fill="#455D72"/>
<path d="M14.8831 33.1858C14.918 33.1675 14.9598 33.1538 15.004 33.1469C15.0365 33.1446 15.0714 33.1424 15.104 33.1424C15.0854 33.1401 15.0691 33.1378 15.0505 33.1332C14.9831 33.1035 14.9319 33.0692 14.8901 33.0303C14.8831 33.0348 14.8761 33.0417 14.8691 33.0463C14.8738 33.092 14.8784 33.1401 14.8831 33.1858Z" fill="#E8E7EF"/>
<path d="M16.8686 36.7679C16.8686 36.7679 16.8663 36.7679 16.8663 36.7656C16.8477 36.7016 16.8337 36.6375 16.8291 36.5712C16.8151 36.5987 16.7989 36.6215 16.771 36.6398C16.7524 36.6192 16.7384 36.5941 16.7245 36.5712C16.7198 36.5644 16.7152 36.5552 16.7105 36.5483C16.6919 36.5918 16.6663 36.6353 16.6338 36.6764C16.7082 36.8297 16.8268 36.9441 16.9826 37.0218V36.9052C16.9454 36.8594 16.9058 36.8137 16.8686 36.7679Z" fill="#E8E7EF"/>
<path d="M33.4816 44.5679C32.8934 44.6183 32.3447 44.3529 31.7657 44.3369C31.7215 44.3369 31.675 44.3369 31.6309 44.3392C31.8331 45.1261 32.1959 45.8763 32.2075 46.7044C32.2098 46.7478 32.2098 46.7913 32.2075 46.837C32.5958 46.7615 32.9841 46.6884 33.3724 46.6152C33.391 46.5625 33.4072 46.5122 33.4212 46.4596C33.5932 45.8352 33.4398 45.197 33.4816 44.5679Z" fill="#D9596B"/>
<path d="M33.7325 44.5702L33.7139 44.568H33.6999C33.6325 44.5657 33.5674 44.5657 33.5 44.5657L33.4883 44.568H33.4814C33.4395 45.197 33.593 45.8352 33.4209 46.4596C33.4069 46.5122 33.3907 46.5626 33.3721 46.6152C33.4907 46.5763 33.6092 46.5397 33.7278 46.5031V46.3864C33.7278 45.7803 33.7301 45.1741 33.7325 44.5702Z" fill="#D9596B"/>
<path d="M11.4023 29.7318C11.014 30.8389 11.0721 31.9277 11.5139 33.0074V33.0097L11.5209 33.0257C11.5441 33.0714 11.5697 33.1195 11.5953 33.1652C11.6069 33.1904 11.6185 33.2133 11.6325 33.2384H11.6511H11.7115C12.5439 33.2407 13.374 33.2384 14.204 33.2476C14.3807 33.2498 14.5784 33.1927 14.7295 33.3208C14.7504 33.3345 14.769 33.3551 14.7876 33.3779C14.8225 33.3345 14.8574 33.2887 14.8899 33.2453C14.8876 33.2247 14.8853 33.2064 14.883 33.1858C14.8783 33.1401 14.8737 33.092 14.869 33.0463C14.8667 33.0325 14.8667 33.0188 14.8644 33.0051L14.8667 33.0074L14.8992 33.0211C14.8969 32.7718 14.8899 32.5247 14.8899 32.2777C14.8899 31.2552 14.6039 30.3289 13.9297 29.5374C13.3042 28.8032 12.1626 28.4692 11.479 29.1074C11.5092 29.1463 11.5278 29.1852 11.5395 29.224C11.5953 29.4047 11.4604 29.5694 11.4023 29.7318Z" fill="#455D72"/>
<path d="M44.2536 35.6448C43.9885 36.3378 43.8188 37.0629 43.5421 37.7514C42.4818 40.398 40.7845 42.5595 38.4408 44.227C38.3153 44.0349 38.0874 44.1218 37.9153 44.1607C36.7923 44.4238 35.6507 44.4009 34.5114 44.3963C34.237 44.3963 33.951 44.3643 33.7162 44.5564H33.7139V44.5679L33.7325 44.5702C34.9159 44.529 36.1064 44.6525 37.2899 44.4604C37.6386 44.4032 37.9804 44.1973 38.3478 44.2865C38.3943 44.2957 38.4408 44.3117 38.4896 44.3323C41.1658 42.4955 42.9701 40.0251 43.9536 36.9783C44.3419 35.7774 44.7186 34.5857 45.7184 33.7119H45.5998C44.9139 34.1854 44.5419 34.8876 44.2536 35.6448Z" fill="#F06977"/>
<path d="M45.8068 33.5884H45.5464C44.3629 33.5884 43.1795 33.5839 41.9983 33.593C41.7937 33.593 41.5682 33.5152 41.3984 33.7028C42.7982 33.7051 44.2002 33.7074 45.5999 33.712H45.7185C45.7534 33.7097 45.7836 33.7005 45.8092 33.6799C45.8092 33.6479 45.8115 33.6182 45.8115 33.5884C45.8092 33.5884 45.8092 33.5884 45.8068 33.5884Z" fill="#C6576B"/>
<path d="M50.464 31.1866C50.4407 31.1661 50.4151 31.1478 50.3896 31.1317C50.3338 31.0448 50.3175 30.9419 50.3128 30.8367C50.3012 30.9144 50.2849 30.9922 50.264 31.0677C50.2547 31.0631 50.2431 31.0585 50.2314 31.0563V31.1866H50.464Z" fill="#E8E6EF"/>
<path d="M34.8003 36.5918C34.4794 36.8503 34.0679 36.9166 33.7238 37.1247L33.7145 37.1316H33.654C33.6238 37.1316 33.5936 37.1316 33.5633 37.1339C33.5424 37.1316 33.5215 37.1339 33.5006 37.1339L33.4727 37.1568V37.2368C33.475 38.0328 33.4796 38.8311 33.482 39.6249V39.6454L33.5029 39.6592H33.5331C33.5587 39.6569 33.5819 39.6569 33.6075 39.6569C33.6447 39.6546 33.6796 39.6546 33.7168 39.6523C33.7214 39.618 33.7261 39.5837 33.7261 39.5517C33.7284 39.5471 33.7284 39.5425 33.7284 39.5379H33.747C34.0377 39.5608 34.2957 39.4693 34.5655 39.3595C35.4188 39.0073 35.4211 39.0187 35.8419 39.8101C35.9303 39.9771 36.0373 40.1372 36.1419 40.2973C36.5743 40.9424 37.1766 41.1483 37.7602 40.8532C38.3228 40.5673 38.5763 39.8216 38.2973 39.1765C38.1159 38.7579 37.895 38.3531 37.6811 37.9505C37.5602 37.724 37.5393 37.5433 37.7439 37.3398C38.9692 36.132 40.1806 34.9151 41.3989 33.7028C41.5687 33.5152 41.7942 33.593 41.9988 33.593C43.18 33.5839 44.3635 33.5884 45.5469 33.5884H45.8073C45.8097 33.5884 45.8097 33.5884 45.812 33.5884C47.1606 33.5861 48.5068 33.5839 49.853 33.577C49.946 33.577 50.0786 33.6044 50.146 33.5427C50.1786 33.5152 50.1972 33.4695 50.1925 33.394C50.1809 33.211 49.9949 33.2499 49.8693 33.2476C49.2532 33.2407 48.637 33.2407 48.0209 33.2385C46.3165 33.2385 44.6122 33.2385 42.9079 33.2362C42.9079 33.2362 42.9079 33.2362 42.9079 33.2339V33.2362C41.3989 33.2362 39.8876 33.2385 38.3786 33.2385C38.3414 33.2476 38.3066 33.2545 38.2717 33.259C37.137 34.3959 36.0605 35.5853 34.8003 36.5918Z" fill="#C34761"/>
<path d="M34.2331 18.5969C37.7719 19.7383 40.5295 21.845 42.4616 24.9879C43.208 26.2048 43.6497 27.5383 44.0938 28.8765C44.3752 29.7228 44.7519 30.5302 45.5005 31.0907C45.3378 31.0266 45.1634 31.006 44.982 31.0037C44.0008 31.0037 43.0196 30.9992 42.0385 31.0083C41.8734 31.0106 41.7036 31.006 41.5572 31.0792C41.1944 30.9191 40.9689 30.6034 40.6922 30.3427C40.4899 30.1505 40.483 29.9515 40.6666 29.7411C40.755 29.6404 40.8224 29.5238 40.8852 29.4048C41.1689 28.8604 41.0921 28.3 40.6806 27.8769C40.2342 27.424 39.6622 27.3233 39.0925 27.6024C38.2764 28.0004 38.2764 28.0004 37.6347 27.3393C37.4208 27.1197 37.2325 26.875 37.0209 26.6531C36.5582 26.1682 36.1187 25.6581 35.5537 25.283C34.8725 24.8346 34.2656 24.9078 33.7332 25.4911V25.5872V25.5895H33.7355C34.54 24.9399 35.0934 24.9513 35.8583 25.697C36.5721 26.3901 37.2487 27.122 37.9393 27.838C38.2369 28.1468 38.488 28.3046 38.8926 27.9043C39.3739 27.4263 40.0551 27.4812 40.555 27.9272C40.9875 28.3138 41.1293 28.9565 40.6922 29.4186C40.1249 30.0202 40.4016 30.3541 40.8805 30.7361C41.0619 30.8779 41.2247 31.0403 41.3967 31.1936C42.7662 31.1913 44.1357 31.189 45.5052 31.1867H45.6958C44.7914 30.3518 44.3357 29.279 43.9869 28.1353C42.9011 24.5762 40.7457 21.8199 37.5022 19.9053C36.3233 19.2099 35.0957 18.6175 33.7285 18.3613V18.4185C33.8703 18.5329 34.0633 18.542 34.2331 18.5969Z" fill="#F06977"/>
<path d="M33.6402 18.3201C33.6588 18.3476 33.6774 18.3727 33.7006 18.3933C33.7099 18.4025 33.7192 18.4116 33.7285 18.4185V18.3613C33.7285 18.3316 33.7262 18.3018 33.7215 18.2721C33.6867 18.2721 33.6541 18.2744 33.6192 18.2744C33.5751 18.2767 33.5286 18.2767 33.4844 18.279V18.3567C33.5402 18.3567 33.5913 18.3453 33.6402 18.3201Z" fill="#EA8795"/>
<path d="M25.1952 18.8141C24.4047 19.5621 23.9024 20.4794 23.542 21.4858C23.2351 22.3436 23.3095 23.2197 23.3793 24.0957C23.4421 24.0729 23.4886 24.0363 23.5258 23.9928C23.5258 24.0134 23.5234 24.0317 23.5211 24.0523C23.5188 24.0683 23.5188 24.0843 23.5141 24.1003C23.5072 24.1712 23.4932 24.2398 23.47 24.3062C23.4421 24.3382 23.4165 24.3702 23.3956 24.4022C23.6397 25.5322 24.2884 26.5295 24.5186 27.6663C24.5418 27.6824 24.5674 27.6938 24.593 27.7075C24.5976 27.7121 24.6 27.7144 24.6046 27.719C24.6162 27.7281 24.6255 27.7395 24.6372 27.751C24.6046 27.7533 24.5744 27.7556 24.5442 27.7556C24.6813 28.1696 24.7581 28.5904 24.7767 29.0251C24.8278 30.37 24.7581 31.699 24.4186 33.0074C24.3814 33.012 24.3465 33.0188 24.3093 33.0234V33.1103C24.307 33.1538 24.307 33.1973 24.307 33.2384H24.3256C24.3186 33.243 24.3117 33.2499 24.3047 33.2567C24.3023 33.259 24.3024 33.2636 24.3 33.2659C24.4209 33.4443 24.2651 33.6502 24.2 33.8286C23.928 34.5994 23.5978 35.3474 23.5048 36.1777C23.3002 38.0008 23.8676 39.547 25.1254 40.876C25.8811 41.672 26.7693 42.2851 27.7342 42.7951C27.7017 42.7197 27.704 42.6327 27.7272 42.5321C27.9435 41.6675 28.913 41.258 29.6989 41.7315C30.3174 42.1044 30.8033 42.6236 31.1637 43.2435C31.3637 43.5912 31.5613 43.9434 31.7473 44.3002C32.3612 44.115 32.9215 44.3529 33.4842 44.5656C33.4888 44.561 33.4958 44.5564 33.5005 44.5519C33.5075 44.5473 33.5121 44.5427 33.5191 44.5381C33.5609 44.4764 33.5842 44.4123 33.5958 44.3437C33.6121 44.4055 33.6377 44.4649 33.6795 44.5221C33.6911 44.5336 33.7028 44.5427 33.7144 44.5541V44.5564H33.7167C33.9515 44.3643 34.2375 44.3963 34.5119 44.3963C35.6512 44.4009 36.7928 44.4238 37.9159 44.1607C38.0879 44.1218 38.3158 44.0349 38.4413 44.227C40.785 42.5595 42.4824 40.398 43.5426 37.7514C43.8193 37.0629 43.989 36.3378 44.2541 35.6448C44.5424 34.8876 44.9144 34.1854 45.6003 33.7119C44.2006 33.7073 42.7986 33.7051 41.3989 33.7028C40.1805 34.9151 38.9691 36.132 37.7438 37.3397C37.5392 37.5433 37.5601 37.724 37.681 37.9505C37.8949 38.353 38.1158 38.7579 38.2972 39.1765C38.5762 39.8215 38.3227 40.5672 37.7601 40.8531C37.1765 41.1482 36.5743 40.9424 36.1418 40.2973C36.0372 40.1372 35.9302 39.9771 35.8419 39.8101C35.421 39.0187 35.4187 39.0072 34.5654 39.3595C34.2957 39.4693 34.0376 39.5608 33.7469 39.5379C33.74 39.5425 33.733 39.547 33.726 39.5516C33.726 39.5836 33.7214 39.618 33.7167 39.6523C33.6795 39.6546 33.6446 39.6546 33.6074 39.6568C33.5958 39.6889 33.5865 39.7232 33.5819 39.7575C33.5702 39.7232 33.554 39.6912 33.533 39.6591H33.5028L33.4819 39.6454C32.989 39.8101 32.5007 39.7918 32.0008 39.6568C31.2405 39.4556 31.0405 39.2337 31.0452 38.5246C31.0498 37.8544 31.2312 37.6531 32.0078 37.4747C32.496 37.3626 32.9843 37.2619 33.4726 37.1567L33.5005 37.1339C33.5307 37.1041 33.5586 37.0904 33.5888 37.0881C33.6167 37.0835 33.6423 37.0881 33.6702 37.1041C33.6842 37.079 33.7028 37.0538 33.7237 37.0355V37.1247C34.0678 36.9165 34.4793 36.8502 34.8002 36.5917C36.0604 35.5853 37.1369 34.3958 38.2693 33.259C38.3041 33.2544 38.339 33.2476 38.3762 33.2384C38.3972 33.1995 38.4181 33.1607 38.439 33.1218C38.4413 33.1172 38.4437 33.1149 38.446 33.1103C38.4599 33.0806 38.4762 33.0531 38.4925 33.0234C38.5297 33.0188 38.5646 33.0143 38.5994 33.0097V33.0074C38.5622 32.9251 38.6041 32.8175 38.6924 32.7009C38.8854 32.4493 38.8017 32.2434 38.6064 32.049C38.2576 31.6967 37.8903 31.3628 37.5252 31.0265C37.309 30.8298 37.1369 30.8321 36.93 31.0242C36.6789 31.2575 36.4092 31.4657 36.1767 31.7265C36.0488 31.8706 35.7884 32.0627 35.4861 32.2526C34.777 32.6986 33.8144 33.1446 33.6632 32.9983C33.6609 32.9914 33.6586 32.9822 33.6586 32.9754C33.6121 32.9571 33.5656 32.9388 33.5191 32.9205C33.5144 32.9205 33.5098 32.9182 33.5051 32.9159L33.4795 32.8953C32.689 32.2228 32.689 31.4199 33.4795 30.7475C33.4865 30.704 33.4912 30.6605 33.4981 30.6171C33.5284 30.6034 33.5563 30.5873 33.5865 30.5713C33.5912 30.569 33.5958 30.5668 33.6005 30.5645C33.64 30.5439 33.6795 30.5256 33.7167 30.505C33.726 30.4707 33.733 30.4364 33.7423 30.3998V30.3151C34.0445 29.9446 34.4142 29.6404 34.763 29.3156C35.2118 28.8992 35.2071 28.8055 34.7793 28.3526C34.4305 27.982 33.998 27.6824 33.7307 27.2386V27.067C33.726 27.0304 33.719 26.9916 33.7144 26.955C33.7074 26.9481 33.7004 26.939 33.6935 26.9321C33.6911 26.9321 33.6911 26.9298 33.6911 26.9298C33.6632 26.9024 33.6377 26.8749 33.6121 26.8475C33.6028 26.8383 33.5935 26.8269 33.5819 26.8177C33.554 26.788 33.5261 26.7582 33.4981 26.7285C33.4958 26.4609 33.4958 26.1933 33.4958 25.9256V25.9234C33.526 25.8936 33.554 25.8662 33.5819 25.8364C33.626 25.7907 33.6702 25.7449 33.7167 25.6969C33.7214 25.6626 33.7283 25.626 33.733 25.5894V25.5871V25.491C34.2654 24.9078 34.8723 24.8346 35.5535 25.2829C36.1185 25.658 36.558 26.1681 37.0207 26.653C37.2323 26.8749 37.4206 27.1197 37.6345 27.3392C38.2762 28.0003 38.2762 28.0003 39.0924 27.6023C39.662 27.3232 40.234 27.4239 40.6804 27.8768C41.092 28.3 41.1687 28.8604 40.885 29.4048C40.8222 29.5237 40.7548 29.6404 40.6665 29.741C40.4828 29.9514 40.4897 30.1504 40.692 30.3426C40.9687 30.6034 41.1943 30.919 41.557 31.0791C41.7035 31.0059 41.8732 31.0105 42.0383 31.0082C43.0195 30.9991 44.0007 31.0036 44.9819 31.0036C45.1632 31.0059 45.3376 31.0265 45.5004 31.0906C44.7517 30.5302 44.375 29.7227 44.0937 28.8764C43.6496 27.5382 43.2078 26.2047 42.4614 24.9878C40.5293 21.8449 37.7717 19.7382 34.2329 18.5968C34.0632 18.5419 33.8702 18.5328 33.7283 18.4184C33.719 18.4116 33.7097 18.4024 33.7004 18.3933C33.6772 18.3727 33.6586 18.3475 33.64 18.3201C33.5912 18.3452 33.54 18.3567 33.4842 18.3567V18.2789C33.4075 18.2354 33.3307 18.1943 33.254 18.1508C33.2424 18.1485 33.2331 18.1485 33.2215 18.1462C32.5309 18.0479 31.8403 17.9266 31.1451 17.8649C29.2153 17.6887 27.3134 17.8077 25.4696 18.4573C25.4254 18.5145 25.3859 18.574 25.344 18.6334C25.2998 18.6975 25.251 18.7592 25.1952 18.8141Z" fill="#F06977"/>
<path d="M33.4838 44.5656C32.9211 44.3528 32.3608 44.115 31.7469 44.3002C31.5609 43.9434 31.3633 43.5911 31.1633 43.2435C30.8029 42.6236 30.317 42.1043 29.6985 41.7315C28.9126 41.258 27.9431 41.6675 27.7268 42.5321C27.7036 42.6327 27.7012 42.7197 27.7338 42.7951C26.7689 42.285 25.8807 41.672 25.125 40.876C23.8671 39.547 23.2998 38.0008 23.5044 36.1777C23.5974 35.3474 23.9276 34.5994 24.1996 33.8286C24.2647 33.6502 24.4205 33.4443 24.2996 33.2659C24.1717 33.5587 24.0392 33.8492 23.9136 34.1419C23.3556 35.4229 23.1278 36.7496 23.4277 38.122C23.7602 39.6523 24.6833 40.8348 25.8993 41.791C26.5038 42.2668 27.1107 42.7814 27.9059 42.9621C27.8873 42.9278 27.871 42.8935 27.857 42.8615C27.8035 42.7265 27.8105 42.6007 27.9082 42.4383C28.4802 41.4845 29.1591 41.3907 30.031 42.1204C30.7611 42.7311 31.1587 43.5568 31.6307 44.3391C31.6749 44.3368 31.7214 44.3368 31.7655 44.3368C32.3445 44.3528 32.8932 44.6182 33.4815 44.5679H33.4884L33.5001 44.5656V44.5519C33.4954 44.5564 33.4884 44.561 33.4838 44.5656Z" fill="#F06977"/>
<path d="M20.357 33.2362C21.6683 33.2614 22.982 33.2522 24.2934 33.2568H24.305L24.3073 33.2385C24.3073 33.1973 24.3073 33.1539 24.3097 33.1104V33.0235C24.3469 33.0189 24.3817 33.0121 24.4189 33.0075C24.7584 31.6991 24.8282 30.3701 24.777 29.0251C24.7584 28.5905 24.6817 28.1697 24.5445 27.7556H24.5375C24.5329 27.7259 24.5259 27.6962 24.5189 27.6664C24.2887 26.5296 23.64 25.5323 23.3959 24.4023C23.3889 24.3772 23.3819 24.3497 23.3773 24.3246C23.3773 24.2491 23.3773 24.1713 23.3796 24.0958C23.3099 23.2197 23.2355 22.3437 23.5424 21.4859C23.9028 20.4794 24.405 19.5622 25.1955 18.8142C25.2513 18.7593 25.3002 18.6976 25.3443 18.6335C25.3862 18.5741 25.4257 18.5146 25.4699 18.4574C25.2839 18.5054 25.0932 18.5397 24.9119 18.5992C21.5242 19.7086 18.9642 21.8359 17.0716 24.782C17.0716 24.7843 17.0693 24.7866 17.0693 24.7889C17.0205 24.901 16.9809 25.0176 16.9205 25.1251C16.8786 25.2029 16.8228 25.2761 16.7461 25.3356V25.4843C16.8158 25.514 16.8716 25.5575 16.9228 25.6078C16.9833 25.6695 17.0344 25.7427 17.0809 25.8205C17.1065 25.8411 17.1344 25.864 17.16 25.8868C18.3527 26.8658 18.9642 28.1971 19.4246 29.613C19.7548 30.6355 19.8617 31.6968 19.871 32.7673C19.8524 32.8153 19.8362 32.8657 19.8176 32.9137C19.8059 32.9457 19.7943 32.9755 19.7827 33.0075C19.7827 33.0098 19.7804 33.0143 19.7804 33.0166C19.7757 33.0853 19.7711 33.1539 19.7711 33.2225C19.7687 33.2294 19.7687 33.2385 19.7687 33.2454C19.7711 33.2797 19.7734 33.3117 19.7734 33.346V33.3483C19.7757 33.3506 19.7757 33.3506 19.7734 33.3529C19.778 33.4307 19.7827 33.5107 19.7873 33.5885C19.8989 33.3506 20.0524 33.2294 20.357 33.2362Z" fill="#D9596B"/>
<path d="M19.8167 32.9136C19.8353 32.8656 19.8516 32.8153 19.8702 32.7672C19.8609 31.6967 19.754 30.6354 19.4238 29.6129C18.9634 28.197 18.3519 26.8658 17.1591 25.8868C17.1336 25.8639 17.1057 25.841 17.0801 25.8204C17.0964 25.8845 17.1243 25.9417 17.1615 25.9966C17.187 26.0377 17.2173 26.0766 17.2521 26.1132C18.717 27.6641 19.4447 29.5214 19.647 31.6121C19.6842 32.0055 19.6656 32.415 19.7795 32.8015C19.7191 32.8381 19.7051 32.8908 19.7447 32.964C19.754 32.98 19.7656 32.9983 19.7795 33.0166C19.7795 33.0143 19.7819 33.0097 19.7819 33.0074C19.7935 32.9754 19.8051 32.9457 19.8167 32.9136Z" fill="#EDEBF1"/>
<path d="M33.582 39.7575C33.5867 39.7232 33.596 39.6889 33.6076 39.6569C33.582 39.6569 33.5588 39.6569 33.5332 39.6591C33.5541 39.6912 33.5704 39.7232 33.582 39.7575Z" fill="#E98897"/>
<path d="M33.679 44.5222C33.6372 44.465 33.6116 44.4055 33.5953 44.3438C33.5837 44.4124 33.5605 44.4764 33.5186 44.5382C33.5116 44.5428 33.507 44.5473 33.5 44.5519V44.5656C33.5674 44.5656 33.6325 44.5656 33.7 44.5679H33.7139V44.5565V44.5542C33.7023 44.5428 33.6907 44.5336 33.679 44.5222Z" fill="#E98897"/>
<path d="M23.5141 24.1003C23.5188 24.0843 23.5188 24.0683 23.5211 24.0523C23.5234 24.0317 23.5258 24.0134 23.5258 23.9928C23.4886 24.0363 23.4421 24.0729 23.3793 24.0957C23.377 24.1712 23.377 24.249 23.377 24.3245C23.3816 24.3496 23.3886 24.3771 23.3956 24.4022C23.4165 24.3702 23.4421 24.3382 23.47 24.3062C23.4932 24.2398 23.5072 24.1712 23.5141 24.1003Z" fill="#DF6B7D"/>
<path d="M24.6046 27.719C24.5999 27.7144 24.5976 27.7121 24.593 27.7076C24.5674 27.6938 24.5418 27.6824 24.5186 27.6664C24.5255 27.6961 24.5325 27.7259 24.5372 27.7556H24.5441C24.5744 27.7556 24.6046 27.7533 24.6371 27.751C24.6255 27.7396 24.6162 27.7281 24.6046 27.719Z" fill="#DF6B7D"/>
<path d="M36.1769 31.7265C36.4094 31.4658 36.6791 31.2576 36.9302 31.0243C37.1372 30.8321 37.3092 30.8299 37.5254 31.0266C37.8905 31.3628 38.2579 31.6968 38.6066 32.049C38.8019 32.2435 38.8856 32.4493 38.6927 32.7009C38.6043 32.8176 38.5624 32.9251 38.5996 33.0075C38.6066 33.0075 38.6159 33.0075 38.6229 33.0052C39.153 32.3578 39.146 32.3121 38.4811 31.7151C38.1718 31.436 37.8184 31.1913 37.565 30.8687C37.2929 30.5234 37.1441 30.6514 36.8814 30.8642C36.3699 31.2805 35.9537 31.7951 35.4863 32.2526C35.7886 32.0628 36.0467 31.8706 36.1769 31.7265Z" fill="#F06977"/>
<path d="M33.6535 37.1316H33.7139L33.7232 37.1247V37.0355C33.7023 37.0538 33.6837 37.079 33.6697 37.1041C33.6418 37.0881 33.6163 37.0836 33.5884 37.0881C33.5581 37.0904 33.5302 37.1041 33.5 37.1339C33.5209 37.1339 33.5419 37.1316 33.5628 37.1339C33.593 37.1316 33.6232 37.1316 33.6535 37.1316Z" fill="#E9909E"/>
<path d="M34.7791 28.3527C35.2069 28.8056 35.2116 28.8993 34.7628 29.3156C34.414 29.6405 34.0444 29.9447 33.7421 30.3152V30.3999C34.2652 30.0682 34.6326 29.5673 35.1046 29.1784C35.4022 28.9314 35.3487 28.6866 35.0581 28.4213C34.5931 27.9935 34.1699 27.52 33.7305 27.0671V27.2387C33.9979 27.6824 34.4303 27.9821 34.7791 28.3527Z" fill="#F06977"/>
<path d="M33.5866 30.5713C33.5563 30.5874 33.5284 30.6034 33.4982 30.6171C33.4912 30.6605 33.4866 30.704 33.4796 30.7475C32.6891 31.42 32.6891 32.2228 33.4796 32.8953L33.5052 32.9159C33.5098 32.9182 33.5145 32.9205 33.5191 32.9205C33.5657 32.9388 33.6122 32.9571 33.6587 32.9754C33.6842 32.9868 33.7121 32.996 33.7377 33.0074C33.7307 32.1725 33.7238 31.3376 33.7168 30.505C33.6796 30.5256 33.6401 30.5439 33.6005 30.5645C33.5959 30.5668 33.5912 30.5691 33.5866 30.5713Z" fill="#C34761"/>
<path d="M33.4724 37.2368V37.1567C32.9841 37.262 32.4959 37.3626 32.0076 37.4747C31.231 37.6531 31.0497 37.8544 31.045 38.5246C31.0404 39.2337 31.2403 39.4556 32.0006 39.6569C32.5005 39.7918 32.9888 39.8101 33.4817 39.6454V39.6248C33.4794 38.8311 33.4747 38.0328 33.4724 37.2368Z" fill="#C34761"/>
</svg>
