<svg width="57" height="82" viewBox="0 0 57 82" fill="none" xmlns="http://www.w3.org/2000/svg">
<path d="M34.9825 10.5175L40.6656 22.54L33.4731 25.7556L27.8687 13.8906C25.3881 8.65373 19.1275 6.40935 13.8906 8.88998C8.65373 11.3575 6.40935 17.6312 8.87685 22.8681L16.0694 38.0669H7.87935C7.70873 38.0669 7.5381 38.08 7.36748 38.0931L1.7631 26.2281C-2.56815 17.0669 1.35623 6.09435 10.5175 1.7631C19.6787 -2.56815 30.6512 1.35623 34.9825 10.5175Z" fill="#19A7CE"/>
<path d="M23.6292 5.25636C17.0667 2.63136 10.5042 5.25636 6.56668 10.5064C2.62918 17.0689 7.87918 26.2564 6.56668 32.8189C6.56668 33.4502 6.25824 34.0789 5.74243 34.6551L7.36731 38.0951C7.53793 38.082 7.70855 38.0689 7.87918 38.0689H16.0692L8.87668 22.8701C6.40918 17.6332 8.65356 11.3595 13.8904 8.89199C19.1273 6.41136 25.3879 8.65574 27.8686 13.8926L33.4729 25.7576L37.5272 23.9451C33.9691 15.8049 30.1917 7.88136 23.6292 5.25636Z" fill="#19A7CE"/>
<path d="M29.4035 67.8311C29.6266 68.8549 28.8523 69.8261 27.8022 69.8261H22.0797C21.0297 69.8261 20.2554 68.8549 20.4785 67.8311L22.7097 57.8168C20.8985 56.8718 19.7304 54.8768 20.111 52.6324C20.4391 50.6374 22.0535 48.9968 24.0485 48.6424C27.146 48.0912 29.8498 50.4668 29.8498 53.4724C29.8498 55.3624 28.7604 56.9899 27.1723 57.8168L29.4035 67.8311Z" fill="white"/>
<path d="M16.0689 38.0664H42.0039C44.9045 38.0664 47.2539 40.4158 47.2539 43.3164V76.1289C47.2539 79.0295 44.9045 81.3789 42.0039 81.3789H7.87891C4.97828 81.3789 2.62891 79.0295 2.62891 76.1289V43.3164C2.62891 40.5864 4.70266 38.342 7.36703 38.0927C7.53766 38.0795 7.70828 38.0664 7.87891 38.0664H16.0689ZM27.8027 69.8289C28.8527 69.8289 29.627 68.8577 29.4039 67.8339L27.1727 57.8195C28.7608 56.9927 29.8502 55.3652 29.8502 53.4752C29.8502 50.4695 27.1464 48.0939 24.0489 48.6452C22.0539 48.9995 20.4395 50.6402 20.1114 52.6352C19.7308 54.8795 20.8989 56.8745 22.7102 57.8195L20.4789 67.8339C20.2558 68.8577 21.0302 69.8289 22.0802 69.8289H27.8027Z" fill="#FFC32C"/>
<path d="M47.2552 43.3164V76.1289C47.2552 79.0295 44.9058 81.3789 42.0052 81.3789H7.88016C5.43891 81.3789 3.37828 79.712 2.80078 77.4414H36.7552C39.6558 77.4414 42.0052 75.092 42.0052 72.1914V39.3789C42.0052 38.9195 41.9527 38.4864 41.8345 38.0664H42.0052C44.9058 38.0664 47.2552 40.4158 47.2552 43.3164Z" fill="#FFA300"/>
<path d="M6.56641 46.2774V43.6603C6.56641 42.7455 7.30797 42.0039 8.22278 42.0039H11.2757C12.8139 42.0039 13.5213 43.9175 12.3532 44.9177L9.30034 47.5348C8.22672 48.4562 6.56641 47.6923 6.56641 46.2774Z" fill="#FFEDC5"/>
<path d="M43.3164 18.3789C42.5919 18.3789 42.0039 17.7922 42.0039 17.0664V10.5039C42.0039 9.77809 42.5919 9.19141 43.3164 9.19141C44.0409 9.19141 44.6289 9.77809 44.6289 10.5039V17.0664C44.6289 17.7922 44.0409 18.3789 43.3164 18.3789Z" fill="#FFC32C"/>
<path d="M47.2542 19.6917C46.9182 19.6917 46.5822 19.5631 46.3263 19.3072C45.8131 18.794 45.8131 17.9645 46.3263 17.4513L51.5763 12.2013C52.0895 11.6881 52.919 11.6881 53.4322 12.2013C53.9454 12.7145 53.9454 13.544 53.4322 14.0572L48.1822 19.3072C47.9262 19.5631 47.5902 19.6917 47.2542 19.6917Z" fill="#FFC32C"/>
<path d="M55.1289 23.6289H49.8789C49.1544 23.6289 48.5664 23.0422 48.5664 22.3164C48.5664 21.5906 49.1544 21.0039 49.8789 21.0039H55.1289C55.8534 21.0039 56.4414 21.5906 56.4414 22.3164C56.4414 23.0422 55.8534 23.6289 55.1289 23.6289Z" fill="#FFC32C"/>
</svg>
