<svg width="49" height="50" viewBox="0 0 49 50" fill="none" xmlns="http://www.w3.org/2000/svg">
<g clip-path="url(#clip0_628_2043)">
<path d="M32.6744 37.9148L30.0053 43.5985C29.1494 45.4213 28.1161 47.1334 26.9318 48.712L24.3872 40.734L26.9849 35.1152C27.5064 33.9859 28.5775 33.3078 29.7103 33.2578C30.2123 33.2354 30.7267 33.3361 31.2101 33.5768C32.779 34.3556 33.4352 36.2965 32.6744 37.9148V37.9148Z" fill="url(#paint0_linear_628_2043)"/>
<path d="M37.8137 36.4873L34.3499 41.6931C32.3607 44.6816 29.8666 47.2289 27.0177 49.2357L25.8472 42.0971C26.8899 41.1791 27.8168 40.1144 28.5985 38.9238L31.9216 33.8631L32.5949 32.8377C33.576 31.3433 35.5517 30.9541 36.9956 31.9715C38.4335 32.9847 38.8008 35.0053 37.8137 36.4873V36.4873Z" fill="url(#paint1_linear_628_2043)"/>
<path d="M42.0325 31.3563C40.6806 30.2114 38.6793 30.4197 37.5751 31.8197L33.0769 37.519C31.3265 39.7379 29.0436 41.4056 26.4868 42.3871L27.0294 49.3967C31.4896 47.6117 35.4764 44.67 38.5706 40.8001L42.4638 35.9291C43.5725 34.5424 43.3793 32.4958 42.0325 31.3563V31.3563Z" fill="url(#paint2_linear_628_2043)"/>
<path d="M47.4231 31.898C46.164 30.6454 44.1529 30.6881 42.9441 31.9927L38.0205 37.3033C36.3234 39.1347 34.2429 40.4994 31.9661 41.321C32.2779 40.7066 32.3908 39.9844 32.2306 39.2632C32.2265 39.2449 32.2117 39.1785 32.2117 39.1785C31.8269 37.5813 30.2694 36.5909 28.7035 36.9625L26.8094 37.4119C25.0166 37.8373 23.1848 37.9948 21.369 37.8885C20.266 37.8239 19.1811 37.5617 18.1657 37.1122C17.1669 36.6701 16.2017 36.1402 15.2814 35.5254C13.1565 34.1054 10.7108 33.3839 8.25408 33.3839C7.67325 33.3839 6.63264 33.6415 5.48169 33.9937C2.22818 34.9891 0 38.0836 0 41.5898V41.7973C0 46.3274 3.55399 50 7.93795 50H15.5083L23.4954 49.8569C30.9551 49.7242 38.0595 46.547 43.2435 41.0264L47.5001 36.4917C48.7123 35.2009 48.6777 33.1448 47.4231 31.898V31.898Z" fill="url(#paint3_linear_628_2043)"/>
<path d="M32.2118 39.1783C31.827 37.5812 30.2694 36.5908 28.7036 36.9623L26.8095 37.4117C23.0563 38.3022 19.1322 38.0191 15.5408 36.5985C15.4995 36.5821 15.4581 36.5661 15.4168 36.5502C10.7538 34.762 7.47437 41.344 11.5903 44.2294L12.0434 44.547L16.0725 44.6434C20.0596 44.7387 24.0427 44.3205 27.9298 43.3982L29.9744 42.9131C31.5558 42.5379 32.5935 40.8972 32.2304 39.2631C32.2266 39.2447 32.2118 39.1783 32.2118 39.1783V39.1783Z" fill="url(#paint4_linear_628_2043)"/>
<path d="M0.00455408 41.5704C0.00246679 41.646 0 41.7215 0 41.7975C0 46.3277 3.55399 50 7.93795 50H15.5083L23.4954 49.8569C30.7063 49.7286 37.5849 46.7551 42.7181 41.5704H0.00455408Z" fill="url(#paint5_linear_628_2043)"/>
<path d="M8.20437 20.9717C11.5459 28.5184 17.6011 31.632 23.0199 30.8409C23.4269 30.7815 23.8186 30.7013 24.1939 30.6014C23.3742 24.7231 18.9695 19.2628 11.431 17.8404C10.0809 17.5857 8.8037 17.5414 7.61955 17.6651C7.33568 17.6948 7.18397 17.9448 7.26215 18.2538C7.48748 19.1443 7.79782 20.0536 8.20437 20.9717V20.9717Z" fill="url(#paint6_linear_628_2043)"/>
<path d="M10.9099 18.6854C9.68437 18.2286 8.55723 17.9409 7.53921 17.7951C7.29518 17.7602 7.20315 17.9133 7.32241 18.1558C7.66606 18.8543 8.0874 19.5837 8.59442 20.3387C12.7623 26.5453 18.5823 30.0404 23.2036 30.5426C23.5508 30.5803 23.881 30.5997 24.1937 30.6014C22.5106 26.1234 17.753 21.2358 10.9099 18.6854Z" fill="url(#paint7_linear_628_2043)"/>
<path d="M11.4308 17.8404C10.0807 17.5857 8.80349 17.5414 7.61934 17.6651C7.49922 17.6776 7.40473 17.7313 7.33936 17.8105L24.1937 30.6014C23.374 24.7231 18.9693 19.2628 11.4308 17.8404V17.8404Z" fill="url(#paint8_linear_628_2043)"/>
<path d="M17.2967 20.0757L13.875 28.381C16.7278 30.4968 19.9741 31.2856 23.0195 30.841C23.4266 30.7816 23.8182 30.7014 24.1935 30.6015C23.6167 26.4657 21.2654 22.537 17.2967 20.0757V20.0757Z" fill="url(#paint9_linear_628_2043)"/>
<path d="M40.1828 20.9717C36.8413 28.5184 30.7861 31.632 25.3673 30.8409C24.9602 30.7815 24.5686 30.7013 24.1934 30.6014C25.0131 24.7231 29.4177 19.2628 36.9563 17.8404C38.3064 17.5857 39.5836 17.5414 40.7677 17.6651C41.0516 17.6948 41.2033 17.9448 41.1251 18.2538C40.8997 19.1443 40.5894 20.0536 40.1828 20.9717V20.9717Z" fill="url(#paint10_linear_628_2043)"/>
<path d="M37.4771 18.6854C38.7027 18.2286 39.8298 17.9409 40.8478 17.7951C41.0918 17.7602 41.1839 17.9133 41.0646 18.1558C40.721 18.8543 40.2996 19.5837 39.7926 20.3387C35.6248 26.5453 29.8047 30.0404 25.1834 30.5426C24.8362 30.5803 24.506 30.5997 24.1934 30.6014C25.8764 26.1234 30.6341 21.2358 37.4771 18.6854V18.6854Z" fill="url(#paint11_linear_628_2043)"/>
<path d="M36.9563 17.8404C38.3064 17.5857 39.5836 17.5414 40.7677 17.6651C40.8879 17.6776 40.9824 17.7313 41.0477 17.8105L24.1934 30.6014C25.0131 24.7231 29.4177 19.2628 36.9563 17.8404V17.8404Z" fill="url(#paint12_linear_628_2043)"/>
<path d="M31.09 20.0757L34.5118 28.381C31.659 30.4968 28.4126 31.2856 25.3673 30.841C24.9602 30.7816 24.5686 30.7014 24.1934 30.6015C24.7701 26.4657 27.1214 22.537 31.09 20.0757V20.0757Z" fill="url(#paint13_linear_628_2043)"/>
<path d="M18.4121 22.1637C18.4121 24.8984 19.0705 27.0611 20.2144 28.8748C22.0849 31.8404 26.3031 31.8404 28.1735 28.8748C29.3174 27.0611 29.9758 24.8984 29.9758 22.1637C29.9758 17.4343 28.0068 12.0541 24.9621 9.23539C24.5257 8.83137 23.8621 8.83137 23.4257 9.23539C20.3811 12.0541 18.4121 17.4343 18.4121 22.1637V22.1637Z" fill="url(#paint14_linear_628_2043)"/>
<path d="M20.5361 22.1637C20.5361 24.8984 20.9526 27.0611 21.6764 28.8748C22.8597 31.8404 25.5284 31.8404 26.7117 28.8748C27.4355 27.0611 27.852 24.8984 27.852 22.1637C27.852 17.4343 26.6063 12.0541 24.6801 9.23539C24.404 8.83137 23.9841 8.83137 23.7081 9.23539C21.7818 12.0541 20.5361 17.4343 20.5361 22.1637V22.1637Z" fill="url(#paint15_linear_628_2043)"/>
<path d="M28.1739 28.8748C29.3179 27.0611 29.9762 24.8985 29.9762 22.1637C29.9762 17.4343 28.0072 12.0541 24.9626 9.23541C24.7443 9.03335 24.4693 8.93237 24.1943 8.93237V31.099C25.7165 31.099 27.2386 30.3577 28.1739 28.8748Z" fill="url(#paint16_linear_628_2043)"/>
<path d="M29.4455 6.88092C28.5618 6.50386 28.1411 5.45798 28.506 4.54484L29.8797 1.10661C30.2446 0.193468 31.2568 -0.24114 32.1404 0.135821C33.0241 0.512782 33.4448 1.55876 33.0799 2.4719L31.7062 5.91013C31.3414 6.82327 30.3291 7.25798 29.4455 6.88092Z" fill="url(#paint17_linear_628_2043)"/>
<path d="M4.94492 11.8144C5.30981 10.9013 6.32196 10.4666 7.20564 10.8436L10.533 12.2631C11.4166 12.6401 11.8373 13.6861 11.4724 14.5992C11.1075 15.5124 10.0954 15.947 9.21171 15.57L5.88439 14.1505C5.0007 13.7734 4.58012 12.7275 4.94492 11.8144V11.8144Z" fill="url(#paint18_linear_628_2043)"/>
<path d="M36.903 14.5689C36.5361 13.6566 36.9544 12.6096 37.8373 12.2305L41.1614 10.8031C42.0442 10.424 43.0574 10.8562 43.4243 11.7685C43.7911 12.6807 43.3728 13.7277 42.49 14.1068L39.1659 15.5342C38.2831 15.9134 37.2699 15.4812 36.903 14.5689V14.5689Z" fill="url(#paint19_linear_628_2043)"/>
<path d="M16.2025 0.154753C17.0854 -0.224365 18.0985 0.20789 18.4654 1.12014L19.8468 4.55505C20.2137 5.4673 19.7954 6.51426 18.9126 6.89338C18.0297 7.2725 17.0165 6.84024 16.6497 5.92799L15.2683 2.49309C14.9014 1.58083 15.3196 0.533871 16.2025 0.154753V0.154753Z" fill="url(#paint20_linear_628_2043)"/>
</g>
<defs>
<linearGradient id="paint0_linear_628_2043" x1="25.0034" y1="37.9916" x2="27.901" y2="40.0741" gradientUnits="userSpaceOnUse">
<stop stop-color="#FFEEE6"/>
<stop offset="1" stop-color="#FFB09E"/>
</linearGradient>
<linearGradient id="paint1_linear_628_2043" x1="28.5999" y1="37.0222" x2="31.166" y2="39.5247" gradientUnits="userSpaceOnUse">
<stop stop-color="#FFEEE6"/>
<stop offset="1" stop-color="#FFB09E"/>
</linearGradient>
<linearGradient id="paint2_linear_628_2043" x1="31.7793" y1="36.8853" x2="34.1232" y2="39.6122" gradientUnits="userSpaceOnUse">
<stop stop-color="#FFEEE6"/>
<stop offset="1" stop-color="#FFB09E"/>
</linearGradient>
<linearGradient id="paint3_linear_628_2043" x1="20.4918" y1="26.5825" x2="28.2947" y2="49.9315" gradientUnits="userSpaceOnUse">
<stop stop-color="#FFEEE6"/>
<stop offset="1" stop-color="#FFB09E"/>
</linearGradient>
<linearGradient id="paint4_linear_628_2043" x1="21.7849" y1="41.4614" x2="28.8782" y2="49.5652" gradientUnits="userSpaceOnUse">
<stop stop-color="#FFDECF" stop-opacity="0"/>
<stop offset="1" stop-color="white"/>
</linearGradient>
<linearGradient id="paint5_linear_628_2043" x1="21.359" y1="45.1251" x2="21.359" y2="50.2713" gradientUnits="userSpaceOnUse">
<stop stop-color="#F89580" stop-opacity="0"/>
<stop offset="0.9972" stop-color="#C5715A"/>
</linearGradient>
<linearGradient id="paint6_linear_628_2043" x1="7.26941" y1="19.8707" x2="26.5415" y2="29.2771" gradientUnits="userSpaceOnUse">
<stop stop-color="#A2E62E"/>
<stop offset="0.1232" stop-color="#97DF30"/>
<stop offset="0.3396" stop-color="#7ACB36"/>
<stop offset="0.6236" stop-color="#4AAC3F"/>
<stop offset="0.9613" stop-color="#09804C"/>
<stop offset="1" stop-color="#017B4E"/>
</linearGradient>
<linearGradient id="paint7_linear_628_2043" x1="15.108" y1="21.6059" x2="18.787" y2="37.2582" gradientUnits="userSpaceOnUse">
<stop stop-color="#017B4E" stop-opacity="0"/>
<stop offset="0.477" stop-color="#01754A" stop-opacity="0.477"/>
<stop offset="1" stop-color="#026841"/>
</linearGradient>
<linearGradient id="paint8_linear_628_2043" x1="15.5168" y1="21.0415" x2="16.2549" y2="30.8787" gradientUnits="userSpaceOnUse">
<stop stop-color="#017B4E" stop-opacity="0"/>
<stop offset="0.477" stop-color="#01754A" stop-opacity="0.477"/>
<stop offset="1" stop-color="#026841"/>
</linearGradient>
<linearGradient id="paint9_linear_628_2043" x1="16.8875" y1="24.9005" x2="22.8862" y2="27.6947" gradientUnits="userSpaceOnUse">
<stop stop-color="#017B4E" stop-opacity="0"/>
<stop offset="0.8532" stop-color="#026B43" stop-opacity="0.853"/>
<stop offset="1" stop-color="#026841"/>
</linearGradient>
<linearGradient id="paint10_linear_628_2043" x1="41.123" y1="19.8801" x2="21.8509" y2="29.2865" gradientUnits="userSpaceOnUse">
<stop stop-color="#A2E62E"/>
<stop offset="0.1232" stop-color="#97DF30"/>
<stop offset="0.3396" stop-color="#7ACB36"/>
<stop offset="0.6236" stop-color="#4AAC3F"/>
<stop offset="0.9613" stop-color="#09804C"/>
<stop offset="1" stop-color="#017B4E"/>
</linearGradient>
<linearGradient id="paint11_linear_628_2043" x1="33.2751" y1="21.6082" x2="29.5961" y2="37.2605" gradientUnits="userSpaceOnUse">
<stop stop-color="#017B4E" stop-opacity="0"/>
<stop offset="0.477" stop-color="#01754A" stop-opacity="0.477"/>
<stop offset="1" stop-color="#026841"/>
</linearGradient>
<linearGradient id="paint12_linear_628_2043" x1="32.8664" y1="21.0439" x2="32.1282" y2="30.8811" gradientUnits="userSpaceOnUse">
<stop stop-color="#017B4E" stop-opacity="0"/>
<stop offset="0.477" stop-color="#01754A" stop-opacity="0.477"/>
<stop offset="1" stop-color="#026841"/>
</linearGradient>
<linearGradient id="paint13_linear_628_2043" x1="31.5044" y1="24.9099" x2="25.5058" y2="27.704" gradientUnits="userSpaceOnUse">
<stop stop-color="#017B4E" stop-opacity="0"/>
<stop offset="0.8532" stop-color="#026B43" stop-opacity="0.853"/>
<stop offset="1" stop-color="#026841"/>
</linearGradient>
<linearGradient id="paint14_linear_628_2043" x1="19.9739" y1="16.1334" x2="29.2392" y2="25.8795" gradientUnits="userSpaceOnUse">
<stop stop-color="#A2E62E"/>
<stop offset="0.1232" stop-color="#97DF30"/>
<stop offset="0.3396" stop-color="#7ACB36"/>
<stop offset="0.6236" stop-color="#4AAC3F"/>
<stop offset="0.9613" stop-color="#09804C"/>
<stop offset="1" stop-color="#017B4E"/>
</linearGradient>
<linearGradient id="paint15_linear_628_2043" x1="19.849" y1="16.022" x2="38.5309" y2="33.3945" gradientUnits="userSpaceOnUse">
<stop stop-color="#017B4E" stop-opacity="0"/>
<stop offset="0.477" stop-color="#01754A" stop-opacity="0.477"/>
<stop offset="1" stop-color="#026841"/>
</linearGradient>
<linearGradient id="paint16_linear_628_2043" x1="26.1877" y1="19.0825" x2="19.7069" y2="33.3748" gradientUnits="userSpaceOnUse">
<stop stop-color="#017B4E" stop-opacity="0"/>
<stop offset="0.477" stop-color="#01754A" stop-opacity="0.477"/>
<stop offset="1" stop-color="#026841"/>
</linearGradient>
<linearGradient id="paint17_linear_628_2043" x1="29.2423" y1="2.85203" x2="33.7266" y2="4.64612" gradientUnits="userSpaceOnUse">
<stop stop-color="#FEE97D"/>
<stop offset="0.1454" stop-color="#FEE673"/>
<stop offset="0.3904" stop-color="#FDDF59"/>
<stop offset="0.7025" stop-color="#FBD32F"/>
<stop offset="1" stop-color="#FAC600"/>
</linearGradient>
<linearGradient id="paint18_linear_628_2043" x1="8.80966" y1="11.4269" x2="6.86767" y2="15.9728" gradientUnits="userSpaceOnUse">
<stop stop-color="#FEE97D"/>
<stop offset="0.1454" stop-color="#FEE673"/>
<stop offset="0.3904" stop-color="#FDDF59"/>
<stop offset="0.7025" stop-color="#FBD32F"/>
<stop offset="1" stop-color="#FAC600"/>
</linearGradient>
<linearGradient id="paint19_linear_628_2043" x1="39.7735" y1="11.744" x2="41.7255" y2="16.2846" gradientUnits="userSpaceOnUse">
<stop stop-color="#FEE97D"/>
<stop offset="0.1454" stop-color="#FEE673"/>
<stop offset="0.3904" stop-color="#FDDF59"/>
<stop offset="0.7025" stop-color="#FBD32F"/>
<stop offset="1" stop-color="#FAC600"/>
</linearGradient>
<linearGradient id="paint20_linear_628_2043" x1="19.0692" y1="3.21799" x2="14.5892" y2="5.02173" gradientUnits="userSpaceOnUse">
<stop stop-color="#FEE97D"/>
<stop offset="0.1454" stop-color="#FEE673"/>
<stop offset="0.3904" stop-color="#FDDF59"/>
<stop offset="0.7025" stop-color="#FBD32F"/>
<stop offset="1" stop-color="#FAC600"/>
</linearGradient>
<clipPath id="clip0_628_2043">
<rect width="48.3871" height="50" fill="white"/>
</clipPath>
</defs>
</svg>
