<svg width="22" height="25" viewBox="0 0 22 25" fill="none" xmlns="http://www.w3.org/2000/svg">
<path fill-rule="evenodd" clip-rule="evenodd" d="M10.5196 0C6.5914 0 3.4069 2.98587 3.4069 6.66914V8.94484C3.4069 9.00044 3.4077 9.05594 3.4091 9.11114H3.3514C1.5005 9.11114 0 10.6116 0 12.4625V21.4036C0 23.2545 1.5005 24.755 3.3514 24.755H17.692C19.543 24.755 21.0435 23.2545 21.0435 21.4036V12.4626C21.0435 10.6116 19.543 9.11114 17.692 9.11114H17.6302C17.6316 9.05594 17.6323 9.00044 17.6323 8.94484V6.66914C17.6323 2.98586 14.4479 0 10.5196 0ZM14.1277 9.11114C14.1305 9.05604 14.132 9.00064 14.132 8.94484V6.66914C14.132 4.79849 12.5147 3.28206 10.5196 3.28206C8.5246 3.28206 6.9073 4.79849 6.9073 6.66914V8.94484C6.9073 9.00064 6.9087 9.05604 6.9116 9.11114H14.1277Z" fill="#AFAFAF"/>
</svg>
