<svg width="55" height="63" viewBox="0 0 55 63" fill="none" xmlns="http://www.w3.org/2000/svg">
<circle cx="27.5" cy="35.5" r="27.5" fill="#B5D3AD"/>
<g clip-path="url(#clip0_719_2063)">
<path d="M47.8946 29.5267C47.8946 29.5928 47.8935 29.6602 47.8935 29.7274C47.8882 30.2986 47.8519 30.8635 47.7859 31.4208C47.6228 32.811 47.2774 34.1499 46.7744 35.412C46.751 35.4707 46.7275 35.5294 46.703 35.5881C46.6785 35.6458 46.6539 35.7045 46.6305 35.7632C46.6049 35.8208 46.5804 35.8796 46.5548 35.9372C46.542 35.965 46.5292 35.9927 46.5175 36.0215C46.5015 36.0567 46.4856 36.0921 46.4695 36.1273C46.4439 36.1838 46.4173 36.2415 46.3907 36.2991C44.2473 40.8498 40.0043 44.2334 34.9033 45.0673C34.8363 45.078 34.7691 45.0887 34.702 45.0983C34.4473 45.1356 34.1903 45.1677 33.9325 45.1934C33.4742 45.2372 33.0105 45.2606 32.5406 45.2639C23.9661 45.3142 17 38.3665 17 29.7883C17 29.6506 17.0021 29.5129 17.0053 29.3762C17.0074 29.3078 17.0096 29.2395 17.0127 29.1711C17.0149 29.1209 17.017 29.0707 17.0202 29.0205C17.0341 28.7301 17.0574 28.4419 17.0895 28.1557C17.1034 28.0264 17.1193 27.8972 17.1364 27.7692C17.1673 27.5428 17.2035 27.3175 17.2441 27.0933C17.2568 27.0282 17.2686 26.9619 17.2824 26.8958C17.3059 26.774 17.3314 26.6523 17.3581 26.5317C17.3698 26.4804 17.3816 26.4292 17.3943 26.3779C17.4998 25.9262 17.6267 25.4821 17.7727 25.0454C17.7929 24.9835 17.8143 24.9215 17.8366 24.8596C17.8537 24.8083 17.8717 24.7581 17.8909 24.7069C17.9293 24.599 17.9698 24.4922 18.0113 24.3854C18.0305 24.3342 18.0507 24.284 18.071 24.2338C18.104 24.1505 18.1381 24.0672 18.1733 23.9839C18.201 23.9178 18.2298 23.8515 18.2586 23.7854C18.2873 23.7192 18.3161 23.654 18.346 23.5889C18.38 23.5142 18.4153 23.4395 18.4494 23.3658C18.476 23.3103 18.5027 23.2548 18.5304 23.1992C18.5623 23.1342 18.5943 23.07 18.6263 23.006C18.6593 22.942 18.6913 22.8778 18.7255 22.8149C18.7585 22.7509 18.7915 22.6878 18.8268 22.6248C18.8608 22.5619 18.895 22.4988 18.9302 22.4369C18.9611 22.3814 18.993 22.3259 19.025 22.2714C19.2126 21.9447 19.4129 21.6254 19.625 21.3137C19.658 21.2635 19.6921 21.2133 19.7274 21.1642C20.3818 20.2235 21.1374 19.3566 21.9784 18.5771C22.2918 18.2877 22.6167 18.0101 22.9525 17.7453C28.1291 13.6644 30.475 6.9473 28.9765 0.521687C28.8828 0.119129 29.2483 0.00277585 29.4721 0.055103C29.4827 0.0582937 29.4934 0.0614844 29.504 0.0646751C29.5093 0.0668022 29.5157 0.0689293 29.5211 0.0699928C29.5936 0.0945611 29.666 0.118066 29.7375 0.143698C29.9251 0.207724 30.1116 0.276111 30.296 0.346518C30.3493 0.366832 30.4026 0.38821 30.4548 0.408418C30.5188 0.43405 30.5828 0.459681 30.6456 0.485313C30.6989 0.506691 30.7512 0.528068 30.8034 0.550403C30.8641 0.576035 30.9238 0.601667 30.9835 0.627299C31.0506 0.656121 31.1178 0.686007 31.1849 0.715893C31.3385 0.78428 31.4908 0.854688 31.6422 0.927329C31.7093 0.959343 31.7765 0.992419 31.8425 1.0256C31.9705 1.08857 32.0983 1.15376 32.2251 1.21991C32.2901 1.25406 32.3541 1.28713 32.418 1.32244C32.4959 1.36413 32.5726 1.40572 32.6493 1.44954C33.1086 1.70362 33.5594 1.97802 34.0029 2.27061C34.0807 2.32187 34.1574 2.37313 34.2342 2.42546C34.8395 2.83653 35.43 3.2828 36.0034 3.75906C36.0749 3.81777 36.1452 3.87754 36.2155 3.93742C36.4404 4.12854 36.6631 4.32392 36.8828 4.52472C36.9521 4.58874 37.0213 4.65288 37.0907 4.7169C37.4477 5.04895 37.7973 5.39386 38.1405 5.75047C38.1991 5.81237 38.2588 5.87438 38.3175 5.93734C38.3921 6.01636 38.4667 6.09538 38.5402 6.17547C38.5978 6.23843 38.6553 6.3015 38.7128 6.36447C38.7789 6.43711 38.844 6.50858 38.9089 6.58228C38.9814 6.66343 39.0528 6.74458 39.1242 6.8268C39.1743 6.88444 39.2245 6.94315 39.2746 7.00079C39.3449 7.08301 39.4142 7.16522 39.4835 7.24743C39.5463 7.32326 39.6093 7.39803 39.6711 7.47376C39.7339 7.54959 39.7969 7.62649 39.8576 7.70328C39.9162 7.77485 39.9738 7.84739 40.0302 7.92003C40.0675 7.96491 40.1027 8.00969 40.1379 8.05563C40.188 8.11753 40.237 8.1806 40.2849 8.24463C40.3255 8.29695 40.3659 8.34928 40.4053 8.40161C40.5257 8.55965 40.6441 8.71876 40.7624 8.87893C40.8817 9.0423 41 9.20566 41.1162 9.37115C41.1727 9.45017 41.227 9.5292 41.2824 9.60822C41.3389 9.68937 41.3954 9.77264 41.4519 9.85486C41.5084 9.93707 41.5638 10.0203 41.6192 10.1036C41.664 10.1687 41.7076 10.235 41.7514 10.3011C42.5891 11.5728 43.3522 12.9117 44.0333 14.2924C44.1132 14.4547 44.1921 14.617 44.2699 14.7803C44.6536 15.5844 45.0085 16.4012 45.3346 17.2265C45.3708 17.3183 45.4071 17.4102 45.4423 17.502C45.4785 17.5938 45.5137 17.6856 45.5478 17.7785C45.583 17.8703 45.6171 17.9622 45.6512 18.055C45.6853 18.1468 45.7195 18.2387 45.7525 18.3315C45.857 18.6209 45.9582 18.9113 46.0552 19.2018C46.0818 19.2829 46.1095 19.363 46.1351 19.4441C46.166 19.537 46.1969 19.6299 46.2257 19.7228C46.2555 19.8167 46.2853 19.9097 46.3141 20.0025C46.393 20.2566 46.4697 20.5108 46.5422 20.7649C46.556 20.814 46.5699 20.8621 46.5838 20.91C46.604 20.9806 46.6232 21.051 46.6434 21.1215C46.669 21.2154 46.6946 21.3094 46.7202 21.4023C46.7447 21.4951 46.7692 21.5891 46.7938 21.682C46.8204 21.7802 46.8449 21.8784 46.8695 21.9767C46.9121 22.1464 46.9536 22.3162 46.9953 22.486C47.0198 22.5917 47.0443 22.6975 47.0688 22.8032C47.1093 22.9847 47.1498 23.1651 47.1882 23.3467C47.1892 23.352 47.1903 23.3573 47.1913 23.3627C47.2307 23.5485 47.2681 23.7333 47.3043 23.9179C47.4312 24.5703 47.5388 25.2205 47.6251 25.8655C47.6379 25.9583 47.6497 26.0502 47.6613 26.142C47.6656 26.1783 47.6698 26.2136 47.6741 26.2499C47.6954 26.4185 47.7146 26.5862 47.7316 26.7538C47.7422 26.8477 47.7519 26.9417 47.7604 27.0346C47.7785 27.2214 47.7955 27.4083 47.8094 27.593C47.8232 27.7735 47.8361 27.9539 47.8467 28.1333C47.8531 28.2412 47.8594 28.349 47.8638 28.4558C47.868 28.5359 47.8712 28.617 47.8755 28.6971V28.7024C47.8787 28.79 47.8818 28.8775 47.885 28.9641V28.9865C47.8871 29.073 47.8893 29.1594 47.8914 29.246C47.8935 29.3398 47.8946 29.4338 47.8946 29.5267Z" fill="url(#paint0_radial_719_2063)"/>
<path d="M40.8978 36.5316C39.9839 41.0243 35.582 43.9985 31.1111 43.0185C26.676 42.0464 23.8832 37.6461 24.8785 33.215C25.3904 30.9365 26.8514 29.1057 28.7507 28.0041C31.9644 26.1399 33.9582 22.8299 34.4643 19.1443C34.4652 19.1382 34.4661 19.1354 34.4672 19.1359C39.8202 22.0469 42.1248 30.4993 40.8978 36.5316Z" fill="url(#paint1_radial_719_2063)"/>
<path d="M47.8946 29.5267C47.8946 29.5928 47.8935 29.6602 47.8935 29.7274C47.8861 30.2997 47.8487 30.8656 47.7827 31.4229C47.6175 32.8131 47.2743 34.152 46.7744 35.412C46.751 35.4707 46.7275 35.5294 46.703 35.5881C46.6785 35.6458 46.6539 35.7045 46.6305 35.7632C46.6049 35.8208 46.5804 35.8796 46.5548 35.9372C46.542 35.965 46.5292 35.9927 46.5175 36.0215C46.5015 36.0567 46.4856 36.0921 46.4695 36.1273C46.4439 36.1838 46.4173 36.2415 46.3907 36.2991C44.2526 40.8562 40.0236 44.2388 34.9033 45.0673C34.8363 45.078 34.7691 45.0887 34.702 45.0983C34.4473 45.1367 34.1903 45.1677 33.9325 45.1934C33.4742 45.2372 33.0105 45.2606 32.5406 45.2639C23.9661 45.3142 17 38.3665 17 29.7883C17 29.6506 17.0021 29.5129 17.0053 29.3762C17.0074 29.3078 17.0096 29.2395 17.0127 29.1711C17.0149 29.1209 17.017 29.0707 17.0202 29.0205C17.0341 28.7301 17.0574 28.4419 17.0895 28.1557C17.1034 28.0264 17.1193 27.8972 17.1364 27.7692C17.1673 27.5428 17.2035 27.3175 17.2441 27.0933C17.2568 27.0282 17.2686 26.9619 17.2824 26.8958C17.3059 26.774 17.3314 26.6523 17.3581 26.5317C17.3698 26.4804 17.3816 26.4292 17.3943 26.3779C17.4998 25.9262 17.6267 25.4821 17.7727 25.0454C17.7929 24.9835 17.8143 24.9215 17.8366 24.8596C17.8537 24.8083 17.8717 24.7581 17.8909 24.7069C17.9293 24.599 17.9698 24.4922 18.0113 24.3854C18.0305 24.3342 18.0507 24.284 18.071 24.2338C18.104 24.1505 18.1381 24.0672 18.1733 23.9839C18.201 23.9178 18.2298 23.8515 18.2586 23.7854C18.2873 23.7192 18.3161 23.654 18.346 23.5889C18.38 23.5142 18.4153 23.4395 18.4494 23.3658C18.476 23.3103 18.5027 23.2548 18.5304 23.1992C18.5623 23.1342 18.5943 23.07 18.6263 23.006C18.6593 22.942 18.6913 22.8778 18.7255 22.8149C18.7585 22.7509 18.7915 22.6878 18.8268 22.6248C18.8608 22.5619 18.895 22.4988 18.9302 22.4369C18.9611 22.3814 18.993 22.3259 19.025 22.2714C19.2126 21.9447 19.4129 21.6254 19.625 21.3137C19.658 21.2635 19.6921 21.2133 19.7274 21.1642C20.3818 20.2235 21.1374 19.3566 21.9784 18.5771C22.2918 18.2877 22.6167 18.0101 22.9525 17.7453C28.1291 13.6644 30.475 6.9473 28.9765 0.521687C28.8828 0.119129 29.2483 0.00277585 29.4721 0.055103C29.4827 0.0582937 29.4934 0.0614844 29.504 0.0646751C29.5093 0.0668022 29.5157 0.0689293 29.5211 0.0699928C29.5936 0.0945611 29.666 0.118066 29.7375 0.143698C29.9251 0.207724 30.1116 0.276111 30.296 0.346518C30.3493 0.366832 30.4026 0.38821 30.4548 0.408418C30.5188 0.43405 30.5828 0.459681 30.6456 0.485313C30.6989 0.506691 30.7512 0.528068 30.8034 0.550403C30.8641 0.576035 30.9238 0.601667 30.9835 0.627299C31.0506 0.656121 31.1178 0.686007 31.1849 0.715893C31.3385 0.78428 31.4908 0.854688 31.6422 0.927329C31.7093 0.959343 31.7765 0.992419 31.8425 1.0256C31.9705 1.08857 32.0983 1.15376 32.2251 1.21991C32.2901 1.25406 32.3541 1.28713 32.418 1.32244C32.4959 1.36413 32.5726 1.40572 32.6493 1.44954C33.1086 1.70362 33.5594 1.97802 34.0029 2.27061C34.0807 2.32187 34.1574 2.37313 34.2342 2.42546C34.8395 2.83653 35.43 3.2828 36.0034 3.75906C36.0749 3.81777 36.1452 3.87754 36.2155 3.93742C36.4404 4.12854 36.6631 4.32392 36.8828 4.52472C36.9521 4.58874 37.0213 4.65288 37.0907 4.7169C37.4477 5.04895 37.7973 5.39386 38.1405 5.75047C38.1991 5.81237 38.2588 5.87438 38.3175 5.93734C38.3921 6.01636 38.4667 6.09538 38.5402 6.17547C38.5978 6.23843 38.6553 6.3015 38.7128 6.36447C38.7789 6.43711 38.844 6.50858 38.9089 6.58228C38.9814 6.66343 39.0528 6.74458 39.1242 6.8268C39.1743 6.88444 39.2245 6.94315 39.2746 7.00079C39.3449 7.08301 39.4142 7.16522 39.4835 7.24743C39.5463 7.32326 39.6093 7.39803 39.6711 7.47376C39.7339 7.54959 39.7969 7.62649 39.8576 7.70328C39.9162 7.77485 39.9738 7.84739 40.0302 7.92003C40.0675 7.96491 40.1027 8.00969 40.1379 8.05563C40.188 8.11753 40.237 8.1806 40.2849 8.24463C40.3255 8.29695 40.3659 8.34928 40.4053 8.40161C40.5257 8.55965 40.6441 8.71876 40.7624 8.87893C40.8817 9.0423 41 9.20566 41.1162 9.37115C41.1727 9.45017 41.227 9.5292 41.2824 9.60822C41.3389 9.68937 41.3954 9.77264 41.4519 9.85486C41.5084 9.93707 41.5638 10.0203 41.6192 10.1036C41.664 10.1687 41.7076 10.235 41.7514 10.3011C42.5891 11.5728 43.3522 12.9117 44.0333 14.2924C44.1132 14.4547 44.1921 14.617 44.2699 14.7803C44.6536 15.5844 45.0085 16.4012 45.3346 17.2265C45.3708 17.3183 45.4071 17.4102 45.4423 17.502C45.4785 17.5938 45.5137 17.6856 45.5478 17.7785C45.583 17.8703 45.6171 17.9622 45.6512 18.055C45.6853 18.1468 45.7195 18.2387 45.7525 18.3315C45.857 18.6209 45.9582 18.9113 46.0552 19.2018C46.0818 19.2829 46.1095 19.363 46.1351 19.4441C46.166 19.537 46.1969 19.6299 46.2257 19.7228C46.2555 19.8167 46.2853 19.9097 46.3141 20.0025C46.393 20.2566 46.4687 20.5108 46.5422 20.7649C46.556 20.814 46.5699 20.8621 46.5838 20.91C46.604 20.9806 46.6232 21.051 46.6434 21.1215C46.669 21.2154 46.6946 21.3094 46.7202 21.4023C46.7447 21.4951 46.7692 21.5891 46.7938 21.682C46.8204 21.7802 46.8449 21.8784 46.8695 21.9767C46.9121 22.1464 46.9536 22.3162 46.9953 22.486C47.0198 22.5917 47.0443 22.6975 47.0688 22.8032C47.1093 22.9847 47.1498 23.1651 47.1882 23.3467C47.1892 23.352 47.1903 23.3573 47.1913 23.3627C47.2307 23.5485 47.2681 23.7333 47.3043 23.9179C47.4312 24.5703 47.5388 25.2205 47.6251 25.8655C47.6379 25.9583 47.6497 26.0502 47.6613 26.142C47.6656 26.1783 47.6698 26.2136 47.6741 26.2499C47.6954 26.4185 47.7146 26.5862 47.7316 26.7538C47.7422 26.8477 47.7519 26.9417 47.7604 27.0346C47.7785 27.2214 47.7955 27.4083 47.8094 27.593C47.8232 27.7735 47.8361 27.9539 47.8467 28.1333C47.8531 28.2412 47.8594 28.349 47.8638 28.4558C47.868 28.5359 47.8712 28.617 47.8755 28.6971V28.7024C47.8787 28.79 47.8818 28.8775 47.885 28.9641V28.9865C47.8871 29.0335 47.8882 29.0804 47.8893 29.1274C47.8903 29.1669 47.8914 29.2065 47.8914 29.2459C47.8935 29.3398 47.8946 29.4338 47.8946 29.5267Z" fill="url(#paint2_radial_719_2063)"/>
<path d="M44.3832 28.7223C44.0546 35.626 38.1809 41.0722 31.295 40.6439C24.4644 40.219 19.2925 34.3081 19.7565 27.4774C19.9951 23.9649 21.7508 20.9006 24.3269 18.8211C28.686 15.3025 31.5049 9.47517 31.4117 3.86797C31.4117 3.86754 31.412 3.86595 31.4128 3.86329C31.5165 3.47285 31.9479 3.26833 32.3182 3.42819C40.5148 6.96453 44.8124 19.7019 44.3832 28.7223Z" fill="url(#paint3_linear_719_2063)"/>
</g>
<defs>
<radialGradient id="paint0_radial_719_2063" cx="0" cy="0" r="1" gradientUnits="userSpaceOnUse" gradientTransform="translate(16.2172 -0.0834861) scale(44.9335 45.0146)">
<stop stop-color="#FFCF42"/>
<stop offset="0.262" stop-color="#FFCD42"/>
<stop offset="0.408" stop-color="#FFC540"/>
<stop offset="0.525" stop-color="#FFB73E"/>
<stop offset="0.628" stop-color="#FFA33A"/>
<stop offset="0.72" stop-color="#FF8A35"/>
<stop offset="0.805" stop-color="#FF6A30"/>
<stop offset="0.885" stop-color="#FF4529"/>
<stop offset="0.958" stop-color="#FF1B21"/>
<stop offset="1" stop-color="#FF001C"/>
</radialGradient>
<radialGradient id="paint1_radial_719_2063" cx="0" cy="0" r="1" gradientUnits="userSpaceOnUse" gradientTransform="translate(34.123 24.5229) scale(16.8618 16.8922)">
<stop stop-color="#FFB500" stop-opacity="0"/>
<stop offset="0.109" stop-color="#FCAD01" stop-opacity="0.109"/>
<stop offset="0.281" stop-color="#F49605" stop-opacity="0.281"/>
<stop offset="0.496" stop-color="#E8710B" stop-opacity="0.496"/>
<stop offset="0.744" stop-color="#D63D13" stop-opacity="0.744"/>
<stop offset="1" stop-color="#C1001C"/>
</radialGradient>
<radialGradient id="paint2_radial_719_2063" cx="0" cy="0" r="1" gradientUnits="userSpaceOnUse" gradientTransform="translate(28.3431 14.242) scale(29.9219 29.9759)">
<stop stop-color="#F9C6A0" stop-opacity="0"/>
<stop offset="0.014" stop-color="#F9C69E" stop-opacity="0"/>
<stop offset="0.02" stop-color="#FAC797" stop-opacity="0"/>
<stop offset="0.023" stop-color="#FAC88C" stop-opacity="0"/>
<stop offset="0.026" stop-color="#FBCA7B" stop-opacity="0"/>
<stop offset="0.029" stop-color="#FDCC65" stop-opacity="0"/>
<stop offset="0.031" stop-color="#FECE4A" stop-opacity="0"/>
<stop offset="0.032" stop-color="#FFCF42" stop-opacity="0"/>
<stop offset="0.408" stop-color="#FFCD42" stop-opacity="0.389"/>
<stop offset="0.543" stop-color="#FFC640" stop-opacity="0.529"/>
<stop offset="0.64" stop-color="#FFBB3E" stop-opacity="0.628"/>
<stop offset="0.718" stop-color="#FFAA3B" stop-opacity="0.709"/>
<stop offset="0.785" stop-color="#FF9437" stop-opacity="0.778"/>
<stop offset="0.845" stop-color="#FF7832" stop-opacity="0.839"/>
<stop offset="0.898" stop-color="#FF582C" stop-opacity="0.895"/>
<stop offset="0.947" stop-color="#FF3225" stop-opacity="0.946"/>
<stop offset="0.991" stop-color="#FF091E" stop-opacity="0.991"/>
<stop offset="1" stop-color="#FF001C"/>
</radialGradient>
<linearGradient id="paint3_linear_719_2063" x1="38.1729" y1="19.3564" x2="65.836" y2="3.3265" gradientUnits="userSpaceOnUse">
<stop offset="0.0001" stop-color="#E7EEED" stop-opacity="0"/>
<stop offset="1" stop-color="#E7EEED"/>
</linearGradient>
<clipPath id="clip0_719_2063">
<rect width="31" height="45.3077" fill="white" transform="translate(17)"/>
</clipPath>
</defs>
</svg>
