<svg width="40" height="40" viewBox="0 0 40 40" fill="none" xmlns="http://www.w3.org/2000/svg">
<circle cx="20" cy="20" r="20" fill="#7F7F7F"/>
<path d="M20 14.4399V17.7699" stroke="white" stroke-width="1.5" stroke-miterlimit="10" stroke-linecap="round"/>
<path d="M20.0199 10C16.3399 10 13.3599 12.98 13.3599 16.66V18.76C13.3599 19.44 13.0799 20.46 12.7299 21.04L11.4599 23.16C10.6799 24.47 11.2199 25.93 12.6599 26.41C17.4399 28 22.6099 28 27.3899 26.41C28.7399 25.96 29.3199 24.38 28.5899 23.16L27.3199 21.04C26.9699 20.46 26.6899 19.43 26.6899 18.76V16.66C26.6799 13 23.6799 10 20.0199 10Z" stroke="white" stroke-width="1.5" stroke-miterlimit="10" stroke-linecap="round"/>
<path d="M23.3299 26.8199C23.3299 28.6499 21.8299 30.1499 19.9999 30.1499C19.0899 30.1499 18.2499 29.7699 17.6499 29.1699C17.0499 28.5699 16.6699 27.7299 16.6699 26.8199" stroke="white" stroke-width="1.5" stroke-miterlimit="10"/>
<circle cx="35.5" cy="6.5" r="4.5" fill="#6FC069"/>
</svg>
