<svg width="85" height="63" viewBox="0 0 85 63" fill="none" xmlns="http://www.w3.org/2000/svg">
<circle cx="46.5" cy="31.5" r="31.5" fill="#B5D3AD"/>
<g style="mix-blend-mode:multiply" opacity="0.25">
<path d="M68.1948 42.0965C68.1948 41.3316 66.3878 40.7057 64.1618 40.7057C61.9359 40.7057 60.1323 41.3246 60.1323 42.0965C60.1323 42.8685 61.9359 43.4874 64.1618 43.4874C66.3878 43.4874 68.1948 42.8615 68.1948 42.0965Z" fill="#E8BD69"/>
</g>
<path d="M61.6728 23.2818C61.6728 23.2818 63.9403 37.4511 61.3267 42.2147H66.1732C66.1732 42.2147 65.9066 29.4398 63.0195 22.9307L61.6728 23.2818Z" fill="#9E594D"/>
<path d="M64.2553 27.204H62.3133C62.1804 27.196 62.0561 27.1356 61.9673 27.036C61.8785 26.9363 61.8324 26.8056 61.839 26.672V26.6129C61.8324 26.4794 61.8785 26.3486 61.9673 26.249C62.0561 26.1494 62.1804 26.089 62.3133 26.0809H64.2553C64.3882 26.089 64.5125 26.1494 64.6013 26.249C64.6901 26.3486 64.7362 26.4794 64.7296 26.6129V26.672C64.7362 26.8056 64.6901 26.9363 64.6013 27.036C64.5125 27.1356 64.3882 27.196 64.2553 27.204Z" fill="#7C4134"/>
<path d="M64.8747 30.4552H62.4757C62.3355 30.4471 62.2041 30.3838 62.1101 30.279C62.0161 30.1742 61.9671 30.0363 61.9737 29.8954V29.8294C61.9671 29.6884 62.0161 29.5506 62.1101 29.4458C62.2041 29.341 62.3355 29.2776 62.4757 29.2695H64.8747C65.0155 29.2767 65.1478 29.3397 65.2425 29.4446C65.3373 29.5495 65.3867 29.6879 65.3801 29.8294V29.8954C65.3867 30.0369 65.3373 30.1752 65.2425 30.2802C65.1478 30.3851 65.0155 30.448 64.8747 30.4552Z" fill="#7C4134"/>
<path d="M65.4531 33.7063H62.5971C62.4487 33.6982 62.3094 33.6316 62.2095 33.5209C62.1097 33.4102 62.0574 33.2644 62.064 33.1152V33.0491C62.0574 32.8999 62.1097 32.7541 62.2095 32.6434C62.3094 32.5327 62.4487 32.4661 62.5971 32.458H65.4531C65.6016 32.4661 65.7409 32.5327 65.8407 32.6434C65.9406 32.7541 65.9928 32.8999 65.9862 33.0491V33.1152C65.9928 33.2644 65.9406 33.4102 65.8407 33.5209C65.7409 33.6316 65.6016 33.6982 65.4531 33.7063Z" fill="#7C4134"/>
<path d="M65.8997 36.9574H62.5799C62.4246 36.9484 62.2792 36.8784 62.1749 36.7626C62.0706 36.6468 62.0159 36.4944 62.0225 36.3384V36.2654C62.0159 36.1094 62.0706 35.957 62.1749 35.8412C62.2792 35.7254 62.4246 35.6555 62.5799 35.6465H65.8997C66.0552 35.6546 66.2012 35.7243 66.3057 35.8403C66.4102 35.9563 66.4646 36.1092 66.4571 36.2654V36.3384C66.4646 36.4947 66.4102 36.6475 66.3057 36.7636C66.2012 36.8796 66.0552 36.9493 65.8997 36.9574Z" fill="#7C4134"/>
<path d="M66.0344 40.2085H62.2541C62.0922 40.1987 61.9406 40.1254 61.8318 40.0045C61.7231 39.8835 61.6659 39.7246 61.6725 39.5618V39.4853C61.665 39.3219 61.7217 39.1621 61.8306 39.0404C61.9394 38.9187 62.0916 38.845 62.2541 38.8351H66.0344C66.1973 38.8441 66.35 38.9176 66.459 39.0394C66.568 39.1613 66.6245 39.3217 66.616 39.4853V39.5618C66.6235 39.7248 66.5667 39.8843 66.4577 40.0054C66.3488 40.1265 66.1966 40.1996 66.0344 40.2085Z" fill="#7C4134"/>
<path d="M66.1556 42.2252C66.1556 42.2252 65.889 29.4503 63.0019 22.9412L62.7769 23.0003C63.7877 26.5087 65.844 35.0798 64.2135 42.2252H66.1556Z" fill="#7C4134"/>
<path d="M63.1233 22.4057L54.6143 28.4906L53.1984 29.5059C52.6861 20.3716 62.8568 22.35 63.1164 22.4022L63.1233 22.4057Z" fill="#77AE63"/>
<path d="M63.1164 22.3847C62.8983 22.3569 55.5005 21.3694 54.6143 28.4732L53.1984 29.4885C52.6861 20.3541 62.843 22.3326 63.1164 22.3847Z" fill="#94BE67"/>
<path d="M63.1474 22.437L52.7309 21.6651L51 21.5399C56.4108 14.1788 62.9813 22.2353 63.1509 22.4335L63.1474 22.437Z" fill="#77AE63"/>
<path d="M63.1474 22.4334C62.9951 22.27 57.9547 16.7727 52.7309 21.665L51 21.5398C56.4073 14.1787 62.9778 22.2248 63.1474 22.4334Z" fill="#94BE67"/>
<path d="M62.5898 22.4057L71.0989 28.4906L72.5148 29.5059C73.0271 20.3716 62.8564 22.35 62.5968 22.4022L62.5898 22.4057Z" fill="#77AE63"/>
<path d="M62.5972 22.3847C62.8153 22.3569 70.2131 21.3694 71.0993 28.4732L72.5152 29.4885C73.0275 20.3541 62.843 22.3326 62.5972 22.3847Z" fill="#94BE67"/>
<path d="M62.566 22.437L72.9825 21.6651L74.7134 21.5399C69.3026 14.1788 62.7321 22.2353 62.5625 22.4335L62.566 22.437Z" fill="#77AE63"/>
<path d="M62.5659 22.4334C62.7182 22.27 67.7586 16.7727 72.9824 21.665L74.7133 21.5398C69.306 14.1787 62.7355 22.2248 62.5659 22.4334Z" fill="#94BE67"/>
<path d="M62.8426 22.4057L57.1791 15.2568L56.2236 14.0606C64.1061 13.1913 62.8633 22.1658 62.8322 22.4057H62.8426Z" fill="#77AE63"/>
<path d="M62.8426 22.3813C62.8426 22.19 63.3688 15.6948 57.1791 15.2393L56.2236 14.0605C64.1061 13.1808 62.8633 22.1553 62.8426 22.3813Z" fill="#94BE67"/>
<path d="M62.8429 22.4508L67.8141 16.192L68.6449 15.1489C61.7213 14.3839 62.8153 22.2596 62.8429 22.4508Z" fill="#77AE63"/>
<path d="M62.843 22.4474C62.843 22.2771 62.3791 16.5746 67.8141 16.1886L68.6449 15.1455C61.7248 14.3701 62.8153 22.2458 62.843 22.4474Z" fill="#94BE67"/>
<path d="M61.6069 24.9405C62.4557 24.9405 63.1439 24.2493 63.1439 23.3966C63.1439 22.544 62.4557 21.8528 61.6069 21.8528C60.758 21.8528 60.0698 22.544 60.0698 23.3966C60.0698 24.2493 60.758 24.9405 61.6069 24.9405Z" fill="#9E594D"/>
<path d="M62.1502 21.9467C62.3069 22.1789 62.3975 22.4496 62.4125 22.7297C62.4274 23.0099 62.3661 23.2888 62.2351 23.5365C62.1042 23.7843 61.9085 23.9915 61.6691 24.1359C61.4296 24.2804 61.1556 24.3565 60.8763 24.3563C60.6967 24.3577 60.5183 24.3259 60.3501 24.2624C60.486 24.464 60.6674 24.6304 60.8796 24.7481C61.0917 24.8658 61.3286 24.9315 61.5708 24.9397C61.813 24.9479 62.0537 24.8985 62.2733 24.7955C62.4929 24.6925 62.6851 24.5387 62.8343 24.3468C62.9834 24.155 63.0853 23.9304 63.1315 23.6914C63.1778 23.4525 63.1671 23.2059 63.1004 22.9719C63.0337 22.7378 62.9129 22.523 62.7478 22.3448C62.5826 22.1666 62.3779 22.0302 62.1502 21.9467Z" fill="#7C4134"/>
<path d="M64.0922 24.9405C64.9411 24.9405 65.6292 24.2493 65.6292 23.3966C65.6292 22.544 64.9411 21.8528 64.0922 21.8528C63.2433 21.8528 62.5552 22.544 62.5552 23.3966C62.5552 24.2493 63.2433 24.9405 64.0922 24.9405Z" fill="#9E594D"/>
<path d="M64.6185 21.9467C64.7751 22.1789 64.8658 22.4496 64.8807 22.7297C64.8957 23.0099 64.8344 23.2888 64.7034 23.5365C64.5724 23.7843 64.3767 23.9915 64.1373 24.1359C63.8979 24.2804 63.6238 24.3565 63.3446 24.3563C63.165 24.3571 62.9867 24.3253 62.8184 24.2624C62.9543 24.464 63.1357 24.6304 63.3478 24.7481C63.56 24.8658 63.7968 24.9315 64.039 24.9397C64.2813 24.9479 64.522 24.8985 64.7416 24.7955C64.9612 24.6925 65.1534 24.5387 65.3025 24.3468C65.4517 24.155 65.5535 23.9304 65.5998 23.6914C65.6461 23.4525 65.6354 23.2059 65.5687 22.9719C65.502 22.7378 65.3812 22.523 65.216 22.3448C65.0509 22.1666 64.8461 22.0302 64.6185 21.9467Z" fill="#7C4134"/>
<g style="mix-blend-mode:multiply" opacity="0.25">
<path d="M78.2028 44.5723C78.2028 43.8525 76.4962 43.2649 74.3949 43.2649C72.2936 43.2649 70.5869 43.8525 70.5869 44.5723C70.5869 45.2921 72.2901 45.8832 74.3949 45.8832C76.4996 45.8832 78.2028 45.2955 78.2028 44.5723Z" fill="#E8BD69"/>
</g>
<path d="M75.8278 29.5477C75.8278 29.5477 73.9827 41.0848 76.1151 44.9617H72.1895C72.1895 44.9617 72.4041 34.5617 74.7546 29.2626L75.8278 29.5477Z" fill="#9E594D"/>
<path d="M73.7267 32.7431H75.3052C75.4139 32.7368 75.5157 32.6876 75.5884 32.6061C75.661 32.5247 75.6986 32.4177 75.6929 32.3085V32.2598C75.6957 32.2059 75.6879 32.1519 75.67 32.1011C75.652 32.0502 75.6242 32.0034 75.5881 31.9634C75.5521 31.9233 75.5086 31.8908 75.4601 31.8677C75.4115 31.8446 75.3589 31.8313 75.3052 31.8286H73.7267C73.673 31.8313 73.6204 31.8446 73.5718 31.8677C73.5233 31.8908 73.4798 31.9233 73.4437 31.9634C73.4077 32.0034 73.3799 32.0502 73.3619 32.1011C73.3439 32.1519 73.3361 32.2059 73.3389 32.2598V32.3085C73.3333 32.4177 73.3709 32.5247 73.4435 32.6061C73.5162 32.6876 73.618 32.7368 73.7267 32.7431Z" fill="#7C4134"/>
<path d="M73.2283 35.3892H75.1808C75.2953 35.3803 75.4017 35.3264 75.4769 35.2392C75.5521 35.1519 75.59 35.0384 75.5823 34.9233V34.8712C75.588 34.7564 75.5482 34.6441 75.4716 34.5587C75.3951 34.4734 75.288 34.4219 75.1738 34.4156H73.2283C73.1138 34.4219 73.0064 34.4733 72.9293 34.5585C72.8522 34.6438 72.8116 34.7561 72.8164 34.8712V34.9233C72.8126 34.9811 72.8203 35.0391 72.839 35.094C72.8578 35.1488 72.8872 35.1993 72.9255 35.2427C72.9638 35.286 73.0103 35.3213 73.0623 35.3464C73.1143 35.3716 73.1707 35.3861 73.2283 35.3892Z" fill="#7C4134"/>
<path d="M72.7506 38.0527H75.0769C75.1976 38.0464 75.3108 37.9924 75.3919 37.9025C75.473 37.8126 75.5153 37.6941 75.5097 37.5729V37.5172C75.5153 37.3957 75.4731 37.2768 75.3921 37.1864C75.3111 37.0959 75.1979 37.0411 75.0769 37.0339H72.7506C72.6297 37.0411 72.5165 37.0959 72.4355 37.1864C72.3545 37.2768 72.3122 37.3957 72.3179 37.5172V37.5729C72.3122 37.6941 72.3546 37.8126 72.4357 37.9025C72.5168 37.9924 72.63 38.0464 72.7506 38.0527Z" fill="#7C4134"/>
<path d="M72.3871 40.6814H75.0873C75.2137 40.6742 75.3322 40.6172 75.4171 40.5228C75.502 40.4284 75.5464 40.3043 75.5408 40.1772V40.1181C75.5464 39.991 75.502 39.8668 75.4171 39.7724C75.3322 39.6781 75.2137 39.6211 75.0873 39.6139H72.3871C72.2606 39.6211 72.1421 39.6781 72.0572 39.7724C71.9723 39.8668 71.9279 39.991 71.9336 40.1181V40.1772C71.9279 40.3043 71.9723 40.4284 72.0572 40.5228C72.1421 40.6172 72.2606 40.6742 72.3871 40.6814Z" fill="#7C4134"/>
<path d="M72.2762 43.3274H75.3537C75.4863 43.3202 75.6106 43.2606 75.6995 43.1615C75.7884 43.0624 75.8346 42.9321 75.828 42.7989V42.7398C75.8346 42.6062 75.7885 42.4755 75.6997 42.3758C75.6109 42.2762 75.4866 42.2158 75.3537 42.2078H72.2762C72.1433 42.2158 72.0189 42.2762 71.9302 42.3758C71.8414 42.4755 71.7953 42.6062 71.8019 42.7398V42.7989C71.7953 42.9321 71.8415 43.0624 71.9304 43.1615C72.0193 43.2606 72.1436 43.3202 72.2762 43.3274Z" fill="#7C4134"/>
<path d="M72.1895 44.9617C72.1895 44.9617 72.4041 34.5617 74.7546 29.2626L74.9381 29.3112C74.1142 32.166 72.4422 39.1411 73.7715 44.9583L72.1895 44.9617Z" fill="#7C4134"/>
<path d="M74.6475 28.8209L81.571 33.7758L82.7238 34.5999C83.1392 27.1658 74.8586 28.7757 74.6475 28.8209Z" fill="#77AE63"/>
<path d="M74.6509 28.8209C74.8309 28.7966 80.844 27.9899 81.5745 33.7758L82.7272 34.5999C83.1426 27.1658 74.862 28.7757 74.6509 28.8209Z" fill="#94BE67"/>
<path d="M74.6128 28.8627L83.0942 28.2333L84.5031 28.129C80.0997 22.1414 74.7513 28.6888 74.6163 28.8592L74.6128 28.8627Z" fill="#77AE63"/>
<path d="M74.6299 28.8592C74.751 28.7236 78.8671 24.2485 83.1078 28.2333L84.5167 28.129C80.1134 22.1414 74.7649 28.6888 74.6299 28.8592Z" fill="#94BE67"/>
<path d="M75.0803 28.8209L68.1567 33.7758L66.9971 34.5999C66.5816 27.1658 74.8622 28.7757 75.0734 28.8209H75.0803Z" fill="#77AE63"/>
<path d="M75.0766 28.8209C74.8966 28.7966 68.8835 27.9899 68.1531 33.7758L66.9968 34.5999C66.5849 27.1658 74.8655 28.7757 75.0766 28.8209Z" fill="#94BE67"/>
<path d="M75.1008 28.8627L66.6194 28.2333L65.2104 28.129C69.6138 22.1414 74.9623 28.6888 75.1008 28.8592V28.8627Z" fill="#77AE63"/>
<path d="M75.1008 28.8592C74.9761 28.7236 70.8601 24.2485 66.6194 28.2333L65.2104 28.129C69.6138 22.1414 74.9588 28.6888 75.1008 28.8592Z" fill="#94BE67"/>
<path d="M74.8863 28.8209L79.4939 23.0037L80.2624 22.037C73.8477 21.3416 74.8586 28.6436 74.8828 28.8174L74.8863 28.8209Z" fill="#77AE63"/>
<path d="M74.8828 28.8174C74.8828 28.6609 74.4535 23.3722 79.4939 23.0037L80.2624 22.037C73.8477 21.3277 74.8586 28.6296 74.8828 28.8174Z" fill="#94BE67"/>
<path d="M74.8759 28.8731L70.8291 23.7652L70.1367 22.9168C75.769 22.2944 74.8828 28.7062 74.8586 28.8696L74.8759 28.8731Z" fill="#77AE63"/>
<path d="M74.8759 28.8696C74.8759 28.7305 75.2532 24.0921 70.8291 23.7652L70.1367 22.9168C75.7864 22.2944 74.9001 28.7062 74.8759 28.8696Z" fill="#94BE67"/>
<path d="M74.6299 29.6415C74.6299 29.3926 74.7034 29.1492 74.8411 28.9422C74.9788 28.7352 75.1745 28.5739 75.4035 28.4786C75.6325 28.3834 75.8844 28.3584 76.1275 28.407C76.3706 28.4556 76.5939 28.5755 76.7692 28.7515C76.9444 28.9275 77.0638 29.1518 77.1121 29.396C77.1605 29.6401 77.1357 29.8932 77.0408 30.1232C76.946 30.3532 76.7854 30.5498 76.5793 30.6881C76.3732 30.8264 76.1309 30.9002 75.883 30.9002C75.5507 30.9002 75.232 30.7676 74.9969 30.5316C74.7619 30.2955 74.6299 29.9754 74.6299 29.6415Z" fill="#9E594D"/>
<path d="M75.4541 28.4628C75.3051 28.6826 75.2294 28.9442 75.238 29.21C75.2466 29.4758 75.339 29.7319 75.5018 29.9416C75.6647 30.1512 75.8897 30.3034 76.1443 30.3764C76.3989 30.4493 76.6699 30.4391 76.9184 30.3474C76.8076 30.5108 76.66 30.6456 76.4876 30.7408C76.3151 30.836 76.1227 30.889 75.926 30.8954C75.7293 30.9018 75.5338 30.8615 75.3556 30.7777C75.1774 30.6939 75.0214 30.569 74.9003 30.4131C74.7792 30.2573 74.6965 30.0749 74.6588 29.8809C74.6212 29.6869 74.6297 29.4867 74.6837 29.2966C74.7376 29.1065 74.8356 28.9319 74.9694 28.787C75.1033 28.6421 75.2694 28.531 75.4541 28.4628Z" fill="#7C4134"/>
<path d="M73.8581 30.9002C74.5503 30.9002 75.1113 30.3367 75.1113 29.6415C75.1113 28.9464 74.5503 28.3828 73.8581 28.3828C73.166 28.3828 72.605 28.9464 72.605 29.6415C72.605 30.3367 73.166 30.9002 73.8581 30.9002Z" fill="#9E594D"/>
<path d="M73.4287 28.4628C73.3019 28.6521 73.2288 28.8724 73.2171 29.1003C73.2054 29.3281 73.2555 29.5548 73.3622 29.7563C73.4689 29.9577 73.628 30.1262 73.8227 30.2438C74.0173 30.3614 74.2401 30.4236 74.4672 30.4239C74.6125 30.4236 74.7566 30.3977 74.893 30.3474C74.7822 30.5108 74.6346 30.6456 74.4621 30.7408C74.2897 30.836 74.0973 30.889 73.9006 30.8954C73.7039 30.9018 73.5085 30.8615 73.3302 30.7777C73.152 30.6939 72.9959 30.569 72.8749 30.4131C72.7538 30.2573 72.6711 30.0749 72.6334 29.8809C72.5958 29.6869 72.6043 29.4867 72.6583 29.2966C72.7122 29.1065 72.8102 28.9319 72.944 28.787C73.0779 28.6421 73.244 28.531 73.4287 28.4628Z" fill="#7C4134"/>
<path d="M68.9655 43.9007C68.9655 42.3875 53.6838 41.1602 34.8346 41.1602C15.9853 41.1602 0.703613 42.3875 0.703613 43.9007C0.703613 45.4139 15.9853 46.6482 34.8346 46.6482C53.6838 46.6482 68.9655 45.4209 68.9655 43.9007Z" fill="#FFF0D2"/>
<path d="M50.9375 43.5521H18.0566C21.2029 38.4545 34.167 17.5203 34.5884 18.0084C35.0098 18.4965 48.4655 38.8171 50.9375 43.5521Z" fill="#DD9D5B"/>
<path opacity="0.53" d="M33.3875 29.7586L31.091 34.8283L32.8257 37.8827L33.4647 43.573H18.0566C21.2029 38.4754 34.167 17.5411 34.5884 18.0293L32.1866 26.9832L33.3875 29.7586Z" fill="#9E594D"/>
<path d="M65.0743 43.9914C65.0743 43.9914 57.9672 43.7264 50.7056 43.5382C43.444 43.3499 35.8594 43.2313 35.3818 43.5382L51.8012 21.2231L65.0743 43.9914Z" fill="#DD9D5B"/>
<path opacity="0.53" d="M53.3392 29.7377L50.7056 43.5521C43.3597 43.3568 35.8594 43.2452 35.3818 43.5521L51.8012 21.2371L51.0357 27.9037L53.3392 29.7377Z" fill="#9E594D"/>
<path d="M29.2652 43.5521H4.50977C6.88348 39.3193 16.6382 21.9345 16.9612 22.318C17.2843 22.7016 27.4042 39.6191 29.2652 43.5521Z" fill="#DD9D5B"/>
<path opacity="0.53" d="M15.339 30.3793L16.3994 32.8409L14.5665 39.7656V43.5521H4.50977C6.88348 39.3193 16.6382 21.9345 16.9612 22.318L15.339 30.3793Z" fill="#9E594D"/>
</svg>
