<svg width="20" height="20" viewBox="0 0 20 20" fill="none" xmlns="http://www.w3.org/2000/svg">
<path d="M17.9321 11.0436C17.7433 12.4836 17.166 13.845 16.2622 14.9818C15.3585 16.1186 14.1623 16.988 12.802 17.4966C11.4418 18.0053 9.96866 18.1341 8.54074 17.8692C7.11282 17.6043 5.78395 16.9557 4.69664 15.9929C3.60933 15.0302 2.8046 13.7896 2.36876 12.4043C1.93292 11.0189 1.8824 9.54106 2.22264 8.12919C2.56287 6.71733 3.28102 5.42471 4.30006 4.38996C5.3191 3.35522 6.60059 2.61739 8.00709 2.25561C11.9061 1.25561 15.9421 3.26261 17.4321 7.00261" stroke="white" stroke-width="3" stroke-linecap="round" stroke-linejoin="round"/>
<path d="M17.999 2.00269V7.00269H12.999" stroke="white" stroke-width="3" stroke-linecap="round" stroke-linejoin="round"/>
</svg>
