<svg width="18" height="18" viewBox="0 0 18 18" fill="none" xmlns="http://www.w3.org/2000/svg">
<path d="M14 0H4C2.93913 0 1.92172 0.421427 1.17157 1.17157C0.421427 1.92172 0 2.93913 0 4V14C0 15.0609 0.421427 16.0783 1.17157 16.8284C1.92172 17.5786 2.93913 18 4 18H14C15.0609 18 16.0783 17.5786 16.8284 16.8284C17.5786 16.0783 18 15.0609 18 14V4C18 2.93913 17.5786 1.92172 16.8284 1.17157C16.0783 0.421427 15.0609 0 14 0ZM13 7.13L8.19 11.93C8.1211 12.0006 8.03862 12.0565 7.94752 12.0943C7.85643 12.1321 7.75862 12.151 7.66 12.15C7.56146 12.1505 7.46382 12.1312 7.37281 12.0935C7.28179 12.0557 7.19924 12.0001 7.13 11.93L5 9.74C4.90861 9.59904 4.86719 9.43148 4.88238 9.26418C4.89756 9.09688 4.96848 8.93952 5.08376 8.81732C5.19904 8.69512 5.352 8.61517 5.51814 8.59027C5.68428 8.56537 5.85396 8.59697 6 8.68L7.66 10.34L12 6.07C12.0689 5.99924 12.1514 5.94301 12.2424 5.90461C12.3334 5.86621 12.4312 5.84643 12.53 5.84643C12.6288 5.84643 12.7266 5.86621 12.8176 5.90461C12.9086 5.94301 12.9911 5.99924 13.06 6.07C13.1258 6.1435 13.1764 6.22924 13.2089 6.32232C13.2415 6.4154 13.2554 6.51399 13.2498 6.61244C13.2443 6.7109 13.2193 6.80729 13.1765 6.8961C13.1336 6.98491 13.0736 7.06439 13 7.13Z" fill="#4CC77B"/>
</svg>
